Roman_opsz12.ufo
<glyph name="exclam" format="2">
	<unicode hex="0021"/>
	<advance width="271"/>
	<outline>
		<contour>
			<point x="135" y="180" type="curve" smooth="yes"/>
			<point x="145" y="180"/>
			<point x="147" y="183"/>
			<point x="148" y="201" type="curve" smooth="yes"/>
			<point x="159.988" y="356.511"/>
			<point x="171.976" y="512.022"/>
			<point x="184" y="668" type="curve"/>
			<point x="184" y="700"/>
			<point x="157" y="715"/>
			<point x="136" y="715" type="curve" smooth="yes"/>
			<point x="115" y="715"/>
			<point x="84" y="701"/>
			<point x="87" y="659" type="curve" smooth="yes"/>
			<point x="98.988" y="506.486"/>
			<point x="110.976" y="353.972"/>
			<point x="123" y="201" type="curve" smooth="yes"/>
			<point x="124" y="184"/>
			<point x="126" y="180"/>
		</contour>
		<contour>
			<point x="135" y="0" type="curve" smooth="yes"/>
			<point x="163" y="0"/>
			<point x="184" y="22"/>
			<point x="184" y="49" type="curve" smooth="yes"/>
			<point x="184" y="75"/>
			<point x="162" y="97"/>
			<point x="136" y="97" type="curve" smooth="yes"/>
			<point x="108" y="97"/>
			<point x="87" y="75"/>
			<point x="87" y="48" type="curve" smooth="yes"/>
			<point x="87" y="22"/>
			<point x="109" y="0"/>
		</contour>
	</outline>
</glyph>
<glyph name="numbersign" format="2">
	<unicode hex="0023"/>
	<advance width="1630"/>
	<outline>
		<contour>
			<point x="364" y="-388" type="curve" smooth="yes"/>
			<point x="392" y="-388"/>
			<point x="398" y="-362"/>
			<point x="404" y="-342" type="curve" smooth="yes"/>
			<point x="568" y="276" type="line"/>
			<point x="942" y="276" type="line"/>
			<point x="890" y="80"/>
			<point x="838" y="-117"/>
			<point x="786" y="-314" type="curve" smooth="yes"/>
			<point x="778" y="-342"/>
			<point x="778" y="-348"/>
			<point x="778" y="-350" type="curve" smooth="yes"/>
			<point x="778" y="-372"/>
			<point x="794" y="-388"/>
			<point x="816" y="-388" type="curve" smooth="yes"/>
			<point x="844" y="-388"/>
			<point x="850" y="-362"/>
			<point x="856" y="-342" type="curve" smooth="yes"/>
			<point x="1020" y="276" type="line"/>
			<point x="1458" y="276" type="line" smooth="yes"/>
			<point x="1486" y="276"/>
			<point x="1522" y="276"/>
			<point x="1522" y="312" type="curve" smooth="yes"/>
			<point x="1522" y="350"/>
			<point x="1488" y="350"/>
			<point x="1458" y="350" type="curve" smooth="yes"/>
			<point x="1040" y="350" type="line"/>
			<point x="1118" y="648" type="line"/>
			<point x="1458" y="648" type="line" smooth="yes"/>
			<point x="1486" y="648"/>
			<point x="1522" y="648"/>
			<point x="1522" y="684" type="curve" smooth="yes"/>
			<point x="1522" y="722"/>
			<point x="1488" y="722"/>
			<point x="1458" y="722" type="curve" smooth="yes"/>
			<point x="1140" y="722" type="line"/>
			<point x="1296" y="1314" type="line" smooth="yes"/>
			<point x="1304" y="1342"/>
			<point x="1304" y="1348"/>
			<point x="1304" y="1350" type="curve" smooth="yes"/>
			<point x="1304" y="1372"/>
			<point x="1288" y="1388"/>
			<point x="1266" y="1388" type="curve" smooth="yes"/>
			<point x="1238" y="1388"/>
			<point x="1232" y="1362"/>
			<point x="1226" y="1342" type="curve" smooth="yes"/>
			<point x="1062" y="722" type="line"/>
			<point x="688" y="722" type="line"/>
			<point x="844" y="1314" type="line" smooth="yes"/>
			<point x="852" y="1342"/>
			<point x="852" y="1348"/>
			<point x="852" y="1350" type="curve" smooth="yes"/>
			<point x="852" y="1372"/>
			<point x="836" y="1388"/>
			<point x="814" y="1388" type="curve" smooth="yes"/>
			<point x="786" y="1388"/>
			<point x="780" y="1362"/>
			<point x="774" y="1342" type="curve" smooth="yes"/>
			<point x="610" y="722" type="line"/>
			<point x="172" y="722" type="line" smooth="yes"/>
			<point x="144" y="722"/>
			<point x="108" y="722"/>
			<point x="108" y="686" type="curve" smooth="yes"/>
			<point x="108" y="648"/>
			<point x="142" y="648"/>
			<point x="172" y="648" type="curve" smooth="yes"/>
			<point x="590" y="648" type="line"/>
			<point x="512" y="350" type="line"/>
			<point x="172" y="350" type="line" smooth="yes"/>
			<point x="144" y="350"/>
			<point x="108" y="350"/>
			<point x="108" y="314" type="curve" smooth="yes"/>
			<point x="108" y="276"/>
			<point x="142" y="276"/>
			<point x="172" y="276" type="curve" smooth="yes"/>
			<point x="490" y="276" type="line"/>
			<point x="438" y="80"/>
			<point x="386" y="-117"/>
			<point x="334" y="-314" type="curve" smooth="yes"/>
			<point x="326" y="-342"/>
			<point x="326" y="-348"/>
			<point x="326" y="-350" type="curve" smooth="yes"/>
			<point x="326" y="-372"/>
			<point x="342" y="-388"/>
		</contour>
		<contour>
			<point x="588" y="350" type="line"/>
			<point x="666" y="648" type="line"/>
			<point x="1042" y="648" type="line"/>
			<point x="964" y="350" type="line"/>
		</contour>
	</outline>
</glyph>
<glyph name="dollar" format="2">
	<unicode hex="0024"/>
	<advance width="978"/>
	<outline>
		<contour>
			<point x="460" y="-112" type="line"/>
			<point x="518" y="-112" type="line"/>
			<point x="518" y="-18" type="line"/>
			<point x="732" y="2"/>
			<point x="870" y="186"/>
			<point x="870" y="388" type="curve" smooth="yes"/>
			<point x="870" y="474"/>
			<point x="846" y="578"/>
			<point x="760" y="674" type="curve" smooth="yes"/>
			<point x="686" y="756"/>
			<point x="598" y="778"/>
			<point x="518" y="798" type="curve"/>
			<point x="518" y="1350" type="line"/>
			<point x="664" y="1342"/>
			<point x="786" y="1270"/>
			<point x="816" y="1130" type="curve"/>
			<point x="798" y="1134"/>
			<point x="794" y="1134"/>
			<point x="788" y="1134" type="curve" smooth="yes"/>
			<point x="750" y="1134"/>
			<point x="704" y="1108"/>
			<point x="704" y="1050" type="curve" smooth="yes"/>
			<point x="704" y="1000"/>
			<point x="740" y="968"/>
			<point x="786" y="968" type="curve" smooth="yes"/>
			<point x="826" y="968"/>
			<point x="870" y="988"/>
			<point x="870" y="1060" type="curve" smooth="yes"/>
			<point x="870" y="1234"/>
			<point x="756" y="1396"/>
			<point x="518" y="1408" type="curve"/>
			<point x="518" y="1500" type="line"/>
			<point x="460" y="1500" type="line"/>
			<point x="460" y="1406" type="line"/>
			<point x="250" y="1390"/>
			<point x="108" y="1218"/>
			<point x="108" y="1030" type="curve" smooth="yes"/>
			<point x="108" y="920"/>
			<point x="154" y="826"/>
			<point x="222" y="758" type="curve" smooth="yes"/>
			<point x="294" y="688"/>
			<point x="356" y="672"/>
			<point x="460" y="646" type="curve"/>
			<point x="460" y="38" type="line"/>
			<point x="382" y="44"/>
			<point x="200" y="76"/>
			<point x="160" y="288" type="curve"/>
			<point x="166" y="286"/>
			<point x="180" y="282"/>
			<point x="192" y="282" type="curve" smooth="yes"/>
			<point x="226" y="282"/>
			<point x="274" y="306"/>
			<point x="274" y="366" type="curve" smooth="yes"/>
			<point x="274" y="414"/>
			<point x="240" y="448"/>
			<point x="192" y="448" type="curve" smooth="yes"/>
			<point x="152" y="448"/>
			<point x="108" y="428"/>
			<point x="108" y="356" type="curve" smooth="yes"/>
			<point x="108" y="174"/>
			<point x="216" y="-4"/>
			<point x="460" y="-20" type="curve"/>
		</contour>
		<contour>
			<point x="460" y="814" type="line"/>
			<point x="202" y="866"/>
			<point x="202" y="1056"/>
			<point x="202" y="1082" type="curve" smooth="yes"/>
			<point x="202" y="1202"/>
			<point x="294" y="1330"/>
			<point x="460" y="1348" type="curve"/>
		</contour>
		<contour>
			<point x="518" y="40" type="curve"/>
			<point x="518" y="236"/>
			<point x="518" y="433"/>
			<point x="518" y="630" type="curve"/>
			<point x="766" y="580"/>
			<point x="776" y="374"/>
			<point x="776" y="334" type="curve" smooth="yes"/>
			<point x="776" y="192"/>
			<point x="676" y="58"/>
		</contour>
	</outline>
</glyph>
<glyph name="percent" format="2">
	<unicode hex="0025"/>
	<advance width="1630"/>
	<outline>
		<contour>
			<point x="1342" y="1428" type="line" smooth="yes"/>
			<point x="1354" y="1446"/>
			<point x="1358" y="1452"/>
			<point x="1358" y="1462" type="curve" smooth="yes"/>
			<point x="1358" y="1488"/>
			<point x="1338" y="1500"/>
			<point x="1322" y="1500" type="curve" smooth="yes"/>
			<point x="1302" y="1500"/>
			<point x="1296" y="1490"/>
			<point x="1280" y="1470" type="curve" smooth="yes"/>
			<point x="1152" y="1298"/>
			<point x="982" y="1282"/>
			<point x="906" y="1282" type="curve" smooth="yes"/>
			<point x="868" y="1282"/>
			<point x="696" y="1282"/>
			<point x="534" y="1438" type="curve" smooth="yes"/>
			<point x="492" y="1480"/>
			<point x="448" y="1500"/>
			<point x="396" y="1500" type="curve" smooth="yes"/>
			<point x="250" y="1500"/>
			<point x="108" y="1334"/>
			<point x="108" y="1098" type="curve" smooth="yes"/>
			<point x="108" y="854"/>
			<point x="252" y="694"/>
			<point x="396" y="694" type="curve" smooth="yes"/>
			<point x="540" y="694"/>
			<point x="652" y="874"/>
			<point x="652" y="1096" type="curve" smooth="yes"/>
			<point x="652" y="1154"/>
			<point x="648" y="1228"/>
			<point x="608" y="1328" type="curve"/>
			<point x="738" y="1252"/>
			<point x="850" y="1242"/>
			<point x="908" y="1242" type="curve" smooth="yes"/>
			<point x="962" y="1242"/>
			<point x="1072" y="1252"/>
			<point x="1178" y="1318" type="curve"/>
			<point x="1180" y="1316" type="line"/>
			<point x="288" y="-40" type="line" smooth="yes"/>
			<point x="276" y="-58"/>
			<point x="272" y="-64"/>
			<point x="272" y="-74" type="curve" smooth="yes"/>
			<point x="272" y="-96"/>
			<point x="290" y="-112"/>
			<point x="310" y="-112" type="curve" smooth="yes"/>
			<point x="328" y="-112"/>
			<point x="338" y="-98"/>
			<point x="348" y="-84" type="curve" smooth="yes"/>
		</contour>
		<contour>
			<point x="398" y="734" type="curve" smooth="yes"/>
			<point x="370" y="734"/>
			<point x="224" y="748"/>
			<point x="224" y="1096" type="curve" smooth="yes"/>
			<point x="224" y="1448"/>
			<point x="368" y="1460"/>
			<point x="398" y="1460" type="curve" smooth="yes"/>
			<point x="508" y="1460"/>
			<point x="608" y="1304"/>
			<point x="608" y="1098" type="curve" smooth="yes"/>
			<point x="608" y="886"/>
			<point x="506" y="734"/>
		</contour>
		<contour>
			<point x="1268" y="-72" type="curve" smooth="yes"/>
			<point x="1240" y="-72"/>
			<point x="1094" y="-58"/>
			<point x="1094" y="290" type="curve" smooth="yes"/>
			<point x="1094" y="642"/>
			<point x="1238" y="654"/>
			<point x="1268" y="654" type="curve" smooth="yes"/>
			<point x="1378" y="654"/>
			<point x="1478" y="498"/>
			<point x="1478" y="292" type="curve" smooth="yes"/>
			<point x="1478" y="80"/>
			<point x="1376" y="-72"/>
		</contour>
		<contour>
			<point x="1522" y="290" type="curve" smooth="yes"/>
			<point x="1522" y="520"/>
			<point x="1408" y="694"/>
			<point x="1266" y="694" type="curve" smooth="yes"/>
			<point x="1120" y="694"/>
			<point x="978" y="528"/>
			<point x="978" y="292" type="curve" smooth="yes"/>
			<point x="978" y="48"/>
			<point x="1122" y="-112"/>
			<point x="1266" y="-112" type="curve" smooth="yes"/>
			<point x="1410" y="-112"/>
			<point x="1522" y="68"/>
		</contour>
	</outline>
</glyph>
<glyph name="ampersand" format="2">
	<unicode hex="0026"/>
	<advance width="761"/>
	<outline>
		<contour>
			<point x="613" y="429" type="curve" smooth="yes"/>
			<point x="586" y="429"/>
			<point x="522" y="429"/>
			<point x="499" y="431" type="curve"/>
			<point x="499" y="402" type="line"/>
			<point x="541" y="402"/>
			<point x="569" y="386"/>
			<point x="569" y="358" type="curve" smooth="yes"/>
			<point x="569" y="354"/>
			<point x="569" y="348"/>
			<point x="565" y="340" type="curve" smooth="yes"/>
			<point x="517" y="250"/>
			<point x="476" y="187"/>
			<point x="422" y="116" type="curve"/>
			<point x="405" y="137"/>
			<point x="303" y="267"/>
			<point x="257" y="387" type="curve"/>
			<point x="283" y="415"/>
			<point x="375" y="514"/>
			<point x="375" y="589" type="curve" smooth="yes"/>
			<point x="375" y="599"/>
			<point x="374" y="715"/>
			<point x="292" y="715" type="curve" smooth="yes"/>
			<point x="231" y="715"/>
			<point x="161" y="661"/>
			<point x="161" y="556" type="curve" smooth="yes"/>
			<point x="161" y="481"/>
			<point x="179" y="413"/>
			<point x="200" y="353" type="curve"/>
			<point x="159.374" y="308.711"/>
			<point x="118.748" y="264.422"/>
			<point x="78" y="220" type="curve" smooth="yes"/>
			<point x="61" y="201"/>
			<point x="41" y="168"/>
			<point x="41" y="128" type="curve" smooth="yes"/>
			<point x="41" y="41"/>
			<point x="124" y="-21"/>
			<point x="218" y="-21" type="curve" smooth="yes"/>
			<point x="285" y="-21"/>
			<point x="345" y="8"/>
			<point x="396" y="56" type="curve"/>
			<point x="421" y="34"/>
			<point x="483" y="-21"/>
			<point x="568" y="-21" type="curve" smooth="yes"/>
			<point x="643" y="-21"/>
			<point x="705" y="36"/>
			<point x="707" y="121" type="curve"/>
			<point x="685" y="121" type="line"/>
			<point x="683" y="45"/>
			<point x="621" y="8"/>
			<point x="572" y="8" type="curve" smooth="yes"/>
			<point x="523" y="8"/>
			<point x="478" y="49"/>
			<point x="436" y="98" type="curve"/>
			<point x="483" y="156"/>
			<point x="517" y="215"/>
			<point x="569" y="303" type="curve" smooth="yes"/>
			<point x="604" y="364"/>
			<point x="625" y="401"/>
			<point x="712" y="402" type="curve"/>
			<point x="712" y="402"/>
			<point x="712" y="402"/>
			<point x="712" y="402" type="curve"/>
			<point x="712" y="431" type="line"/>
			<point x="679" y="430"/>
			<point x="646" y="429"/>
		</contour>
		<contour>
			<point x="209" y="333" type="curve"/>
			<point x="249" y="242"/>
			<point x="315" y="144"/>
			<point x="379" y="73" type="curve"/>
			<point x="317" y="15"/>
			<point x="256" y="8"/>
			<point x="227" y="8" type="curve" smooth="yes"/>
			<point x="145" y="8"/>
			<point x="117" y="98"/>
			<point x="117" y="159" type="curve" smooth="yes"/>
			<point x="117" y="221"/>
			<point x="138" y="263"/>
		</contour>
		<contour>
			<point x="250" y="409" type="curve"/>
			<point x="229" y="467"/>
			<point x="220" y="535"/>
			<point x="220" y="579" type="curve" smooth="yes"/>
			<point x="220" y="660"/>
			<point x="258" y="695"/>
			<point x="294" y="695" type="curve" smooth="yes"/>
			<point x="349" y="695"/>
			<point x="353" y="608"/>
			<point x="353" y="588" type="curve" smooth="yes"/>
			<point x="353" y="523"/>
			<point x="271" y="433"/>
		</contour>
	</outline>
</glyph>
<glyph name="parenleft" format="2">
	<unicode hex="0028"/>
	<advance width="760"/>
	<outline>
		<contour>
			<point x="196" y="498" type="curve" smooth="yes"/>
			<point x="196" y="320"/>
			<point x="224" y="82"/>
			<point x="328" y="-132" type="curve" smooth="yes"/>
			<point x="446" y="-372"/>
			<point x="610" y="-502"/>
			<point x="632" y="-502" type="curve" smooth="yes"/>
			<point x="640" y="-502"/>
			<point x="650" y="-498"/>
			<point x="650" y="-486" type="curve" smooth="yes"/>
			<point x="650" y="-480"/>
			<point x="650" y="-476"/>
			<point x="616" y="-442" type="curve" smooth="yes"/>
			<point x="416" y="-240"/>
			<point x="304" y="90"/>
			<point x="304" y="498" type="curve" smooth="yes"/>
			<point x="304" y="886"/>
			<point x="398" y="1220"/>
			<point x="630" y="1456" type="curve"/>
			<point x="650" y="1474"/>
			<point x="650" y="1478"/>
			<point x="650" y="1484" type="curve" smooth="yes"/>
			<point x="650" y="1496"/>
			<point x="640" y="1500"/>
			<point x="632" y="1500" type="curve" smooth="yes"/>
			<point x="606" y="1500"/>
			<point x="442" y="1356"/>
			<point x="344" y="1160" type="curve" smooth="yes"/>
			<point x="242" y="958"/>
			<point x="196" y="744"/>
		</contour>
	</outline>
</glyph>
<glyph name="parenright" format="2">
	<unicode hex="0029"/>
	<advance width="760"/>
	<outline>
		<contour>
			<point x="564" y="498" type="curve" smooth="yes"/>
			<point x="564" y="650"/>
			<point x="544" y="898"/>
			<point x="432" y="1130" type="curve" smooth="yes"/>
			<point x="314" y="1370"/>
			<point x="150" y="1500"/>
			<point x="128" y="1500" type="curve" smooth="yes"/>
			<point x="120" y="1500"/>
			<point x="110" y="1496"/>
			<point x="110" y="1484" type="curve" smooth="yes"/>
			<point x="110" y="1478"/>
			<point x="110" y="1474"/>
			<point x="144" y="1440" type="curve" smooth="yes"/>
			<point x="344" y="1238"/>
			<point x="456" y="908"/>
			<point x="456" y="500" type="curve" smooth="yes"/>
			<point x="456" y="112"/>
			<point x="362" y="-222"/>
			<point x="130" y="-458" type="curve"/>
			<point x="110" y="-476"/>
			<point x="110" y="-480"/>
			<point x="110" y="-486" type="curve" smooth="yes"/>
			<point x="110" y="-498"/>
			<point x="120" y="-502"/>
			<point x="128" y="-502" type="curve" smooth="yes"/>
			<point x="154" y="-502"/>
			<point x="318" y="-358"/>
			<point x="416" y="-162" type="curve" smooth="yes"/>
			<point x="518" y="42"/>
			<point x="564" y="258"/>
		</contour>
	</outline>
</glyph>
<glyph name="asterisk" format="2">
  <advance width="489"/>
  <unicode hex="002A"/>
  <outline>
    <contour>
      <point x="245" y="319" type="curve" smooth="yes"/>
      <point x="269" y="319"/>
      <point x="270" y="341"/>
      <point x="269" y="354" type="curve" smooth="yes"/>
      <point x="264.338" y="407.946"/>
      <point x="259.676" y="461.892"/>
      <point x="255" y="516" type="curve"/>
      <point x="379" y="424" type="line" smooth="yes"/>
      <point x="391" y="415"/>
      <point x="392" y="414"/>
      <point x="399" y="414" type="curve" smooth="yes"/>
      <point x="413" y="414"/>
      <point x="425" y="425"/>
      <point x="425" y="441" type="curve" smooth="yes"/>
      <point x="425" y="456"/>
      <point x="415" y="460"/>
      <point x="406" y="465" type="curve"/>
      <point x="264" y="534" type="line"/>
      <point x="404" y="603" type="line" smooth="yes"/>
      <point x="416" y="609"/>
      <point x="425" y="613"/>
      <point x="425" y="628" type="curve" smooth="yes"/>
      <point x="425" y="644"/>
      <point x="413" y="655"/>
      <point x="399" y="655" type="curve" smooth="yes"/>
      <point x="396" y="655"/>
      <point x="391" y="655"/>
      <point x="379" y="646" type="curve" smooth="yes"/>
      <point x="255" y="553" type="line"/>
      <point x="259.662" y="606.946"/>
      <point x="264.324" y="660.892"/>
      <point x="269" y="715" type="curve" smooth="yes"/>
      <point x="270" y="728"/>
      <point x="269" y="750"/>
      <point x="245" y="750" type="curve" smooth="yes"/>
      <point x="230" y="750"/>
      <point x="218" y="738"/>
      <point x="219" y="725" type="curve" smooth="yes"/>
      <point x="223.995" y="667.724"/>
      <point x="228.99" y="610.448"/>
      <point x="234" y="553" type="curve"/>
      <point x="110" y="645" type="line" smooth="yes"/>
      <point x="98" y="654"/>
      <point x="97" y="655"/>
      <point x="90" y="655" type="curve" smooth="yes"/>
      <point x="76" y="655"/>
      <point x="64" y="644"/>
      <point x="64" y="628" type="curve" smooth="yes"/>
      <point x="64" y="613"/>
      <point x="74" y="609"/>
      <point x="83" y="604" type="curve"/>
      <point x="225" y="535" type="line"/>
      <point x="85" y="466" type="line" smooth="yes"/>
      <point x="73" y="460"/>
      <point x="64" y="456"/>
      <point x="64" y="441" type="curve" smooth="yes"/>
      <point x="64" y="425"/>
      <point x="76" y="414"/>
      <point x="90" y="414" type="curve" smooth="yes"/>
      <point x="93" y="414"/>
      <point x="98" y="414"/>
      <point x="110" y="423" type="curve" smooth="yes"/>
      <point x="234" y="516" type="line"/>
      <point x="229.338" y="459.057"/>
      <point x="224.676" y="402.114"/>
      <point x="220" y="345" type="curve"/>
      <point x="217" y="331"/>
      <point x="230" y="319"/>
    </contour>
  </outline>
</glyph>
<glyph name="comma" format="2">
  <advance width="271"/>
  <unicode hex="002C"/>
  <outline>
    <contour>
      <point x="87" y="49" type="curve" smooth="yes"/>
      <point x="87" y="22"/>
      <point x="106" y="0"/>
      <point x="136" y="0" type="curve" smooth="yes"/>
      <point x="159" y="0"/>
      <point x="169" y="15"/>
      <point x="173" y="15" type="curve"/>
      <point x="181" y="-36"/>
      <point x="162" y="-116"/>
      <point x="105" y="-174" type="curve"/>
      <point x="101" y="-177"/>
      <point x="100" y="-179"/>
      <point x="100" y="-183" type="curve" smooth="yes"/>
      <point x="100" y="-188"/>
      <point x="105" y="-193"/>
      <point x="110" y="-193" type="curve" smooth="yes"/>
      <point x="119" y="-193"/>
      <point x="195" y="-119"/>
      <point x="195" y="-4" type="curve" smooth="yes"/>
      <point x="195" y="58"/>
      <point x="174" y="97"/>
      <point x="135" y="97" type="curve" smooth="yes"/>
      <point x="106" y="97"/>
      <point x="87" y="75"/>
    </contour>
  </outline>
</glyph>
<glyph name="hyphen" format="2">
	<unicode hex="002D"/>
	<advance width="326"/>
	<outline>
		<contour>
			<point x="271" y="189" type="line"/>
			<point x="271" y="243" type="line"/>
			<point x="11" y="243" type="line"/>
			<point x="11" y="189" type="line"/>
		</contour>
	</outline>
</glyph>
<glyph name="period" format="2">
	<unicode hex="002E"/>
	<advance width="271"/>
	<outline>
		<contour>
			<point x="184" y="49" type="curve" smooth="yes"/>
			<point x="184" y="76"/>
			<point x="161" y="97"/>
			<point x="136" y="97" type="curve" smooth="yes"/>
			<point x="107" y="97"/>
			<point x="87" y="74"/>
			<point x="87" y="49" type="curve" smooth="yes"/>
			<point x="87" y="19"/>
			<point x="112" y="0"/>
			<point x="135" y="0" type="curve" smooth="yes"/>
			<point x="162" y="0"/>
			<point x="184" y="21"/>
		</contour>
	</outline>
</glyph>
<glyph name="zero" format="2">
	<unicode hex="0030"/>
	<advance width="978"/>
	<outline>
		<contour>
			<point x="488" y="-42" type="curve" smooth="yes"/>
			<point x="662" y="-42"/>
			<point x="762" y="62"/>
			<point x="820" y="178" type="curve" smooth="yes"/>
			<point x="892" y="328"/>
			<point x="896" y="524"/>
			<point x="896" y="640" type="curve" smooth="yes"/>
			<point x="896" y="806"/>
			<point x="886" y="968"/>
			<point x="814" y="1120" type="curve" smooth="yes"/>
			<point x="732" y="1286"/>
			<point x="588" y="1330"/>
			<point x="490" y="1330" type="curve" smooth="yes"/>
			<point x="374" y="1330"/>
			<point x="232" y="1272"/>
			<point x="158" y="1106" type="curve" smooth="yes"/>
			<point x="102" y="980"/>
			<point x="82" y="856"/>
			<point x="82" y="640" type="curve" smooth="yes"/>
			<point x="82" y="446"/>
			<point x="96" y="300"/>
			<point x="168" y="158" type="curve" smooth="yes"/>
			<point x="246" y="6"/>
			<point x="384" y="-42"/>
		</contour>
		<contour>
			<point x="488" y="-2" type="curve" smooth="yes"/>
			<point x="424" y="-2"/>
			<point x="294" y="34"/>
			<point x="256" y="252" type="curve" smooth="yes"/>
			<point x="234" y="372"/>
			<point x="234" y="524"/>
			<point x="234" y="664" type="curve" smooth="yes"/>
			<point x="234" y="828"/>
			<point x="234" y="976"/>
			<point x="266" y="1094" type="curve" smooth="yes"/>
			<point x="300" y="1228"/>
			<point x="402" y="1290"/>
			<point x="488" y="1290" type="curve" smooth="yes"/>
			<point x="564" y="1290"/>
			<point x="680" y="1244"/>
			<point x="718" y="1072" type="curve" smooth="yes"/>
			<point x="744" y="958"/>
			<point x="744" y="800"/>
			<point x="744" y="664" type="curve" smooth="yes"/>
			<point x="744" y="530"/>
			<point x="744" y="378"/>
			<point x="722" y="256" type="curve" smooth="yes"/>
			<point x="684" y="36"/>
			<point x="558" y="-2"/>
		</contour>
	</outline>
</glyph>
<glyph name="one" format="2">
	<unicode hex="0031"/>
	<advance width="978"/>
	<outline>
		<contour>
			<point x="438" y="1196" type="curve"/>
			<point x="438" y="154" type="line" smooth="yes"/>
			<point x="438" y="82"/>
			<point x="432" y="58"/>
			<point x="256" y="58" type="curve" smooth="yes"/>
			<point x="194" y="58" type="line"/>
			<point x="194" y="0" type="line"/>
			<point x="248" y="4"/>
			<point x="442" y="4"/>
			<point x="508" y="4" type="curve" smooth="yes"/>
			<point x="574" y="4"/>
			<point x="766" y="4"/>
			<point x="820" y="0" type="curve"/>
			<point x="820" y="58" type="line"/>
			<point x="758" y="58" type="line" smooth="yes"/>
			<point x="582" y="58"/>
			<point x="576" y="82"/>
			<point x="576" y="154" type="curve" smooth="yes"/>
			<point x="576" y="1282" type="line" smooth="yes"/>
			<point x="576" y="1328"/>
			<point x="576" y="1330"/>
			<point x="536" y="1330" type="curve"/>
			<point x="536" y="1330"/>
			<point x="536" y="1330"/>
			<point x="536" y="1330" type="curve"/>
			<point x="488" y="1276"/>
			<point x="388" y="1202"/>
			<point x="182" y="1202" type="curve" smooth="yes"/>
			<point x="182" y="1202"/>
			<point x="182" y="1202"/>
			<point x="182" y="1202" type="curve"/>
			<point x="182" y="1183"/>
			<point x="182" y="1163"/>
			<point x="182" y="1144" type="curve"/>
			<point x="182" y="1144" type="line"/>
			<point x="228" y="1144"/>
			<point x="328" y="1144"/>
		</contour>
	</outline>
</glyph>
<glyph name="two" format="2">
	<unicode hex="0032"/>
	<advance width="489"/>
	<outline>
		<contour>
			<point x="357" y="473" type="curve" smooth="yes"/>
			<point x="357" y="388"/>
			<point x="308" y="314"/>
			<point x="251" y="250" type="curve" smooth="yes"/>
			<point x="49" y="24" type="line"/>
			<point x="49" y="16"/>
			<point x="49" y="8"/>
			<point x="49" y="0" type="curve"/>
			<point x="49" y="0" type="line"/>
			<point x="414" y="0" type="line"/>
			<point x="440" y="168" type="line"/>
			<point x="418" y="168" type="line"/>
			<point x="415" y="151"/>
			<point x="407" y="96"/>
			<point x="397" y="80" type="curve"/>
			<point x="390" y="71"/>
			<point x="333" y="71"/>
			<point x="303" y="71" type="curve" smooth="yes"/>
			<point x="118" y="71" type="line"/>
			<point x="182.602" y="132.605"/>
			<point x="247.204" y="194.21"/>
			<point x="312" y="256" type="curve" smooth="yes"/>
			<point x="382" y="322"/>
			<point x="440" y="385"/>
			<point x="440" y="473" type="curve" smooth="yes"/>
			<point x="440" y="588"/>
			<point x="349" y="665"/>
			<point x="233" y="665" type="curve" smooth="yes"/>
			<point x="117" y="665"/>
			<point x="49" y="566"/>
			<point x="49" y="480" type="curve" smooth="yes"/>
			<point x="49" y="429"/>
			<point x="93" y="429"/>
			<point x="96" y="429" type="curve" smooth="yes"/>
			<point x="117" y="429"/>
			<point x="143" y="444"/>
			<point x="143" y="476" type="curve" smooth="yes"/>
			<point x="143" y="512"/>
			<point x="114" y="528"/>
			<point x="82" y="522" type="curve"/>
			<point x="101" y="590"/>
			<point x="155" y="636"/>
			<point x="220" y="636" type="curve" smooth="yes"/>
			<point x="305" y="636"/>
			<point x="357" y="565"/>
		</contour>
	</outline>
</glyph>
<glyph name="four" format="2">
	<unicode hex="0034"/>
	<advance width="978"/>
	<outline>
		<contour>
			<point x="580" y="334" type="line"/>
			<point x="580" y="152" type="line" smooth="yes"/>
			<point x="580" y="78"/>
			<point x="576" y="58"/>
			<point x="430" y="58" type="curve" smooth="yes"/>
			<point x="390" y="58" type="line"/>
			<point x="390" y="0" type="line"/>
			<point x="436" y="4"/>
			<point x="594" y="4"/>
			<point x="650" y="4" type="curve" smooth="yes"/>
			<point x="706" y="4"/>
			<point x="866" y="4"/>
			<point x="912" y="0" type="curve"/>
			<point x="912" y="58" type="line"/>
			<point x="872" y="58" type="line" smooth="yes"/>
			<point x="728" y="58"/>
			<point x="722" y="78"/>
			<point x="722" y="152" type="curve" smooth="yes"/>
			<point x="722" y="334" type="line"/>
			<point x="924" y="334" type="line"/>
			<point x="924" y="392" type="line"/>
			<point x="722" y="392" type="line"/>
			<point x="722" y="1302" type="line" smooth="yes"/>
			<point x="722" y="1340"/>
			<point x="722" y="1350"/>
			<point x="694" y="1350" type="curve" smooth="yes"/>
			<point x="678" y="1350"/>
			<point x="672" y="1350"/>
			<point x="656" y="1326" type="curve" smooth="yes"/>
			<point x="54" y="392" type="line"/>
			<point x="54" y="334" type="line"/>
		</contour>
		<contour>
			<point x="104" y="392" type="line"/>
			<point x="590" y="1146" type="line"/>
			<point x="590" y="392" type="line"/>
		</contour>
	</outline>
</glyph>
<glyph name="five" format="2">
	<unicode hex="0035"/>
	<advance width="489"/>
	<outline>
		<contour>
			<point x="228" y="-21" type="curve" smooth="yes"/>
			<point x="341" y="-21"/>
			<point x="440" y="74"/>
			<point x="440" y="201" type="curve" smooth="yes"/>
			<point x="440" y="320"/>
			<point x="360" y="419"/>
			<point x="255" y="419" type="curve" smooth="yes"/>
			<point x="198" y="419"/>
			<point x="154" y="394"/>
			<point x="128" y="366" type="curve"/>
			<point x="128" y="573" type="line"/>
			<point x="171" y="559"/>
			<point x="206" y="558"/>
			<point x="217" y="558" type="curve" smooth="yes"/>
			<point x="262.2" y="558"/>
			<point x="300.84" y="571.28"/>
			<point x="330.936" y="588.112" type="curve" smooth="yes"/>
			<point x="376.08" y="613.36"/>
			<point x="402" y="646.6"/>
			<point x="402" y="655" type="curve" smooth="yes"/>
			<point x="402" y="659"/>
			<point x="400" y="664"/>
			<point x="394" y="664" type="curve" smooth="yes"/>
			<point x="392" y="664"/>
			<point x="390" y="664"/>
			<point x="381" y="660" type="curve" smooth="yes"/>
			<point x="325" y="636"/>
			<point x="277" y="633"/>
			<point x="251" y="633" type="curve" smooth="yes"/>
			<point x="185" y="633"/>
			<point x="138" y="653"/>
			<point x="119" y="661" type="curve" smooth="yes"/>
			<point x="112" y="664"/>
			<point x="110" y="664"/>
			<point x="109" y="664" type="curve" smooth="yes"/>
			<point x="101" y="664"/>
			<point x="101" y="658"/>
			<point x="101" y="642" type="curve" smooth="yes"/>
			<point x="101" y="345" type="line" smooth="yes"/>
			<point x="101" y="327"/>
			<point x="101" y="321"/>
			<point x="113" y="321" type="curve" smooth="yes"/>
			<point x="118" y="321"/>
			<point x="119" y="322"/>
			<point x="129" y="334" type="curve"/>
			<point x="157" y="375"/>
			<point x="204" y="399"/>
			<point x="254" y="399" type="curve" smooth="yes"/>
			<point x="307" y="399"/>
			<point x="333" y="350"/>
			<point x="341" y="333" type="curve" smooth="yes"/>
			<point x="358" y="294"/>
			<point x="359" y="245"/>
			<point x="359" y="207" type="curve" smooth="yes"/>
			<point x="359" y="169"/>
			<point x="359" y="112"/>
			<point x="331" y="67" type="curve" smooth="yes"/>
			<point x="309" y="31"/>
			<point x="270" y="6"/>
			<point x="226" y="6" type="curve" smooth="yes"/>
			<point x="160" y="6"/>
			<point x="95" y="51"/>
			<point x="77" y="124" type="curve"/>
			<point x="99" y="115"/>
			<point x="137" y="125"/>
			<point x="137" y="165" type="curve" smooth="yes"/>
			<point x="137" y="193"/>
			<point x="118" y="209"/>
			<point x="93" y="209" type="curve" smooth="yes"/>
			<point x="75" y="209"/>
			<point x="49" y="200"/>
			<point x="49" y="161" type="curve" smooth="yes"/>
			<point x="49" y="76"/>
			<point x="117" y="-21"/>
		</contour>
	</outline>
</glyph>
<glyph name="six" format="2">
	<unicode hex="0036"/>
	<advance width="978"/>
	<outline>
		<contour>
			<point x="82" y="632" type="curve"/>
			<point x="82" y="356"/>
			<point x="143" y="187"/>
			<point x="224" y="87" type="curve" smooth="yes"/>
			<point x="305" y="-11"/>
			<point x="407" y="-42"/>
			<point x="492" y="-42" type="curve"/>
			<point x="594" y="-42"/>
			<point x="690" y="0"/>
			<point x="762" y="71" type="curve" smooth="yes"/>
			<point x="844" y="152"/>
			<point x="896" y="270"/>
			<point x="896" y="408" type="curve" smooth="yes"/>
			<point x="896" y="554"/>
			<point x="840" y="674"/>
			<point x="756" y="752" type="curve" smooth="yes"/>
			<point x="687" y="816"/>
			<point x="600" y="852"/>
			<point x="510" y="852" type="curve" smooth="yes"/>
			<point x="332" y="852"/>
			<point x="266" y="698"/>
			<point x="246" y="642" type="curve"/>
			<point x="242" y="968"/>
			<point x="315" y="1113"/>
			<point x="396" y="1193" type="curve" smooth="yes"/>
			<point x="468" y="1264"/>
			<point x="549" y="1282"/>
			<point x="600" y="1282" type="curve" smooth="yes"/>
			<point x="672" y="1282"/>
			<point x="744" y="1260"/>
			<point x="782" y="1200" type="curve"/>
			<point x="758" y="1200"/>
			<point x="682" y="1200"/>
			<point x="682" y="1118" type="curve" smooth="yes"/>
			<point x="682" y="1074"/>
			<point x="712" y="1036"/>
			<point x="764" y="1036" type="curve" smooth="yes"/>
			<point x="814" y="1036"/>
			<point x="848" y="1066"/>
			<point x="848" y="1124" type="curve" smooth="yes"/>
			<point x="848" y="1228"/>
			<point x="772" y="1330"/>
			<point x="598" y="1330" type="curve" smooth="yes"/>
			<point x="346" y="1330"/>
			<point x="82" y="1072"/>
		</contour>
		<contour>
			<point x="492" y="12" type="curve" smooth="yes"/>
			<point x="366" y="12"/>
			<point x="304" y="124"/>
			<point x="288" y="166" type="curve" smooth="yes"/>
			<point x="268" y="218"/>
			<point x="250" y="316"/>
			<point x="250" y="456" type="curve" smooth="yes"/>
			<point x="250" y="614"/>
			<point x="322" y="812"/>
			<point x="502" y="812" type="curve" smooth="yes"/>
			<point x="612" y="812"/>
			<point x="670" y="738"/>
			<point x="700" y="670" type="curve" smooth="yes"/>
			<point x="732" y="596"/>
			<point x="732" y="496"/>
			<point x="732" y="410" type="curve" smooth="yes"/>
			<point x="732" y="308"/>
			<point x="732" y="218"/>
			<point x="694" y="142" type="curve" smooth="yes"/>
			<point x="644" y="46"/>
			<point x="572" y="12"/>
		</contour>
	</outline>
</glyph>
<glyph name="seven" format="2">
	<unicode hex="0037"/>
	<advance width="978"/>
	<outline>
		<contour>
			<point x="434" y="-42" type="curve" smooth="yes"/>
			<point x="518" y="-42"/>
			<point x="518" y="36"/>
			<point x="518" y="62" type="curve" smooth="yes"/>
			<point x="518" y="95"/>
			<point x="518" y="129"/>
			<point x="518" y="162" type="curve" smooth="yes"/>
			<point x="518" y="460"/>
			<point x="566" y="692"/>
			<point x="660" y="826" type="curve" smooth="yes"/>
			<point x="757" y="965"/>
			<point x="853" y="1103"/>
			<point x="950" y="1242" type="curve"/>
			<point x="950" y="1258"/>
			<point x="950" y="1272"/>
			<point x="950" y="1288" type="curve"/>
			<point x="950" y="1288" type="line"/>
			<point x="468" y="1288" type="line"/>
			<point x="468" y="1288"/>
			<point x="468" y="1288"/>
			<point x="468" y="1288" type="curve"/>
			<point x="226" y="1288"/>
			<point x="222" y="1314"/>
			<point x="214" y="1352" type="curve"/>
			<point x="170" y="1352" type="line"/>
			<point x="108" y="952" type="line"/>
			<point x="152" y="952" type="line"/>
			<point x="158" y="988"/>
			<point x="176" y="1112"/>
			<point x="202" y="1134" type="curve"/>
			<point x="218" y="1146"/>
			<point x="368" y="1146"/>
			<point x="396" y="1146" type="curve" smooth="yes"/>
			<point x="820" y="1146" type="line"/>
			<point x="749" y="1045"/>
			<point x="679" y="944"/>
			<point x="608" y="842" type="curve" smooth="yes"/>
			<point x="554" y="764"/>
			<point x="352" y="436"/>
			<point x="352" y="60" type="curve" smooth="yes"/>
			<point x="352" y="38"/>
			<point x="352" y="-42"/>
		</contour>
	</outline>
</glyph>
<glyph name="eight" format="2">
	<unicode hex="0038"/>
	<advance width="978"/>
	<outline>
		<contour>
			<point x="488" y="-42" type="curve" smooth="yes"/>
			<point x="710" y="-42"/>
			<point x="896" y="122"/>
			<point x="896" y="332" type="curve" smooth="yes"/>
			<point x="896" y="536"/>
			<point x="752" y="626"/>
			<point x="596" y="722" type="curve"/>
			<point x="696" y="776"/>
			<point x="842" y="868"/>
			<point x="842" y="1036" type="curve" smooth="yes"/>
			<point x="842" y="1210"/>
			<point x="674" y="1330"/>
			<point x="490" y="1330" type="curve" smooth="yes"/>
			<point x="292" y="1330"/>
			<point x="136" y="1184"/>
			<point x="136" y="1002" type="curve" smooth="yes"/>
			<point x="136" y="934"/>
			<point x="156" y="866"/>
			<point x="212" y="798" type="curve" smooth="yes"/>
			<point x="234" y="772"/>
			<point x="236" y="770"/>
			<point x="376" y="672" type="curve"/>
			<point x="182" y="582"/>
			<point x="82" y="448"/>
			<point x="82" y="302" type="curve" smooth="yes"/>
			<point x="82" y="90"/>
			<point x="284" y="-42"/>
		</contour>
		<contour>
			<point x="490" y="12" type="curve" smooth="yes"/>
			<point x="320" y="12"/>
			<point x="174" y="136"/>
			<point x="174" y="302" type="curve" smooth="yes"/>
			<point x="174" y="458"/>
			<point x="288" y="584"/>
			<point x="418" y="644" type="curve"/>
			<point x="499" y="591"/>
			<point x="579" y="539"/>
			<point x="660" y="486" type="curve" smooth="yes"/>
			<point x="712" y="452"/>
			<point x="804" y="390"/>
			<point x="804" y="268" type="curve" smooth="yes"/>
			<point x="804" y="116"/>
			<point x="650" y="12"/>
		</contour>
		<contour>
			<point x="556" y="750" type="curve"/>
			<point x="479" y="801"/>
			<point x="401" y="851"/>
			<point x="324" y="902" type="curve" smooth="yes"/>
			<point x="298" y="920"/>
			<point x="218" y="972"/>
			<point x="218" y="1070" type="curve" smooth="yes"/>
			<point x="218" y="1200"/>
			<point x="354" y="1282"/>
			<point x="488" y="1282" type="curve" smooth="yes"/>
			<point x="632" y="1282"/>
			<point x="760" y="1178"/>
			<point x="760" y="1034" type="curve" smooth="yes"/>
			<point x="760" y="912"/>
			<point x="672" y="814"/>
		</contour>
	</outline>
</glyph>
<glyph name="nine" format="2">
	<unicode hex="0039"/>
	<advance width="978"/>
	<outline>
		<contour>
			<point x="404" y="-42" type="curve" smooth="yes"/>
			<point x="654" y="-42"/>
			<point x="896" y="224"/>
			<point x="896" y="658" type="curve" smooth="yes"/>
			<point x="896" y="1196"/>
			<point x="672" y="1330"/>
			<point x="496" y="1330" type="curve" smooth="yes"/>
			<point x="389" y="1330"/>
			<point x="288" y="1286"/>
			<point x="212" y="1211" type="curve" smooth="yes"/>
			<point x="133" y="1131"/>
			<point x="82" y="1017"/>
			<point x="82" y="882" type="curve" smooth="yes"/>
			<point x="82" y="742"/>
			<point x="134" y="626"/>
			<point x="212" y="548" type="curve" smooth="yes"/>
			<point x="283" y="478"/>
			<point x="374" y="438"/>
			<point x="468" y="438" type="curve" smooth="yes"/>
			<point x="618" y="438"/>
			<point x="692" y="546"/>
			<point x="732" y="648" type="curve"/>
			<point x="738" y="318"/>
			<point x="667" y="172"/>
			<point x="588" y="93" type="curve" smooth="yes"/>
			<point x="526" y="31"/>
			<point x="455" y="12"/>
			<point x="402" y="12" type="curve" smooth="yes"/>
			<point x="354" y="12"/>
			<point x="248" y="18"/>
			<point x="198" y="88" type="curve"/>
			<point x="226" y="82"/>
			<point x="296" y="96"/>
			<point x="296" y="170" type="curve" smooth="yes"/>
			<point x="296" y="214"/>
			<point x="266" y="252"/>
			<point x="214" y="252" type="curve" smooth="yes"/>
			<point x="162" y="252"/>
			<point x="130" y="218"/>
			<point x="130" y="166" type="curve" smooth="yes"/>
			<point x="130" y="42"/>
			<point x="230" y="-42"/>
		</contour>
		<contour>
			<point x="476" y="478" type="curve" smooth="yes"/>
			<point x="350" y="478"/>
			<point x="296" y="580"/>
			<point x="278" y="618" type="curve" smooth="yes"/>
			<point x="246" y="694"/>
			<point x="246" y="790"/>
			<point x="246" y="880" type="curve" smooth="yes"/>
			<point x="246" y="992"/>
			<point x="246" y="1088"/>
			<point x="298" y="1170" type="curve" smooth="yes"/>
			<point x="334" y="1224"/>
			<point x="388" y="1282"/>
			<point x="496" y="1282" type="curve" smooth="yes"/>
			<point x="610" y="1282"/>
			<point x="668" y="1182"/>
			<point x="688" y="1136" type="curve" smooth="yes"/>
			<point x="728" y="1038"/>
			<point x="728" y="868"/>
			<point x="728" y="838" type="curve" smooth="yes"/>
			<point x="728" y="670"/>
			<point x="652" y="478"/>
		</contour>
	</outline>
</glyph>
<glyph name="colon" format="2">
	<unicode hex="003A"/>
	<advance width="542"/>
	<outline>
		<contour>
			<point x="368" y="766" type="curve" smooth="yes"/>
			<point x="368" y="820"/>
			<point x="322" y="862"/>
			<point x="272" y="862" type="curve" smooth="yes"/>
			<point x="214" y="862"/>
			<point x="174" y="816"/>
			<point x="174" y="766" type="curve" smooth="yes"/>
			<point x="174" y="706"/>
			<point x="224" y="668"/>
			<point x="270" y="668" type="curve" smooth="yes"/>
			<point x="324" y="668"/>
			<point x="368" y="710"/>
		</contour>
		<contour>
			<point x="368" y="98" type="curve" smooth="yes"/>
			<point x="368" y="152"/>
			<point x="322" y="194"/>
			<point x="272" y="194" type="curve" smooth="yes"/>
			<point x="214" y="194"/>
			<point x="174" y="148"/>
			<point x="174" y="98" type="curve" smooth="yes"/>
			<point x="174" y="38"/>
			<point x="224" y="0"/>
			<point x="270" y="0" type="curve" smooth="yes"/>
			<point x="324" y="0"/>
			<point x="368" y="42"/>
		</contour>
	</outline>
</glyph>
<glyph name="semicolon" format="2">
	<unicode hex="003B"/>
	<advance width="542"/>
	<outline>
		<contour>
			<point x="270" y="668" type="curve" smooth="yes"/>
			<point x="324" y="668"/>
			<point x="368" y="710"/>
			<point x="368" y="766" type="curve" smooth="yes"/>
			<point x="368" y="820"/>
			<point x="322" y="862"/>
			<point x="272" y="862" type="curve" smooth="yes"/>
			<point x="214" y="862"/>
			<point x="174" y="816"/>
			<point x="174" y="766" type="curve" smooth="yes"/>
			<point x="174" y="706"/>
			<point x="224" y="668"/>
		</contour>
		<contour>
			<point x="220" y="-386" type="curve" smooth="yes"/>
			<point x="234" y="-386"/>
			<point x="374" y="-238"/>
			<point x="374" y="-4" type="curve" smooth="yes"/>
			<point x="374" y="70"/>
			<point x="368" y="194"/>
			<point x="270" y="194" type="curve" smooth="yes"/>
			<point x="212" y="194"/>
			<point x="174" y="150"/>
			<point x="174" y="98" type="curve" smooth="yes"/>
			<point x="174" y="44"/>
			<point x="212" y="0"/>
			<point x="272" y="0" type="curve" smooth="yes"/>
			<point x="310" y="0"/>
			<point x="324" y="12"/>
			<point x="334" y="20" type="curve"/>
			<point x="334" y="-50"/>
			<point x="334" y="-192"/>
			<point x="212" y="-342" type="curve" smooth="yes"/>
			<point x="200" y="-358"/>
			<point x="200" y="-362"/>
			<point x="200" y="-366" type="curve" smooth="yes"/>
			<point x="200" y="-376"/>
			<point x="210" y="-386"/>
		</contour>
	</outline>
</glyph>
<glyph name="equal" format="2">
	<unicode hex="003D"/>
	<advance width="1522"/>
	<outline>
		<contour>
			<point x="1350" y="648" type="line" smooth="yes"/>
			<point x="1378" y="648"/>
			<point x="1414" y="648"/>
			<point x="1414" y="684" type="curve" smooth="yes"/>
			<point x="1414" y="722"/>
			<point x="1380" y="722"/>
			<point x="1350" y="722" type="curve" smooth="yes"/>
			<point x="172" y="722" type="line" smooth="yes"/>
			<point x="144" y="722"/>
			<point x="108" y="722"/>
			<point x="108" y="686" type="curve" smooth="yes"/>
			<point x="108" y="648"/>
			<point x="142" y="648"/>
			<point x="172" y="648" type="curve" smooth="yes"/>
		</contour>
		<contour>
			<point x="1350" y="276" type="line" smooth="yes"/>
			<point x="1378" y="276"/>
			<point x="1414" y="276"/>
			<point x="1414" y="312" type="curve" smooth="yes"/>
			<point x="1414" y="350"/>
			<point x="1380" y="350"/>
			<point x="1350" y="350" type="curve" smooth="yes"/>
			<point x="172" y="350" type="line" smooth="yes"/>
			<point x="144" y="350"/>
			<point x="108" y="350"/>
			<point x="108" y="314" type="curve" smooth="yes"/>
			<point x="108" y="276"/>
			<point x="142" y="276"/>
			<point x="172" y="276" type="curve" smooth="yes"/>
		</contour>
	</outline>
</glyph>
<glyph name="question" format="2">
	<unicode hex="003F"/>
	<advance width="924"/>
	<outline>
		<contour>
			<point x="814" y="1136" type="curve" smooth="yes"/>
			<point x="814" y="1258"/>
			<point x="730" y="1408"/>
			<point x="442" y="1408" type="curve" smooth="yes"/>
			<point x="226" y="1408"/>
			<point x="108" y="1268"/>
			<point x="108" y="1140" type="curve" smooth="yes"/>
			<point x="108" y="1068"/>
			<point x="162" y="1052"/>
			<point x="192" y="1052" type="curve" smooth="yes"/>
			<point x="226" y="1052"/>
			<point x="274" y="1076"/>
			<point x="274" y="1136" type="curve" smooth="yes"/>
			<point x="274" y="1194"/>
			<point x="224" y="1226"/>
			<point x="170" y="1216" type="curve"/>
			<point x="214" y="1320"/>
			<point x="330" y="1368"/>
			<point x="436" y="1368" type="curve" smooth="yes"/>
			<point x="662" y="1368"/>
			<point x="662" y="1222"/>
			<point x="662" y="1146" type="curve" smooth="yes"/>
			<point x="662" y="1028"/>
			<point x="626" y="990"/>
			<point x="592" y="954" type="curve" smooth="yes"/>
			<point x="456" y="808"/>
			<point x="412" y="622"/>
			<point x="412" y="500" type="curve" smooth="yes"/>
			<point x="412" y="468"/>
			<point x="412" y="436"/>
			<point x="412" y="404" type="curve" smooth="yes"/>
			<point x="412" y="368"/>
			<point x="412" y="360"/>
			<point x="434" y="360" type="curve" smooth="yes"/>
			<point x="456" y="360"/>
			<point x="456" y="374"/>
			<point x="456" y="410" type="curve" smooth="yes"/>
			<point x="456" y="484" type="line" smooth="yes"/>
			<point x="456" y="602"/>
			<point x="504" y="778"/>
			<point x="706" y="928" type="curve" smooth="yes"/>
			<point x="762" y="970"/>
			<point x="814" y="1032"/>
		</contour>
		<contour>
			<point x="530" y="98" type="curve" smooth="yes"/>
			<point x="530" y="150"/>
			<point x="486" y="194"/>
			<point x="434" y="194" type="curve" smooth="yes"/>
			<point x="374" y="194"/>
			<point x="336" y="146"/>
			<point x="336" y="98" type="curve" smooth="yes"/>
			<point x="336" y="38"/>
			<point x="384" y="0"/>
			<point x="432" y="0" type="curve" smooth="yes"/>
			<point x="488" y="0"/>
			<point x="530" y="44"/>
		</contour>
	</outline>
</glyph>
<glyph name="at" format="2">
	<unicode hex="0040"/>
	<advance width="1522"/>
	<outline>
		<contour>
			<point x="772" y="-20" type="curve" smooth="yes"/>
			<point x="836" y="-20"/>
			<point x="960" y="-16"/>
			<point x="1118" y="22" type="curve" smooth="yes"/>
			<point x="1169" y="34"/>
			<point x="1308" y="76"/>
			<point x="1375" y="109" type="curve" smooth="yes"/>
			<point x="1398" y="120"/>
			<point x="1412" y="130"/>
			<point x="1412" y="138" type="curve" smooth="yes"/>
			<point x="1412" y="154"/>
			<point x="1400" y="154"/>
			<point x="1368" y="154" type="curve" smooth="yes"/>
			<point x="1356" y="154" type="line" smooth="yes"/>
			<point x="1326" y="154"/>
			<point x="1322" y="154"/>
			<point x="1292" y="138" type="curve" smooth="yes"/>
			<point x="1112" y="52"/>
			<point x="914" y="20"/>
			<point x="770" y="20" type="curve" smooth="yes"/>
			<point x="410" y="20"/>
			<point x="152" y="336"/>
			<point x="152" y="694" type="curve" smooth="yes"/>
			<point x="152" y="1076"/>
			<point x="434" y="1368"/>
			<point x="760" y="1368" type="curve" smooth="yes"/>
			<point x="1026" y="1368"/>
			<point x="1370" y="1154"/>
			<point x="1370" y="662" type="curve" smooth="yes"/>
			<point x="1370" y="484"/>
			<point x="1358" y="298"/>
			<point x="1224" y="298" type="curve" smooth="yes"/>
			<point x="1162" y="298"/>
			<point x="1152" y="372"/>
			<point x="1152" y="432" type="curve" smooth="yes"/>
			<point x="1152" y="914" type="line" smooth="yes"/>
			<point x="1152" y="958"/>
			<point x="1150" y="960"/>
			<point x="1104" y="960" type="curve"/>
			<point x="1082" y="960"/>
			<point x="1058" y="960"/>
			<point x="1036" y="960" type="curve"/>
			<point x="940" y="1112"/>
			<point x="816" y="1130"/>
			<point x="760" y="1130" type="curve" smooth="yes"/>
			<point x="552" y="1130"/>
			<point x="370" y="942"/>
			<point x="370" y="694" type="curve" smooth="yes"/>
			<point x="370" y="446"/>
			<point x="552" y="258"/>
			<point x="760" y="258" type="curve" smooth="yes"/>
			<point x="880" y="258"/>
			<point x="972" y="332"/>
			<point x="1020" y="404" type="curve"/>
			<point x="1038" y="298"/>
			<point x="1138" y="258"/>
			<point x="1214" y="258" type="curve" smooth="yes"/>
			<point x="1388" y="258"/>
			<point x="1414" y="456"/>
			<point x="1414" y="672" type="curve" smooth="yes"/>
			<point x="1414" y="1154"/>
			<point x="1068" y="1408"/>
			<point x="762" y="1408" type="curve" smooth="yes"/>
			<point x="404" y="1408"/>
			<point x="108" y="1094"/>
			<point x="108" y="694" type="curve" smooth="yes"/>
			<point x="108" y="316"/>
			<point x="380" y="-20"/>
		</contour>
		<contour>
			<point x="764" y="298" type="curve" smooth="yes"/>
			<point x="616" y="298"/>
			<point x="500" y="476"/>
			<point x="500" y="694" type="curve" smooth="yes"/>
			<point x="500" y="912"/>
			<point x="616" y="1090"/>
			<point x="764" y="1090" type="curve" smooth="yes"/>
			<point x="838" y="1090"/>
			<point x="932" y="1046"/>
			<point x="994" y="946" type="curve" smooth="yes"/>
			<point x="1022" y="904"/>
			<point x="1022" y="902"/>
			<point x="1022" y="864" type="curve" smooth="yes"/>
			<point x="1022" y="514" type="line" smooth="yes"/>
			<point x="1022" y="434"/>
			<point x="894" y="298"/>
		</contour>
	</outline>
</glyph>
<glyph name="A" format="2">
	<unicode hex="0041"/>
	<advance width="1468"/>
	<outline>
		<contour>
			<point x="734" y="1428" type="curve" smooth="yes"/>
			<point x="706" y="1428"/>
			<point x="702" y="1422"/>
			<point x="692" y="1390" type="curve" smooth="yes"/>
			<point x="274" y="194" type="line" smooth="yes"/>
			<point x="246" y="112"/>
			<point x="190" y="60"/>
			<point x="62" y="58" type="curve"/>
			<point x="62" y="0" type="line"/>
			<point x="184" y="4"/>
			<point x="188" y="4"/>
			<point x="254" y="4" type="curve" smooth="yes"/>
			<point x="310" y="4"/>
			<point x="406" y="4"/>
			<point x="458" y="0" type="curve"/>
			<point x="458" y="58" type="line"/>
			<point x="374" y="60"/>
			<point x="324" y="102"/>
			<point x="324" y="158" type="curve" smooth="yes"/>
			<point x="324" y="170"/>
			<point x="324" y="174"/>
			<point x="334" y="200" type="curve" smooth="yes"/>
			<point x="426" y="466" type="line"/>
			<point x="930" y="466" type="line"/>
			<point x="1040" y="152" type="line"/>
			<point x="1050" y="128"/>
			<point x="1050" y="124"/>
			<point x="1050" y="118" type="curve" smooth="yes"/>
			<point x="1050" y="58"/>
			<point x="948" y="58"/>
			<point x="898" y="58" type="curve"/>
			<point x="898" y="0" type="line"/>
			<point x="944" y="4"/>
			<point x="1102" y="4"/>
			<point x="1158" y="4" type="curve" smooth="yes"/>
			<point x="1214" y="4"/>
			<point x="1358" y="4"/>
			<point x="1404" y="0" type="curve"/>
			<point x="1404" y="58" type="line"/>
			<point x="1404" y="58" type="line"/>
			<point x="1274" y="58"/>
			<point x="1238" y="58"/>
			<point x="1210" y="140" type="curve" smooth="yes"/>
			<point x="774" y="1392" type="line" smooth="yes"/>
			<point x="766" y="1416"/>
			<point x="762" y="1428"/>
		</contour>
		<contour>
			<point x="678" y="1190" type="line"/>
			<point x="910" y="524" type="line"/>
			<point x="446" y="524" type="line"/>
		</contour>
	</outline>
</glyph>
<glyph name="B" format="2">
	<unicode hex="0042"/>
	<advance width="1386"/>
	<outline>
		<contour>
			<point x="1276" y="366" type="curve" smooth="yes"/>
			<point x="1276" y="528"/>
			<point x="1130" y="688"/>
			<point x="892" y="714" type="curve"/>
			<point x="1082" y="750"/>
			<point x="1220" y="878"/>
			<point x="1220" y="1028" type="curve" smooth="yes"/>
			<point x="1220" y="1200"/>
			<point x="1046" y="1366"/>
			<point x="784" y="1366" type="curve" smooth="yes"/>
			<point x="86" y="1366" type="line"/>
			<point x="86" y="1308" type="line"/>
			<point x="126" y="1308" type="line" smooth="yes"/>
			<point x="270" y="1308"/>
			<point x="276" y="1288"/>
			<point x="276" y="1214" type="curve" smooth="yes"/>
			<point x="276" y="152" type="line" smooth="yes"/>
			<point x="276" y="78"/>
			<point x="270" y="58"/>
			<point x="126" y="58" type="curve" smooth="yes"/>
			<point x="86" y="58" type="line"/>
			<point x="86" y="0" type="line"/>
			<point x="838" y="0" type="line" smooth="yes"/>
			<point x="1096" y="0"/>
			<point x="1276" y="174"/>
		</contour>
		<contour>
			<point x="428" y="730" type="line"/>
			<point x="428" y="1228" type="line" smooth="yes"/>
			<point x="428" y="1294"/>
			<point x="432" y="1308"/>
			<point x="520" y="1308" type="curve" smooth="yes"/>
			<point x="772" y="1308" type="line" smooth="yes"/>
			<point x="972" y="1308"/>
			<point x="1044" y="1136"/>
			<point x="1044" y="1028" type="curve" smooth="yes"/>
			<point x="1044" y="896"/>
			<point x="940" y="730"/>
			<point x="718" y="730" type="curve" smooth="yes"/>
		</contour>
		<contour>
			<point x="776" y="58" type="curve" smooth="yes"/>
			<point x="520" y="58" type="line" smooth="yes"/>
			<point x="432" y="58"/>
			<point x="428" y="72"/>
			<point x="428" y="138" type="curve" smooth="yes"/>
			<point x="428" y="690" type="line"/>
			<point x="802" y="690" type="line" smooth="yes"/>
			<point x="994" y="690"/>
			<point x="1094" y="522"/>
			<point x="1094" y="368" type="curve" smooth="yes"/>
			<point x="1094" y="206"/>
			<point x="972" y="58"/>
		</contour>
	</outline>
</glyph>
<glyph name="C" format="2">
	<unicode hex="0043"/>
	<advance width="1414"/>
	<outline>
		<contour>
			<point x="108" y="684" type="curve" smooth="yes"/>
			<point x="108" y="270"/>
			<point x="428" y="-42"/>
			<point x="790" y="-42" type="curve" smooth="yes"/>
			<point x="1118" y="-42"/>
			<point x="1304" y="244"/>
			<point x="1304" y="464" type="curve" smooth="yes"/>
			<point x="1304" y="486"/>
			<point x="1304" y="498"/>
			<point x="1282" y="498" type="curve" smooth="yes"/>
			<point x="1262" y="498"/>
			<point x="1260" y="488"/>
			<point x="1260" y="474" type="curve"/>
			<point x="1242" y="156"/>
			<point x="1010" y="16"/>
			<point x="816" y="16" type="curve" smooth="yes"/>
			<point x="739" y="16"/>
			<point x="588" y="42"/>
			<point x="468" y="163" type="curve" smooth="yes"/>
			<point x="371" y="261"/>
			<point x="294" y="422"/>
			<point x="294" y="684" type="curve" smooth="yes"/>
			<point x="294" y="944"/>
			<point x="370" y="1105"/>
			<point x="467" y="1203" type="curve" smooth="yes"/>
			<point x="585" y="1323"/>
			<point x="735" y="1350"/>
			<point x="814" y="1350" type="curve" smooth="yes"/>
			<point x="1024" y="1350"/>
			<point x="1208" y="1172"/>
			<point x="1248" y="872" type="curve" smooth="yes"/>
			<point x="1252" y="848"/>
			<point x="1252" y="842"/>
			<point x="1276" y="842" type="curve" smooth="yes"/>
			<point x="1304" y="842"/>
			<point x="1304" y="848"/>
			<point x="1304" y="888" type="curve" smooth="yes"/>
			<point x="1304" y="1362" type="line" smooth="yes"/>
			<point x="1304" y="1398"/>
			<point x="1304" y="1408"/>
			<point x="1284" y="1408" type="curve" smooth="yes"/>
			<point x="1272" y="1408"/>
			<point x="1270" y="1404"/>
			<point x="1258" y="1384" type="curve" smooth="yes"/>
			<point x="1160" y="1226" type="line"/>
			<point x="1070" y="1338"/>
			<point x="934" y="1408"/>
			<point x="790" y="1408" type="curve" smooth="yes"/>
			<point x="424" y="1408"/>
			<point x="108" y="1092"/>
		</contour>
	</outline>
</glyph>
<glyph name="E" format="2">
	<unicode hex="0045"/>
	<advance width="1332"/>
	<outline>
		<contour>
			<point x="1276" y="512" type="line"/>
			<point x="1232" y="512" type="line"/>
			<point x="1184" y="200"/>
			<point x="1136" y="58"/>
			<point x="798" y="58" type="curve" smooth="yes"/>
			<point x="526" y="58" type="line" smooth="yes"/>
			<point x="438" y="58"/>
			<point x="434" y="72"/>
			<point x="434" y="138" type="curve" smooth="yes"/>
			<point x="434" y="678" type="line"/>
			<point x="616" y="678" type="line" smooth="yes"/>
			<point x="808" y="678"/>
			<point x="830" y="616"/>
			<point x="830" y="444" type="curve"/>
			<point x="874" y="444" type="line"/>
			<point x="874" y="970" type="line"/>
			<point x="830" y="970" type="line"/>
			<point x="830" y="798"/>
			<point x="808" y="736"/>
			<point x="616" y="736" type="curve" smooth="yes"/>
			<point x="434" y="736" type="line"/>
			<point x="434" y="1224" type="line" smooth="yes"/>
			<point x="434" y="1290"/>
			<point x="438" y="1304"/>
			<point x="526" y="1304" type="curve" smooth="yes"/>
			<point x="792" y="1304" type="line" smooth="yes"/>
			<point x="1086" y="1304"/>
			<point x="1148" y="1204"/>
			<point x="1178" y="916" type="curve"/>
			<point x="1222" y="916" type="line"/>
			<point x="1170" y="1362" type="line"/>
			<point x="82" y="1362" type="line"/>
			<point x="82" y="1304" type="line"/>
			<point x="122" y="1304" type="line" smooth="yes"/>
			<point x="266" y="1304"/>
			<point x="272" y="1284"/>
			<point x="272" y="1210" type="curve" smooth="yes"/>
			<point x="272" y="152" type="line" smooth="yes"/>
			<point x="272" y="78"/>
			<point x="266" y="58"/>
			<point x="122" y="58" type="curve" smooth="yes"/>
			<point x="82" y="58" type="line"/>
			<point x="82" y="0" type="line"/>
			<point x="1196" y="0" type="line"/>
		</contour>
	</outline>
</glyph>
<glyph name="F" format="2">
	<unicode hex="0046"/>
	<advance width="1278"/>
	<outline>
		<contour>
			<point x="1142" y="1362" type="line"/>
			<point x="82" y="1362" type="line"/>
			<point x="82" y="1304" type="line"/>
			<point x="122" y="1304" type="line" smooth="yes"/>
			<point x="266" y="1304"/>
			<point x="272" y="1284"/>
			<point x="272" y="1210" type="curve" smooth="yes"/>
			<point x="272" y="152" type="line" smooth="yes"/>
			<point x="272" y="78"/>
			<point x="266" y="58"/>
			<point x="122" y="58" type="curve" smooth="yes"/>
			<point x="82" y="58" type="line"/>
			<point x="82" y="0" type="line"/>
			<point x="130" y="4"/>
			<point x="308" y="4"/>
			<point x="368" y="4" type="curve" smooth="yes"/>
			<point x="438" y="4"/>
			<point x="614" y="4"/>
			<point x="672" y="0" type="curve"/>
			<point x="672" y="58" type="line"/>
			<point x="612" y="58" type="line" smooth="yes"/>
			<point x="438" y="58"/>
			<point x="434" y="82"/>
			<point x="434" y="154" type="curve" smooth="yes"/>
			<point x="434" y="652" type="line"/>
			<point x="610" y="652" type="line" smooth="yes"/>
			<point x="798" y="652"/>
			<point x="818" y="586"/>
			<point x="818" y="418" type="curve"/>
			<point x="862" y="418" type="line"/>
			<point x="862" y="944" type="line"/>
			<point x="818" y="944" type="line"/>
			<point x="818" y="776"/>
			<point x="798" y="710"/>
			<point x="610" y="710" type="curve" smooth="yes"/>
			<point x="434" y="710" type="line"/>
			<point x="434" y="1224" type="line" smooth="yes"/>
			<point x="434" y="1290"/>
			<point x="438" y="1304"/>
			<point x="526" y="1304" type="curve" smooth="yes"/>
			<point x="776" y="1304" type="line" smooth="yes"/>
			<point x="1064" y="1304"/>
			<point x="1122" y="1198"/>
			<point x="1150" y="916" type="curve"/>
			<point x="1194" y="916" type="line"/>
		</contour>
	</outline>
</glyph>
<glyph name="G" format="2">
	<unicode hex="0047"/>
	<advance width="1536"/>
	<outline>
		<contour>
			<point x="790" y="-42" type="curve" smooth="yes"/>
			<point x="876" y="-42"/>
			<point x="970" y="-24"/>
			<point x="1048" y="18" type="curve" smooth="yes"/>
			<point x="1096" y="44"/>
			<point x="1140" y="82"/>
			<point x="1168" y="132" type="curve"/>
			<point x="1204" y="68"/>
			<point x="1270" y="2"/>
			<point x="1286" y="2" type="curve" smooth="yes"/>
			<point x="1302" y="2"/>
			<point x="1302" y="14"/>
			<point x="1302" y="46" type="curve" smooth="yes"/>
			<point x="1302" y="163"/>
			<point x="1302" y="279"/>
			<point x="1302" y="396" type="curve" smooth="yes"/>
			<point x="1302" y="474"/>
			<point x="1310" y="484"/>
			<point x="1438" y="484" type="curve"/>
			<point x="1438" y="484"/>
			<point x="1438" y="484"/>
			<point x="1438" y="484" type="curve"/>
			<point x="1438" y="503"/>
			<point x="1438" y="523"/>
			<point x="1438" y="542" type="curve"/>
			<point x="1386" y="538"/>
			<point x="1248" y="538"/>
			<point x="1188" y="538" type="curve" smooth="yes"/>
			<point x="1124" y="538"/>
			<point x="950" y="538"/>
			<point x="896" y="542" type="curve"/>
			<point x="896" y="523"/>
			<point x="896" y="503"/>
			<point x="896" y="484" type="curve"/>
			<point x="917" y="484"/>
			<point x="937" y="484"/>
			<point x="958" y="484" type="curve" smooth="yes"/>
			<point x="1134" y="484"/>
			<point x="1140" y="460"/>
			<point x="1140" y="388" type="curve" smooth="yes"/>
			<point x="1140" y="345"/>
			<point x="1140" y="303"/>
			<point x="1140" y="260" type="curve" smooth="yes"/>
			<point x="1140" y="160"/>
			<point x="1090" y="100"/>
			<point x="1028" y="66" type="curve" smooth="yes"/>
			<point x="950" y="22"/>
			<point x="856" y="16"/>
			<point x="826" y="16" type="curve" smooth="yes"/>
			<point x="740" y="16"/>
			<point x="592" y="44"/>
			<point x="473" y="161" type="curve" smooth="yes"/>
			<point x="373" y="259"/>
			<point x="294" y="422"/>
			<point x="294" y="684" type="curve" smooth="yes"/>
			<point x="294" y="946"/>
			<point x="371" y="1106"/>
			<point x="469" y="1204" type="curve" smooth="yes"/>
			<point x="587" y="1324"/>
			<point x="735" y="1350"/>
			<point x="812" y="1350" type="curve" smooth="yes"/>
			<point x="986" y="1350"/>
			<point x="1194" y="1224"/>
			<point x="1246" y="870" type="curve" smooth="yes"/>
			<point x="1250" y="848"/>
			<point x="1250" y="842"/>
			<point x="1274" y="842" type="curve" smooth="yes"/>
			<point x="1302" y="842"/>
			<point x="1302" y="848"/>
			<point x="1302" y="888" type="curve" smooth="yes"/>
			<point x="1302" y="1046"/>
			<point x="1302" y="1204"/>
			<point x="1302" y="1362" type="curve" smooth="yes"/>
			<point x="1302" y="1398"/>
			<point x="1302" y="1408"/>
			<point x="1282" y="1408" type="curve" smooth="yes"/>
			<point x="1270" y="1408"/>
			<point x="1268" y="1404"/>
			<point x="1256" y="1384" type="curve" smooth="yes"/>
			<point x="1223" y="1331"/>
			<point x="1191" y="1279"/>
			<point x="1158" y="1226" type="curve"/>
			<point x="1100" y="1298"/>
			<point x="978" y="1408"/>
			<point x="788" y="1408" type="curve" smooth="yes"/>
			<point x="426" y="1408"/>
			<point x="108" y="1094"/>
			<point x="108" y="684" type="curve" smooth="yes"/>
			<point x="108" y="270"/>
			<point x="426" y="-42"/>
		</contour>
	</outline>
</glyph>
<glyph name="H" format="2">
	<unicode hex="0048"/>
	<advance width="734"/>
	<outline>
		<contour>
			<point x="41" y="0" type="line"/>
			<point x="65" y="2"/>
			<point x="147" y="2"/>
			<point x="176" y="2" type="curve" smooth="yes"/>
			<point x="206" y="2"/>
			<point x="288" y="2"/>
			<point x="312" y="0" type="curve"/>
			<point x="312" y="29" type="line"/>
			<point x="292" y="29" type="line" smooth="yes"/>
			<point x="220" y="29"/>
			<point x="217" y="39"/>
			<point x="217" y="76" type="curve" smooth="yes"/>
			<point x="217" y="341" type="line"/>
			<point x="516" y="341" type="line"/>
			<point x="516" y="76" type="line" smooth="yes"/>
			<point x="516" y="39"/>
			<point x="513" y="29"/>
			<point x="441" y="29" type="curve" smooth="yes"/>
			<point x="421" y="29" type="line"/>
			<point x="421" y="0" type="line"/>
			<point x="445" y="2"/>
			<point x="527" y="2"/>
			<point x="556" y="2" type="curve" smooth="yes"/>
			<point x="586" y="2"/>
			<point x="668" y="2"/>
			<point x="692" y="0" type="curve"/>
			<point x="692" y="29" type="line"/>
			<point x="672" y="29" type="line" smooth="yes"/>
			<point x="600" y="29"/>
			<point x="597" y="39"/>
			<point x="597" y="76" type="curve" smooth="yes"/>
			<point x="597" y="607" type="line" smooth="yes"/>
			<point x="597" y="644"/>
			<point x="600" y="654"/>
			<point x="672" y="654" type="curve" smooth="yes"/>
			<point x="692" y="654" type="line"/>
			<point x="692" y="683" type="line"/>
			<point x="668" y="681"/>
			<point x="586" y="681"/>
			<point x="557" y="681" type="curve" smooth="yes"/>
			<point x="527" y="681"/>
			<point x="445" y="681"/>
			<point x="421" y="683" type="curve"/>
			<point x="421" y="654" type="line"/>
			<point x="441" y="654" type="line" smooth="yes"/>
			<point x="513" y="654"/>
			<point x="516" y="644"/>
			<point x="516" y="607" type="curve" smooth="yes"/>
			<point x="516" y="370" type="line"/>
			<point x="217" y="370" type="line"/>
			<point x="217" y="607" type="line" smooth="yes"/>
			<point x="217" y="644"/>
			<point x="220" y="654"/>
			<point x="292" y="654" type="curve" smooth="yes"/>
			<point x="312" y="654" type="line"/>
			<point x="312" y="683" type="line"/>
			<point x="288" y="681"/>
			<point x="206" y="681"/>
			<point x="177" y="681" type="curve" smooth="yes"/>
			<point x="147" y="681"/>
			<point x="65" y="681"/>
			<point x="41" y="683" type="curve"/>
			<point x="41" y="654" type="line"/>
			<point x="61" y="654" type="line" smooth="yes"/>
			<point x="133" y="654"/>
			<point x="136" y="644"/>
			<point x="136" y="607" type="curve" smooth="yes"/>
			<point x="136" y="76" type="line" smooth="yes"/>
			<point x="136" y="39"/>
			<point x="133" y="29"/>
			<point x="61" y="29" type="curve" smooth="yes"/>
			<point x="41" y="29" type="line"/>
		</contour>
	</outline>
</glyph>
<glyph name="I" format="2">
	<unicode hex="0049"/>
	<advance width="706"/>
	<outline>
		<contour>
			<point x="72" y="0" type="line"/>
			<point x="120" y="4"/>
			<point x="292" y="4"/>
			<point x="352" y="4" type="curve" smooth="yes"/>
			<point x="412" y="4"/>
			<point x="586" y="4"/>
			<point x="634" y="0" type="curve"/>
			<point x="634" y="58" type="line"/>
			<point x="590" y="58" type="line" smooth="yes"/>
			<point x="440" y="58"/>
			<point x="434" y="78"/>
			<point x="434" y="152" type="curve" smooth="yes"/>
			<point x="434" y="1214" type="line" smooth="yes"/>
			<point x="434" y="1288"/>
			<point x="440" y="1308"/>
			<point x="590" y="1308" type="curve" smooth="yes"/>
			<point x="634" y="1308" type="line"/>
			<point x="634" y="1366" type="line"/>
			<point x="586" y="1362"/>
			<point x="414" y="1362"/>
			<point x="354" y="1362" type="curve" smooth="yes"/>
			<point x="294" y="1362"/>
			<point x="120" y="1362"/>
			<point x="72" y="1366" type="curve"/>
			<point x="72" y="1308" type="line"/>
			<point x="116" y="1308" type="line" smooth="yes"/>
			<point x="266" y="1308"/>
			<point x="272" y="1288"/>
			<point x="272" y="1214" type="curve" smooth="yes"/>
			<point x="272" y="152" type="line" smooth="yes"/>
			<point x="272" y="78"/>
			<point x="266" y="58"/>
			<point x="116" y="58" type="curve" smooth="yes"/>
			<point x="72" y="58" type="line"/>
		</contour>
	</outline>
</glyph>
<glyph name="J" format="2">
	<unicode hex="004A"/>
	<advance width="1006"/>
	<outline>
		<contour>
			<point x="406" y="-42" type="curve" smooth="yes"/>
			<point x="574" y="-42"/>
			<point x="760" y="78"/>
			<point x="760" y="298" type="curve" smooth="yes"/>
			<point x="760" y="1220" type="line" smooth="yes"/>
			<point x="760" y="1298"/>
			<point x="768" y="1308"/>
			<point x="902" y="1308" type="curve"/>
			<point x="902" y="1308" type="line"/>
			<point x="902" y="1366" type="line"/>
			<point x="852" y="1362"/>
			<point x="708" y="1362"/>
			<point x="650" y="1362" type="curve" smooth="yes"/>
			<point x="584" y="1362"/>
			<point x="410" y="1362"/>
			<point x="356" y="1366" type="curve"/>
			<point x="356" y="1308" type="line"/>
			<point x="418" y="1308" type="line" smooth="yes"/>
			<point x="596" y="1308"/>
			<point x="602" y="1284"/>
			<point x="602" y="1212" type="curve" smooth="yes"/>
			<point x="602" y="294" type="line" smooth="yes"/>
			<point x="602" y="116"/>
			<point x="508" y="-2"/>
			<point x="400" y="-2" type="curve" smooth="yes"/>
			<point x="358" y="-2"/>
			<point x="240" y="14"/>
			<point x="180" y="130" type="curve"/>
			<point x="240" y="120"/>
			<point x="300" y="156"/>
			<point x="300" y="228" type="curve" smooth="yes"/>
			<point x="300" y="276"/>
			<point x="268" y="326"/>
			<point x="200" y="326" type="curve" smooth="yes"/>
			<point x="154" y="326"/>
			<point x="102" y="298"/>
			<point x="102" y="224" type="curve" smooth="yes"/>
			<point x="102" y="82"/>
			<point x="232" y="-42"/>
		</contour>
	</outline>
</glyph>
<glyph name="K" format="2">
	<unicode hex="004B"/>
	<advance width="1522"/>
	<outline>
		<contour>
			<point x="82" y="0" type="line"/>
			<point x="130" y="4"/>
			<point x="294" y="4"/>
			<point x="352" y="4" type="curve" smooth="yes"/>
			<point x="412" y="4"/>
			<point x="576" y="4"/>
			<point x="624" y="0" type="curve"/>
			<point x="624" y="58" type="line"/>
			<point x="624" y="58" type="line" smooth="yes"/>
			<point x="456" y="58"/>
			<point x="434" y="60"/>
			<point x="434" y="156" type="curve" smooth="yes"/>
			<point x="434" y="504" type="line"/>
			<point x="672" y="734" type="line"/>
			<point x="1042" y="180" type="line" smooth="yes"/>
			<point x="1056" y="158"/>
			<point x="1068" y="140"/>
			<point x="1068" y="114" type="curve" smooth="yes"/>
			<point x="1068" y="58"/>
			<point x="996" y="58"/>
			<point x="964" y="58" type="curve"/>
			<point x="964" y="0" type="line"/>
			<point x="1012" y="4"/>
			<point x="1158" y="4"/>
			<point x="1216" y="4" type="curve" smooth="yes"/>
			<point x="1268" y="4"/>
			<point x="1368" y="4"/>
			<point x="1438" y="0" type="curve"/>
			<point x="1438" y="58" type="line"/>
			<point x="1330" y="58"/>
			<point x="1296" y="68"/>
			<point x="1232" y="164" type="curve" smooth="yes"/>
			<point x="782" y="838" type="line"/>
			<point x="1016" y="1066" type="line" smooth="yes"/>
			<point x="1184" y="1230"/>
			<point x="1252" y="1304"/>
			<point x="1412" y="1308" type="curve"/>
			<point x="1412" y="1366" type="line"/>
			<point x="1354" y="1362"/>
			<point x="1330" y="1362"/>
			<point x="1240" y="1362" type="curve" smooth="yes"/>
			<point x="1188" y="1362"/>
			<point x="1070" y="1362"/>
			<point x="1024" y="1366" type="curve"/>
			<point x="1024" y="1308" type="line"/>
			<point x="1066" y="1306"/>
			<point x="1102" y="1288"/>
			<point x="1102" y="1244" type="curve" smooth="yes"/>
			<point x="1102" y="1214"/>
			<point x="1088" y="1196"/>
			<point x="1044" y="1154" type="curve" smooth="yes"/>
			<point x="434" y="564" type="line"/>
			<point x="434" y="1210" type="line" smooth="yes"/>
			<point x="434" y="1308"/>
			<point x="456" y="1308"/>
			<point x="624" y="1308" type="curve" smooth="yes"/>
			<point x="624" y="1308" type="line"/>
			<point x="624" y="1366" type="line"/>
			<point x="576" y="1362"/>
			<point x="412" y="1362"/>
			<point x="354" y="1362" type="curve" smooth="yes"/>
			<point x="294" y="1362"/>
			<point x="130" y="1362"/>
			<point x="82" y="1366" type="curve"/>
			<point x="82" y="1308" type="line"/>
			<point x="82" y="1308" type="line" smooth="yes"/>
			<point x="250" y="1308"/>
			<point x="272" y="1308"/>
			<point x="272" y="1210" type="curve" smooth="yes"/>
			<point x="272" y="156" type="line" smooth="yes"/>
			<point x="272" y="58"/>
			<point x="250" y="58"/>
			<point x="82" y="58" type="curve" smooth="yes"/>
			<point x="82" y="58" type="line"/>
		</contour>
	</outline>
</glyph>
<glyph name="L" format="2">
	<unicode hex="004C"/>
	<advance width="1222"/>
	<outline>
		<contour>
			<point x="1140" y="512" type="line"/>
			<point x="1096" y="512" type="line"/>
			<point x="1076" y="312"/>
			<point x="1050" y="58"/>
			<point x="700" y="58" type="curve" smooth="yes"/>
			<point x="526" y="58" type="line" smooth="yes"/>
			<point x="438" y="58"/>
			<point x="434" y="72"/>
			<point x="434" y="138" type="curve" smooth="yes"/>
			<point x="434" y="1212" type="line" smooth="yes"/>
			<point x="434" y="1284"/>
			<point x="438" y="1308"/>
			<point x="612" y="1308" type="curve" smooth="yes"/>
			<point x="672" y="1308" type="line"/>
			<point x="672" y="1366" type="line"/>
			<point x="614" y="1362"/>
			<point x="438" y="1362"/>
			<point x="368" y="1362" type="curve" smooth="yes"/>
			<point x="308" y="1362"/>
			<point x="130" y="1362"/>
			<point x="82" y="1366" type="curve"/>
			<point x="82" y="1308" type="line"/>
			<point x="122" y="1308" type="line" smooth="yes"/>
			<point x="266" y="1308"/>
			<point x="272" y="1288"/>
			<point x="272" y="1214" type="curve" smooth="yes"/>
			<point x="272" y="152" type="line" smooth="yes"/>
			<point x="272" y="78"/>
			<point x="266" y="58"/>
			<point x="122" y="58" type="curve" smooth="yes"/>
			<point x="82" y="58" type="line"/>
			<point x="82" y="0" type="line"/>
			<point x="1088" y="0" type="line"/>
		</contour>
	</outline>
</glyph>
<glyph name="M" format="2">
	<unicode hex="004D"/>
	<advance width="1794"/>
	<outline>
		<contour>
			<point x="896" y="188" type="line"/>
			<point x="460" y="1328" type="line" smooth="yes"/>
			<point x="446" y="1366"/>
			<point x="444" y="1366"/>
			<point x="398" y="1366" type="curve" smooth="yes"/>
			<point x="88" y="1366" type="line"/>
			<point x="88" y="1308" type="line"/>
			<point x="128" y="1308" type="line" smooth="yes"/>
			<point x="272" y="1308"/>
			<point x="278" y="1288"/>
			<point x="278" y="1214" type="curve" smooth="yes"/>
			<point x="278" y="206" type="line" smooth="yes"/>
			<point x="278" y="152"/>
			<point x="278" y="58"/>
			<point x="88" y="58" type="curve"/>
			<point x="88" y="58" type="line"/>
			<point x="88" y="0" type="line"/>
			<point x="140" y="4"/>
			<point x="246" y="4"/>
			<point x="302" y="4" type="curve" smooth="yes"/>
			<point x="358" y="4"/>
			<point x="464" y="4"/>
			<point x="516" y="0" type="curve"/>
			<point x="516" y="58" type="line"/>
			<point x="516" y="58" type="line"/>
			<point x="326" y="58"/>
			<point x="326" y="152"/>
			<point x="326" y="206" type="curve" smooth="yes"/>
			<point x="326" y="1298" type="line"/>
			<point x="328" y="1298" type="line"/>
			<point x="810" y="38" type="line" smooth="yes"/>
			<point x="818" y="16"/>
			<point x="824" y="0"/>
			<point x="844" y="0" type="curve" smooth="yes"/>
			<point x="862" y="0"/>
			<point x="866" y="10"/>
			<point x="878" y="40" type="curve" smooth="yes"/>
			<point x="1364" y="1308" type="line"/>
			<point x="1366" y="1308" type="line"/>
			<point x="1366" y="152" type="line" smooth="yes"/>
			<point x="1366" y="78"/>
			<point x="1360" y="58"/>
			<point x="1216" y="58" type="curve" smooth="yes"/>
			<point x="1176" y="58" type="line"/>
			<point x="1176" y="0" type="line"/>
			<point x="1222" y="4"/>
			<point x="1382" y="4"/>
			<point x="1440" y="4" type="curve" smooth="yes"/>
			<point x="1498" y="4"/>
			<point x="1658" y="4"/>
			<point x="1704" y="0" type="curve"/>
			<point x="1704" y="58" type="line"/>
			<point x="1664" y="58" type="line" smooth="yes"/>
			<point x="1520" y="58"/>
			<point x="1514" y="78"/>
			<point x="1514" y="152" type="curve" smooth="yes"/>
			<point x="1514" y="1214" type="line" smooth="yes"/>
			<point x="1514" y="1288"/>
			<point x="1520" y="1308"/>
			<point x="1664" y="1308" type="curve" smooth="yes"/>
			<point x="1704" y="1308" type="line"/>
			<point x="1704" y="1366" type="line"/>
			<point x="1394" y="1366" type="line" smooth="yes"/>
			<point x="1350" y="1366"/>
			<point x="1348" y="1364"/>
			<point x="1332" y="1326" type="curve" smooth="yes"/>
		</contour>
	</outline>
</glyph>
<glyph name="N" format="2">
	<unicode hex="004E"/>
	<advance width="1468"/>
	<outline>
		<contour>
			<point x="1146" y="282" type="line"/>
			<point x="452" y="1338" type="line" smooth="yes"/>
			<point x="434" y="1364"/>
			<point x="432" y="1366"/>
			<point x="388" y="1366" type="curve" smooth="yes"/>
			<point x="82" y="1366" type="line"/>
			<point x="82" y="1308" type="line"/>
			<point x="82" y="1308" type="line"/>
			<point x="168" y="1308"/>
			<point x="218" y="1308"/>
			<point x="272" y="1294" type="curve"/>
			<point x="272" y="1294"/>
			<point x="272" y="1294"/>
			<point x="272" y="1294" type="curve"/>
			<point x="272" y="210" type="line" smooth="yes"/>
			<point x="272" y="152"/>
			<point x="272" y="58"/>
			<point x="82" y="58" type="curve"/>
			<point x="82" y="58" type="line"/>
			<point x="82" y="0" type="line"/>
			<point x="134" y="4"/>
			<point x="240" y="4"/>
			<point x="296" y="4" type="curve" smooth="yes"/>
			<point x="352" y="4"/>
			<point x="458" y="4"/>
			<point x="510" y="0" type="curve"/>
			<point x="510" y="58" type="line"/>
			<point x="510" y="58" type="line"/>
			<point x="320" y="58"/>
			<point x="320" y="152"/>
			<point x="320" y="210" type="curve" smooth="yes"/>
			<point x="320" y="1262" type="line"/>
			<point x="328" y="1254"/>
			<point x="338" y="1244"/>
			<point x="354" y="1218" type="curve" smooth="yes"/>
			<point x="1134" y="30" type="line" smooth="yes"/>
			<point x="1154" y="2"/>
			<point x="1156" y="0"/>
			<point x="1170" y="0" type="curve" smooth="yes"/>
			<point x="1188" y="0"/>
			<point x="1192" y="8"/>
			<point x="1194" y="12" type="curve"/>
			<point x="1194" y="1156" type="line" smooth="yes"/>
			<point x="1194" y="1214"/>
			<point x="1194" y="1308"/>
			<point x="1384" y="1308" type="curve"/>
			<point x="1384" y="1308" type="line"/>
			<point x="1384" y="1366" type="line"/>
			<point x="1332" y="1362"/>
			<point x="1226" y="1362"/>
			<point x="1170" y="1362" type="curve" smooth="yes"/>
			<point x="1114" y="1362"/>
			<point x="1008" y="1362"/>
			<point x="956" y="1366" type="curve"/>
			<point x="956" y="1308" type="line"/>
			<point x="956" y="1308" type="line"/>
			<point x="1146" y="1308"/>
			<point x="1146" y="1214"/>
			<point x="1146" y="1156" type="curve" smooth="yes"/>
		</contour>
	</outline>
</glyph>
<glyph name="O" format="2">
  <advance width="761"/>
  <unicode hex="004F"/>
  <outline>
    <contour>
      <point x="707" y="339" type="curve" smooth="yes"/>
      <point x="707" y="546"/>
      <point x="555" y="704"/>
      <point x="381" y="704" type="curve" smooth="yes"/>
      <point x="203" y="704"/>
      <point x="54" y="544"/>
      <point x="54" y="339" type="curve" smooth="yes"/>
      <point x="54" y="136"/>
      <point x="205" y="-21"/>
      <point x="380" y="-21" type="curve" smooth="yes"/>
      <point x="559" y="-21"/>
      <point x="707" y="138"/>
    </contour>
    <contour>
      <point x="381" y="2" type="curve" smooth="yes"/>
      <point x="336.5382" y="2.0"/>
      <point x="286.3761357" y="20.240845759999996"/>
      <point x="243.93143122519803" y="62.02332705785599" type="curve" smooth="yes"/>
      <point x="189.00356292" y="116.0942096"/>
      <point x="147.0" y="209.5904"/>
      <point x="147" y="354" type="curve" smooth="yes"/>
      <point x="147.0" y="483.3355"/>
      <point x="185.73629899" y="567.52509758"/>
      <point x="236.139859764424" y="618.1908250184811" type="curve" smooth="yes"/>
      <point x="281.21567154999997" y="663.5010919700001"/>
      <point x="335.6226" y="682.0"/>
      <point x="380" y="682" type="curve" smooth="yes"/>
      <point x="426.53891" y="682.0"/>
      <point x="481.03326589159997" y="662.9953237034"/>
      <point x="525.7191337686843" y="617.714185300679" type="curve" smooth="yes"/>
      <point x="576.0913779064999" y="566.6709211364"/>
      <point x="613.9999999999999" y="482.23822"/>
      <point x="614" y="354" type="curve" smooth="yes"/>
      <point x="614.0" y="208.9356"/>
      <point x="571.6636020704" y="116.16910332479999"/>
      <point x="517.3856938997823" y="62.50044446393002" type="curve" smooth="yes"/>
      <point x="474.3809047003999" y="19.978368011200004"/>
      <point x="423.87981999999994" y="2.0"/>
    </contour>
  </outline>
</glyph>
<glyph name="P" format="2">
	<unicode hex="0050"/>
	<advance width="1332"/>
	<outline>
		<contour>
			<point x="436" y="636" type="line"/>
			<point x="774" y="636" type="line" smooth="yes"/>
			<point x="1008" y="636"/>
			<point x="1222" y="794"/>
			<point x="1222" y="996" type="curve" smooth="yes"/>
			<point x="1222" y="1190"/>
			<point x="1028" y="1366"/>
			<point x="758" y="1366" type="curve" smooth="yes"/>
			<point x="84" y="1366" type="line"/>
			<point x="84" y="1308" type="line"/>
			<point x="124" y="1308" type="line" smooth="yes"/>
			<point x="268" y="1308"/>
			<point x="274" y="1288"/>
			<point x="274" y="1214" type="curve" smooth="yes"/>
			<point x="274" y="152" type="line" smooth="yes"/>
			<point x="274" y="78"/>
			<point x="268" y="58"/>
			<point x="124" y="58" type="curve" smooth="yes"/>
			<point x="84" y="58" type="line"/>
			<point x="84" y="0" type="line"/>
			<point x="132" y="4"/>
			<point x="296" y="4"/>
			<point x="354" y="4" type="curve" smooth="yes"/>
			<point x="414" y="4"/>
			<point x="578" y="4"/>
			<point x="626" y="0" type="curve"/>
			<point x="626" y="58" type="line"/>
			<point x="586" y="58" type="line" smooth="yes"/>
			<point x="442" y="58"/>
			<point x="436" y="78"/>
			<point x="436" y="152" type="curve" smooth="yes"/>
		</contour>
		<contour>
			<point x="432" y="684" type="line"/>
			<point x="432" y="1228" type="line" smooth="yes"/>
			<point x="432" y="1294"/>
			<point x="436" y="1308"/>
			<point x="524" y="1308" type="curve" smooth="yes"/>
			<point x="712" y="1308" type="line" smooth="yes"/>
			<point x="1036" y="1308"/>
			<point x="1036" y="1082"/>
			<point x="1036" y="996" type="curve" smooth="yes"/>
			<point x="1036" y="912"/>
			<point x="1036" y="684"/>
			<point x="710" y="684" type="curve" smooth="yes"/>
		</contour>
	</outline>
</glyph>
<glyph name="Q" format="2">
	<unicode hex="0051"/>
	<advance width="1522"/>
	<outline>
		<contour>
			<point x="1008" y="12" type="curve"/>
			<point x="1224" y="106"/>
			<point x="1414" y="356"/>
			<point x="1414" y="678" type="curve" smooth="yes"/>
			<point x="1414" y="1092"/>
			<point x="1110" y="1408"/>
			<point x="762" y="1408" type="curve" smooth="yes"/>
			<point x="406" y="1408"/>
			<point x="108" y="1088"/>
			<point x="108" y="678" type="curve" smooth="yes"/>
			<point x="108" y="276"/>
			<point x="404" y="-42"/>
			<point x="762" y="-42" type="curve" smooth="yes"/>
			<point x="828" y="-42"/>
			<point x="896" y="-30"/>
			<point x="950" y="-12" type="curve"/>
			<point x="982" y="-216"/>
			<point x="1008" y="-388"/>
			<point x="1188" y="-388" type="curve" smooth="yes"/>
			<point x="1422" y="-388"/>
			<point x="1424" y="-38"/>
			<point x="1424" y="-20" type="curve" smooth="yes"/>
			<point x="1424" y="0"/>
			<point x="1424" y="18"/>
			<point x="1404" y="18" type="curve" smooth="yes"/>
			<point x="1388" y="18"/>
			<point x="1388" y="4"/>
			<point x="1386" y="-10" type="curve" smooth="yes"/>
			<point x="1372" y="-154"/>
			<point x="1274" y="-202"/>
			<point x="1204" y="-202" type="curve" smooth="yes"/>
			<point x="1102" y="-202"/>
			<point x="1056" y="-128"/>
		</contour>
		<contour>
			<point x="638" y="24" type="curve"/>
			<point x="490" y="76"/>
			<point x="290" y="248"/>
			<point x="290" y="680" type="curve" smooth="yes"/>
			<point x="290" y="951"/>
			<point x="370" y="1130"/>
			<point x="475" y="1236" type="curve" smooth="yes"/>
			<point x="563" y="1325"/>
			<point x="669" y="1364"/>
			<point x="760" y="1364" type="curve" smooth="yes"/>
			<point x="853" y="1364"/>
			<point x="957" y="1326"/>
			<point x="1044" y="1240" type="curve" smooth="yes"/>
			<point x="1151" y="1134"/>
			<point x="1232" y="953"/>
			<point x="1232" y="680" type="curve" smooth="yes"/>
			<point x="1232" y="394"/>
			<point x="1144" y="188"/>
			<point x="984" y="76" type="curve"/>
			<point x="950" y="176"/>
			<point x="894" y="294"/>
			<point x="764" y="294" type="curve" smooth="yes"/>
			<point x="664" y="294"/>
			<point x="606" y="208"/>
			<point x="606" y="126" type="curve" smooth="yes"/>
			<point x="606" y="72"/>
			<point x="634" y="30"/>
		</contour>
		<contour>
			<point x="940" y="48" type="curve"/>
			<point x="880" y="16"/>
			<point x="816" y="2"/>
			<point x="762" y="2" type="curve" smooth="yes"/>
			<point x="676" y="2"/>
			<point x="646" y="80"/>
			<point x="646" y="128" type="curve" smooth="yes"/>
			<point x="646" y="186"/>
			<point x="688" y="254"/>
			<point x="764" y="254" type="curve" smooth="yes"/>
			<point x="878" y="254"/>
			<point x="918" y="160"/>
		</contour>
	</outline>
</glyph>
<glyph name="R" format="2">
	<unicode hex="0052"/>
	<advance width="720"/>
	<outline>
		<contour>
			<point x="422" y="340" type="curve"/>
			<point x="521" y="363"/>
			<point x="598" y="426"/>
			<point x="598" y="503" type="curve" smooth="yes"/>
			<point x="598" y="600"/>
			<point x="485" y="683"/>
			<point x="341" y="683" type="curve" smooth="yes"/>
			<point x="42" y="683" type="line"/>
			<point x="42" y="654" type="line"/>
			<point x="62" y="654" type="line" smooth="yes"/>
			<point x="134" y="654"/>
			<point x="137" y="644"/>
			<point x="137" y="607" type="curve" smooth="yes"/>
			<point x="137" y="76" type="line" smooth="yes"/>
			<point x="137" y="39"/>
			<point x="134" y="29"/>
			<point x="62" y="29" type="curve" smooth="yes"/>
			<point x="42" y="29" type="line"/>
			<point x="42" y="0" type="line"/>
			<point x="65" y="2"/>
			<point x="147" y="2"/>
			<point x="176" y="2" type="curve" smooth="yes"/>
			<point x="205" y="2"/>
			<point x="288" y="2"/>
			<point x="311" y="0" type="curve"/>
			<point x="311" y="29" type="line"/>
			<point x="291" y="29" type="line" smooth="yes"/>
			<point x="219" y="29"/>
			<point x="216" y="39"/>
			<point x="216" y="76" type="curve" smooth="yes"/>
			<point x="216" y="332" type="line"/>
			<point x="332" y="332" type="line" smooth="yes"/>
			<point x="371" y="332"/>
			<point x="408" y="321"/>
			<point x="435" y="293" type="curve" smooth="yes"/>
			<point x="469" y="255"/>
			<point x="469" y="234"/>
			<point x="469" y="165" type="curve" smooth="yes"/>
			<point x="469" y="86"/>
			<point x="469" y="60"/>
			<point x="513" y="17" type="curve" smooth="yes"/>
			<point x="528" y="2"/>
			<point x="570" y="-21"/>
			<point x="626" y="-21" type="curve" smooth="yes"/>
			<point x="704" y="-21"/>
			<point x="717" y="66"/>
			<point x="717" y="87" type="curve" smooth="yes"/>
			<point x="717" y="93"/>
			<point x="717" y="102"/>
			<point x="706" y="102" type="curve" smooth="yes"/>
			<point x="696" y="102"/>
			<point x="696" y="96"/>
			<point x="695" y="86" type="curve" smooth="yes"/>
			<point x="690" y="26"/>
			<point x="661" y="-1"/>
			<point x="629" y="-1" type="curve" smooth="yes"/>
			<point x="583" y="-1"/>
			<point x="573" y="46"/>
			<point x="565" y="99" type="curve" smooth="yes"/>
			<point x="564" y="106"/>
			<point x="558" y="149"/>
			<point x="555" y="174" type="curve" smooth="yes"/>
			<point x="546" y="248"/>
			<point x="534" y="303"/>
		</contour>
		<contour>
			<point x="216" y="352" type="line"/>
			<point x="216" y="614" type="line" smooth="yes"/>
			<point x="216" y="637"/>
			<point x="216" y="649"/>
			<point x="237" y="653" type="curve"/>
			<point x="246" y="654"/>
			<point x="276" y="654"/>
			<point x="296" y="654" type="curve" smooth="yes"/>
			<point x="377" y="654"/>
			<point x="505" y="654"/>
			<point x="505" y="503" type="curve" smooth="yes"/>
			<point x="505" y="416"/>
			<point x="458" y="352"/>
			<point x="328" y="352" type="curve" smooth="yes"/>
		</contour>
	</outline>
</glyph>
<glyph name="S" format="2">
	<unicode hex="0053"/>
	<advance width="543"/>
	<outline>
		<contour>
			<point x="431" y="154" type="curve" smooth="yes"/>
			<point x="431" y="79"/>
			<point x="378" y="8"/>
			<point x="295" y="8" type="curve" smooth="yes"/>
			<point x="147" y="8"/>
			<point x="76" y="106"/>
			<point x="76" y="219" type="curve"/>
			<point x="75" y="227"/>
			<point x="67" y="227"/>
			<point x="65" y="227" type="curve" smooth="yes"/>
			<point x="54" y="227"/>
			<point x="54" y="222"/>
			<point x="54" y="204" type="curve" smooth="yes"/>
			<point x="54" y="2" type="line" smooth="yes"/>
			<point x="54" y="-16"/>
			<point x="54" y="-21"/>
			<point x="64" y="-21" type="curve" smooth="yes"/>
			<point x="70" y="-21"/>
			<point x="71" y="-19"/>
			<point x="78" y="-7" type="curve" smooth="yes"/>
			<point x="88.989" y="12.98"/>
			<point x="99.978" y="32.96"/>
			<point x="111" y="53" type="curve"/>
			<point x="147" y="13"/>
			<point x="210" y="-21"/>
			<point x="296" y="-21" type="curve" smooth="yes"/>
			<point x="408" y="-21"/>
			<point x="489" y="74"/>
			<point x="489" y="184" type="curve" smooth="yes"/>
			<point x="489" y="245"/>
			<point x="466" y="290"/>
			<point x="439" y="323" type="curve" smooth="yes"/>
			<point x="402" y="368"/>
			<point x="357" y="379"/>
			<point x="318" y="389" type="curve" smooth="yes"/>
			<point x="281" y="398"/>
			<point x="245" y="408"/>
			<point x="208" y="417" type="curve" smooth="yes"/>
			<point x="157" y="430"/>
			<point x="112" y="480"/>
			<point x="112" y="544" type="curve" smooth="yes"/>
			<point x="112" y="614"/>
			<point x="168" y="677"/>
			<point x="246" y="677" type="curve" smooth="yes"/>
			<point x="410" y="677"/>
			<point x="432" y="515"/>
			<point x="438" y="472" type="curve" smooth="yes"/>
			<point x="440" y="460"/>
			<point x="440" y="456"/>
			<point x="450" y="456" type="curve" smooth="yes"/>
			<point x="461" y="456"/>
			<point x="461" y="461"/>
			<point x="461" y="479" type="curve" smooth="yes"/>
			<point x="461" y="681" type="line" smooth="yes"/>
			<point x="461" y="699"/>
			<point x="461" y="704"/>
			<point x="451" y="704" type="curve" smooth="yes"/>
			<point x="448" y="704"/>
			<point x="444" y="704"/>
			<point x="437" y="691" type="curve" smooth="yes"/>
			<point x="426.011" y="670.687"/>
			<point x="415.022" y="650.374"/>
			<point x="404" y="630" type="curve"/>
			<point x="356" y="692"/>
			<point x="290" y="704"/>
			<point x="246" y="704" type="curve" smooth="yes"/>
			<point x="135" y="704"/>
			<point x="54" y="615"/>
			<point x="54" y="513" type="curve" smooth="yes"/>
			<point x="54" y="465"/>
			<point x="71" y="421"/>
			<point x="108" y="381" type="curve" smooth="yes"/>
			<point x="143" y="342"/>
			<point x="178" y="333"/>
			<point x="249" y="315" type="curve" smooth="yes"/>
			<point x="284" y="307"/>
			<point x="339" y="293"/>
			<point x="353" y="287" type="curve"/>
			<point x="400" y="264"/>
			<point x="431" y="210"/>
		</contour>
	</outline>
</glyph>
<glyph name="T" format="2">
	<unicode hex="0054"/>
	<advance width="1414"/>
	<outline>
		<contour>
			<point x="1306" y="1356" type="line"/>
			<point x="106" y="1356" type="line"/>
			<point x="70" y="910" type="line"/>
			<point x="114" y="910" type="line"/>
			<point x="142" y="1226"/>
			<point x="160" y="1298"/>
			<point x="476" y="1298" type="curve" smooth="yes"/>
			<point x="512" y="1298"/>
			<point x="568" y="1296"/>
			<point x="584" y="1294" type="curve" smooth="yes"/>
			<point x="624" y="1288"/>
			<point x="626" y="1264"/>
			<point x="626" y="1218" type="curve" smooth="yes"/>
			<point x="626" y="154" type="line" smooth="yes"/>
			<point x="626" y="86"/>
			<point x="626" y="58"/>
			<point x="430" y="58" type="curve" smooth="yes"/>
			<point x="358" y="58" type="line"/>
			<point x="358" y="0" type="line"/>
			<point x="422" y="4"/>
			<point x="628" y="4"/>
			<point x="706" y="4" type="curve" smooth="yes"/>
			<point x="784" y="4"/>
			<point x="992" y="4"/>
			<point x="1056" y="0" type="curve"/>
			<point x="1056" y="58" type="line"/>
			<point x="984" y="58" type="line" smooth="yes"/>
			<point x="788" y="58"/>
			<point x="788" y="86"/>
			<point x="788" y="154" type="curve" smooth="yes"/>
			<point x="788" y="1218" type="line" smooth="yes"/>
			<point x="788" y="1268"/>
			<point x="792" y="1286"/>
			<point x="824" y="1294" type="curve" smooth="yes"/>
			<point x="840" y="1298"/>
			<point x="898" y="1298"/>
			<point x="936" y="1298" type="curve" smooth="yes"/>
			<point x="1252" y="1298"/>
			<point x="1270" y="1226"/>
			<point x="1298" y="910" type="curve"/>
			<point x="1342" y="910" type="line"/>
		</contour>
	</outline>
</glyph>
<glyph name="U" format="2">
	<unicode hex="0055"/>
	<advance width="1468"/>
	<outline>
		<contour>
			<point x="762" y="16" type="curve" smooth="yes"/>
			<point x="642" y="16"/>
			<point x="434" y="96"/>
			<point x="434" y="446" type="curve" smooth="yes"/>
			<point x="434" y="1214" type="line" smooth="yes"/>
			<point x="434" y="1288"/>
			<point x="440" y="1308"/>
			<point x="584" y="1308" type="curve" smooth="yes"/>
			<point x="624" y="1308" type="line"/>
			<point x="624" y="1366" type="line"/>
			<point x="576" y="1362"/>
			<point x="412" y="1362"/>
			<point x="354" y="1362" type="curve" smooth="yes"/>
			<point x="294" y="1362"/>
			<point x="130" y="1362"/>
			<point x="82" y="1366" type="curve"/>
			<point x="82" y="1308" type="line"/>
			<point x="122" y="1308" type="line" smooth="yes"/>
			<point x="266" y="1308"/>
			<point x="272" y="1288"/>
			<point x="272" y="1214" type="curve" smooth="yes"/>
			<point x="272" y="458" type="line" smooth="yes"/>
			<point x="272" y="168"/>
			<point x="504" y="-42"/>
			<point x="758" y="-42" type="curve" smooth="yes"/>
			<point x="1036" y="-42"/>
			<point x="1194" y="230"/>
			<point x="1194" y="430" type="curve" smooth="yes"/>
			<point x="1194" y="1186" type="line" smooth="yes"/>
			<point x="1194" y="1308"/>
			<point x="1348" y="1308"/>
			<point x="1384" y="1308" type="curve"/>
			<point x="1384" y="1308" type="line"/>
			<point x="1384" y="1366" type="line"/>
			<point x="1332" y="1362"/>
			<point x="1224" y="1362"/>
			<point x="1168" y="1362" type="curve" smooth="yes"/>
			<point x="1110" y="1362"/>
			<point x="1002" y="1362"/>
			<point x="950" y="1366" type="curve"/>
			<point x="950" y="1308" type="line"/>
			<point x="950" y="1308" type="line"/>
			<point x="1140" y="1308"/>
			<point x="1140" y="1214"/>
			<point x="1140" y="1160" type="curve" smooth="yes"/>
			<point x="1140" y="460" type="line" smooth="yes"/>
			<point x="1140" y="180"/>
			<point x="950" y="16"/>
		</contour>
	</outline>
</glyph>
<glyph name="V" format="2">
	<unicode hex="0056"/>
	<advance width="1468"/>
	<outline>
		<contour>
			<point x="732" y="-42" type="curve" smooth="yes"/>
			<point x="760" y="-42"/>
			<point x="762" y="-36"/>
			<point x="776" y="-2" type="curve" smooth="yes"/>
			<point x="1222" y="1168" type="line" smooth="yes"/>
			<point x="1240" y="1218"/>
			<point x="1274" y="1306"/>
			<point x="1430" y="1308" type="curve"/>
			<point x="1430" y="1308" type="line"/>
			<point x="1430" y="1366" type="line"/>
			<point x="1328" y="1362"/>
			<point x="1324" y="1362"/>
			<point x="1246" y="1362" type="curve" smooth="yes"/>
			<point x="1192" y="1362"/>
			<point x="1092" y="1362"/>
			<point x="1042" y="1366" type="curve"/>
			<point x="1042" y="1308" type="line"/>
			<point x="1144" y="1306"/>
			<point x="1174" y="1250"/>
			<point x="1174" y="1210" type="curve" smooth="yes"/>
			<point x="1174" y="1198"/>
			<point x="1174" y="1194"/>
			<point x="1162" y="1166" type="curve" smooth="yes"/>
			<point x="788" y="180" type="line"/>
			<point x="394" y="1220" type="line"/>
			<point x="384" y="1242"/>
			<point x="384" y="1246"/>
			<point x="384" y="1250" type="curve" smooth="yes"/>
			<point x="384" y="1308"/>
			<point x="484" y="1308"/>
			<point x="534" y="1308" type="curve"/>
			<point x="534" y="1366" type="line"/>
			<point x="486" y="1362"/>
			<point x="334" y="1362"/>
			<point x="276" y="1362" type="curve" smooth="yes"/>
			<point x="220" y="1362"/>
			<point x="84" y="1362"/>
			<point x="36" y="1366" type="curve"/>
			<point x="36" y="1308" type="line"/>
			<point x="36" y="1308" type="line"/>
			<point x="160" y="1308"/>
			<point x="192" y="1308"/>
			<point x="222" y="1228" type="curve" smooth="yes"/>
			<point x="690" y="-4" type="line" smooth="yes"/>
			<point x="700" y="-32"/>
			<point x="704" y="-42"/>
		</contour>
	</outline>
</glyph>
<glyph name="W" format="2">
  <advance width="1006"/>
  <unicode hex="0057"/>
  <outline>
    <contour>
      <point x="348" y="107" type="line"/>
      <point x="188" y="605" type="line" smooth="yes"/>
      <point x="183" y="619"/>
      <point x="183" y="621"/>
      <point x="183" y="624" type="curve" smooth="yes"/>
      <point x="183" y="654"/>
      <point x="234" y="654"/>
      <point x="260" y="654" type="curve"/>
      <point x="260" y="683" type="line"/>
      <point x="237" y="681"/>
      <point x="161" y="681"/>
      <point x="133" y="681" type="curve" smooth="yes"/>
      <point x="104" y="681"/>
      <point x="43" y="681"/>
      <point x="17" y="683" type="curve"/>
      <point x="17" y="654" type="line"/>
      <point x="17" y="654" type="line"/>
      <point x="71" y="654"/>
      <point x="90" y="654"/>
      <point x="102" y="616" type="curve" smooth="yes"/>
      <point x="300" y="-2" type="line" smooth="yes"/>
      <point x="305" y="-17"/>
      <point x="309" y="-21"/>
      <point x="318" y="-21" type="curve" smooth="yes"/>
      <point x="326" y="-21"/>
      <point x="331" y="-18"/>
      <point x="336" y="-3" type="curve" smooth="yes"/>
      <point x="502" y="516" type="line"/>
      <point x="669" y="-3" type="line" smooth="yes"/>
      <point x="674" y="-18"/>
      <point x="679" y="-21"/>
      <point x="687" y="-21" type="curve" smooth="yes"/>
      <point x="696" y="-21"/>
      <point x="700" y="-17"/>
      <point x="705" y="-2" type="curve" smooth="yes"/>
      <point x="893" y="585" type="line" smooth="yes"/>
      <point x="909" y="633"/>
      <point x="938" y="653"/>
      <point x="988" y="654" type="curve"/>
      <point x="988" y="654" type="line"/>
      <point x="988" y="683" type="line"/>
      <point x="945" y="681"/>
      <point x="933" y="681"/>
      <point x="899" y="681" type="curve" smooth="yes"/>
      <point x="873" y="681"/>
      <point x="819" y="681"/>
      <point x="795" y="683" type="curve"/>
      <point x="795" y="654" type="line"/>
      <point x="856" y="653"/>
      <point x="874" y="621"/>
      <point x="874" y="601" type="curve" smooth="yes"/>
      <point x="874" y="596"/>
      <point x="871" y="588"/>
      <point x="869" y="581" type="curve" smooth="yes"/>
      <point x="717" y="107" type="line"/>
      <point x="555" y="610" type="line" smooth="yes"/>
      <point x="554" y="613"/>
      <point x="552" y="621"/>
      <point x="552" y="624" type="curve" smooth="yes"/>
      <point x="552" y="654"/>
      <point x="605" y="654"/>
      <point x="629" y="654" type="curve"/>
      <point x="629" y="683" type="line"/>
      <point x="605" y="681"/>
      <point x="531" y="681"/>
      <point x="502" y="681" type="curve" smooth="yes"/>
      <point x="473" y="681"/>
      <point x="412" y="681"/>
      <point x="386" y="683" type="curve"/>
      <point x="386" y="654" type="line"/>
      <point x="386" y="654" type="line"/>
      <point x="439" y="654"/>
      <point x="453" y="651"/>
      <point x="464" y="633" type="curve"/>
      <point x="471" y="620"/>
      <point x="478" y="589"/>
      <point x="491" y="553" type="curve"/>
    </contour>
  </outline>
</glyph>
<glyph name="X" format="2">
	<unicode hex="0058"/>
	<advance width="1468"/>
	<outline>
		<contour>
			<point x="782" y="768" type="line"/>
			<point x="1058" y="1170" type="line" smooth="yes"/>
			<point x="1092" y="1218"/>
			<point x="1150" y="1306"/>
			<point x="1340" y="1308" type="curve"/>
			<point x="1340" y="1308" type="line"/>
			<point x="1340" y="1366" type="line"/>
			<point x="1254" y="1362"/>
			<point x="1232" y="1362"/>
			<point x="1130" y="1362" type="curve" smooth="yes"/>
			<point x="1076" y="1362"/>
			<point x="948" y="1362"/>
			<point x="902" y="1366" type="curve"/>
			<point x="902" y="1308" type="line"/>
			<point x="984" y="1302"/>
			<point x="1010" y="1254"/>
			<point x="1010" y="1220" type="curve" smooth="yes"/>
			<point x="1010" y="1198"/>
			<point x="1002" y="1186"/>
			<point x="990" y="1168" type="curve" smooth="yes"/>
			<point x="750" y="816" type="line"/>
			<point x="480" y="1216" type="line" smooth="yes"/>
			<point x="474" y="1224"/>
			<point x="466" y="1238"/>
			<point x="466" y="1248" type="curve" smooth="yes"/>
			<point x="466" y="1276"/>
			<point x="508" y="1308"/>
			<point x="580" y="1308" type="curve"/>
			<point x="580" y="1366" type="line"/>
			<point x="532" y="1362"/>
			<point x="374" y="1362"/>
			<point x="316" y="1362" type="curve" smooth="yes"/>
			<point x="260" y="1362"/>
			<point x="120" y="1362"/>
			<point x="72" y="1366" type="curve"/>
			<point x="72" y="1308" type="line"/>
			<point x="72" y="1308" type="line"/>
			<point x="222" y="1308"/>
			<point x="242" y="1298"/>
			<point x="284" y="1234" type="curve" smooth="yes"/>
			<point x="658" y="680" type="line"/>
			<point x="322" y="190" type="line" smooth="yes"/>
			<point x="288" y="140"/>
			<point x="224" y="60"/>
			<point x="44" y="58" type="curve"/>
			<point x="44" y="58" type="line"/>
			<point x="44" y="0" type="line"/>
			<point x="130" y="4"/>
			<point x="152" y="4"/>
			<point x="254" y="4" type="curve" smooth="yes"/>
			<point x="308" y="4"/>
			<point x="438" y="4"/>
			<point x="484" y="0" type="curve"/>
			<point x="484" y="58" type="line"/>
			<point x="400" y="62"/>
			<point x="374" y="112"/>
			<point x="374" y="146" type="curve" smooth="yes"/>
			<point x="374" y="168"/>
			<point x="384" y="182"/>
			<point x="396" y="200" type="curve" smooth="yes"/>
			<point x="690" y="630" type="line"/>
			<point x="1014" y="146" type="line" smooth="yes"/>
			<point x="1026" y="128"/>
			<point x="1028" y="126"/>
			<point x="1028" y="118" type="curve" smooth="yes"/>
			<point x="1028" y="94"/>
			<point x="992" y="60"/>
			<point x="914" y="58" type="curve"/>
			<point x="914" y="0" type="line"/>
			<point x="962" y="4"/>
			<point x="1118" y="4"/>
			<point x="1176" y="4" type="curve" smooth="yes"/>
			<point x="1232" y="4"/>
			<point x="1374" y="4"/>
			<point x="1422" y="0" type="curve"/>
			<point x="1422" y="58" type="line"/>
			<point x="1422" y="58" type="line"/>
			<point x="1304" y="58"/>
			<point x="1256" y="58"/>
			<point x="1210" y="128" type="curve" smooth="yes"/>
		</contour>
	</outline>
</glyph>
<glyph name="Y" format="2">
	<unicode hex="0059"/>
	<advance width="1468"/>
	<outline>
		<contour>
			<point x="654" y="546" type="line"/>
			<point x="654" y="152" type="line" smooth="yes"/>
			<point x="654" y="78"/>
			<point x="648" y="58"/>
			<point x="504" y="58" type="curve" smooth="yes"/>
			<point x="464" y="58" type="line"/>
			<point x="464" y="0" type="line"/>
			<point x="510" y="4"/>
			<point x="674" y="4"/>
			<point x="732" y="4" type="curve" smooth="yes"/>
			<point x="790" y="4"/>
			<point x="954" y="4"/>
			<point x="1002" y="0" type="curve"/>
			<point x="1002" y="58" type="line"/>
			<point x="962" y="58" type="line" smooth="yes"/>
			<point x="816" y="58"/>
			<point x="812" y="78"/>
			<point x="812" y="148" type="curve" smooth="yes"/>
			<point x="812" y="548" type="line"/>
			<point x="1202" y="1178" type="line" smooth="yes"/>
			<point x="1268" y="1284"/>
			<point x="1360" y="1308"/>
			<point x="1446" y="1308" type="curve"/>
			<point x="1446" y="1308" type="line"/>
			<point x="1446" y="1366" type="line"/>
			<point x="1334" y="1362"/>
			<point x="1330" y="1362"/>
			<point x="1260" y="1362" type="curve" smooth="yes"/>
			<point x="1206" y="1362"/>
			<point x="1106" y="1362"/>
			<point x="1056" y="1366" type="curve"/>
			<point x="1056" y="1308" type="line"/>
			<point x="1114" y="1308"/>
			<point x="1156" y="1282"/>
			<point x="1156" y="1234" type="curve" smooth="yes"/>
			<point x="1156" y="1208"/>
			<point x="1152" y="1202"/>
			<point x="1132" y="1170" type="curve" smooth="yes"/>
			<point x="794" y="620" type="line"/>
			<point x="422" y="1222" type="line" smooth="yes"/>
			<point x="410" y="1242"/>
			<point x="406" y="1248"/>
			<point x="406" y="1260" type="curve" smooth="yes"/>
			<point x="406" y="1302"/>
			<point x="458" y="1308"/>
			<point x="530" y="1308" type="curve"/>
			<point x="530" y="1366" type="line"/>
			<point x="484" y="1362"/>
			<point x="322" y="1362"/>
			<point x="266" y="1362" type="curve" smooth="yes"/>
			<point x="210" y="1362"/>
			<point x="68" y="1362"/>
			<point x="20" y="1366" type="curve"/>
			<point x="20" y="1308" type="line"/>
			<point x="20" y="1308" type="line"/>
			<point x="162" y="1308"/>
			<point x="188" y="1302"/>
			<point x="232" y="1230" type="curve" smooth="yes"/>
		</contour>
	</outline>
</glyph>
<glyph name="Z" format="2">
	<unicode hex="005A"/>
	<advance width="1196"/>
	<outline>
		<contour>
			<point x="156" y="0" type="curve" smooth="yes"/>
			<point x="1064" y="0" type="line"/>
			<point x="1096" y="528" type="line"/>
			<point x="1052" y="528" type="line"/>
			<point x="1038" y="246"/>
			<point x="996" y="62"/>
			<point x="632" y="62" type="curve" smooth="yes"/>
			<point x="294" y="62" type="line"/>
			<point x="1070" y="1296" type="line" smooth="yes"/>
			<point x="1086" y="1322"/>
			<point x="1086" y="1324"/>
			<point x="1086" y="1338" type="curve" smooth="yes"/>
			<point x="1086" y="1366"/>
			<point x="1076" y="1366"/>
			<point x="1038" y="1366" type="curve" smooth="yes"/>
			<point x="158" y="1366" type="line"/>
			<point x="136" y="920" type="line"/>
			<point x="180" y="920" type="line"/>
			<point x="194" y="1146"/>
			<point x="256" y="1308"/>
			<point x="580" y="1308" type="curve" smooth="yes"/>
			<point x="900" y="1308" type="line"/>
			<point x="134" y="88" type="line"/>
			<point x="126" y="74"/>
			<point x="116" y="62"/>
			<point x="108" y="48" type="curve"/>
			<point x="108" y="2"/>
			<point x="110" y="0"/>
		</contour>
	</outline>
</glyph>
<glyph name="bracketleft" format="2">
	<unicode hex="005B"/>
	<advance width="271"/>
	<outline>
		<contour>
			<point x="250" y="713" type="line"/>
			<point x="250" y="750" type="line"/>
			<point x="116" y="750" type="line"/>
			<point x="116" y="-250" type="line"/>
			<point x="250" y="-250" type="line"/>
			<point x="250" y="-213" type="line"/>
			<point x="153" y="-213" type="line"/>
			<point x="153" y="713" type="line"/>
		</contour>
	</outline>
</glyph>
<glyph name="bracketright" format="2">
	<unicode hex="005D"/>
	<advance width="542"/>
	<outline>
		<contour>
			<point x="310" y="1500" type="line"/>
			<point x="42" y="1500" type="line"/>
			<point x="42" y="1426" type="line"/>
			<point x="236" y="1426" type="line"/>
			<point x="236" y="-426" type="line"/>
			<point x="42" y="-426" type="line"/>
			<point x="42" y="-500" type="line"/>
			<point x="310" y="-500" type="line"/>
		</contour>
	</outline>
</glyph>
<glyph name="grave" format="2">
  <advance width="489"/>
  <unicode hex="0060"/>
  <outline>
    <contour>
      <point x="271" y="511" type="line"/>
      <point x="287" y="526" type="line"/>
      <point x="168" y="680" type="line" smooth="yes"/>
      <point x="163" y="686"/>
      <point x="154" y="697"/>
      <point x="140" y="697" type="curve" smooth="yes"/>
      <point x="123" y="697"/>
      <point x="106" y="682"/>
      <point x="106" y="664" type="curve" smooth="yes"/>
      <point x="106" y="654"/>
      <point x="110" y="645"/>
      <point x="120" y="637" type="curve" smooth="yes"/>
    </contour>
  </outline>
</glyph>
<glyph name="a" format="2">
	<unicode hex="0061"/>
	<advance width="489"/>
	<outline>
		<contour>
			<point x="44" y="94" type="curve" smooth="yes"/>
			<point x="44" y="15"/>
			<point x="136" y="-10"/>
			<point x="197" y="-10" type="curve" smooth="yes"/>
			<point x="263" y="-10"/>
			<point x="308" y="30"/>
			<point x="327" y="78" type="curve"/>
			<point x="331" y="31"/>
			<point x="362" y="-5"/>
			<point x="405" y="-5" type="curve" smooth="yes"/>
			<point x="426" y="-5"/>
			<point x="484" y="9"/>
			<point x="484" y="89" type="curve" smooth="yes"/>
			<point x="484" y="145" type="line"/>
			<point x="462" y="145" type="line"/>
			<point x="462" y="89" type="line" smooth="yes"/>
			<point x="462" y="32"/>
			<point x="438" y="24"/>
			<point x="424" y="24" type="curve" smooth="yes"/>
			<point x="386" y="24"/>
			<point x="386" y="77"/>
			<point x="386" y="92" type="curve" smooth="yes"/>
			<point x="386" y="267" type="line" smooth="yes"/>
			<point x="386" y="321"/>
			<point x="386" y="361"/>
			<point x="342" y="400" type="curve" smooth="yes"/>
			<point x="307" y="432"/>
			<point x="262" y="446"/>
			<point x="218" y="446" type="curve" smooth="yes"/>
			<point x="136" y="446"/>
			<point x="73" y="392"/>
			<point x="73" y="327" type="curve" smooth="yes"/>
			<point x="73" y="298"/>
			<point x="92" y="284"/>
			<point x="115" y="284" type="curve" smooth="yes"/>
			<point x="139" y="284"/>
			<point x="156" y="301"/>
			<point x="156" y="325" type="curve" smooth="yes"/>
			<point x="156" y="366"/>
			<point x="120" y="366"/>
			<point x="105" y="366" type="curve"/>
			<point x="128" y="408"/>
			<point x="176" y="426"/>
			<point x="216" y="426" type="curve" smooth="yes"/>
			<point x="262" y="426"/>
			<point x="321" y="388"/>
			<point x="321" y="298" type="curve" smooth="yes"/>
			<point x="321" y="258" type="line"/>
			<point x="235.37601" y="256.72203"/>
			<point x="172.4354550125" y="240.7451941119"/>
			<point x="128.390471777" y="216.8721855383" type="curve" smooth="yes"/>
			<point x="69.0410484876" y="184.7039523607"/>
			<point x="44" y="138.19877"/>
		</contour>
		<contour>
			<point x="115" y="94" type="curve" smooth="yes"/>
			<point x="115" y="226"/>
			<point x="285" y="238"/>
			<point x="321" y="240" type="curve"/>
			<point x="321" y="141" type="line" smooth="yes"/>
			<point x="321" y="96.2238"/>
			<point x="305.76069447" y="65.01684465"/>
			<point x="285.1063626669" y="44.3269306857" type="curve" smooth="yes"/>
			<point x="260.5553283" y="19.73360113"/>
			<point x="228.3533" y="10"/>
			<point x="205" y="10" type="curve" smooth="yes"/>
			<point x="156" y="10"/>
			<point x="115" y="46"/>
		</contour>
	</outline>
</glyph>
<glyph name="b" format="2">
	<unicode hex="0062"/>
	<advance width="1086"/>
	<outline>
		<contour>
			<point x="208" y="0" type="line"/>
			<point x="252" y="0" type="line"/>
			<point x="276" y="43"/>
			<point x="300" y="87"/>
			<point x="324" y="130" type="curve"/>
			<point x="370" y="56"/>
			<point x="456" y="-20"/>
			<point x="584" y="-20" type="curve" smooth="yes"/>
			<point x="814" y="-20"/>
			<point x="1016" y="174"/>
			<point x="1016" y="432" type="curve" smooth="yes"/>
			<point x="1016" y="686"/>
			<point x="828" y="882"/>
			<point x="606" y="882" type="curve" smooth="yes"/>
			<point x="496" y="882"/>
			<point x="402" y="832"/>
			<point x="334" y="748" type="curve"/>
			<point x="334" y="1388" type="line"/>
			<point x="56" y="1366" type="line"/>
			<point x="56" y="1308" type="line"/>
			<point x="192" y="1308"/>
			<point x="208" y="1294"/>
			<point x="208" y="1196" type="curve" smooth="yes"/>
		</contour>
		<contour>
			<point x="576" y="20" type="curve" smooth="yes"/>
			<point x="468" y="20"/>
			<point x="398" y="90"/>
			<point x="364" y="144" type="curve" smooth="yes"/>
			<point x="338" y="186"/>
			<point x="338" y="194"/>
			<point x="338" y="228" type="curve" smooth="yes"/>
			<point x="338" y="640" type="line" smooth="yes"/>
			<point x="338" y="676"/>
			<point x="338" y="680"/>
			<point x="360" y="712" type="curve" smooth="yes"/>
			<point x="408" y="784"/>
			<point x="496" y="842"/>
			<point x="594" y="842" type="curve" smooth="yes"/>
			<point x="627" y="842"/>
			<point x="707" y="835"/>
			<point x="771" y="762" type="curve" smooth="yes"/>
			<point x="823" y="704"/>
			<point x="864" y="605"/>
			<point x="864" y="434" type="curve" smooth="yes"/>
			<point x="864" y="300"/>
			<point x="844" y="216"/>
			<point x="796" y="144" type="curve" smooth="yes"/>
			<point x="756" y="82"/>
			<point x="676" y="20"/>
		</contour>
	</outline>
</glyph>
<glyph name="c" format="2">
	<unicode hex="0063"/>
	<advance width="870"/>
	<outline>
		<contour>
			<point x="222" y="434" type="curve" smooth="yes"/>
			<point x="222" y="766"/>
			<point x="392" y="848"/>
			<point x="492" y="848" type="curve" smooth="yes"/>
			<point x="568" y="848"/>
			<point x="678" y="818"/>
			<point x="724" y="740" type="curve"/>
			<point x="700" y="740"/>
			<point x="626" y="740"/>
			<point x="626" y="658" type="curve" smooth="yes"/>
			<point x="626" y="610"/>
			<point x="660" y="576"/>
			<point x="708" y="576" type="curve" smooth="yes"/>
			<point x="754" y="576"/>
			<point x="792" y="604"/>
			<point x="792" y="662" type="curve" smooth="yes"/>
			<point x="792" y="796"/>
			<point x="652" y="892"/>
			<point x="490" y="892" type="curve" smooth="yes"/>
			<point x="256" y="892"/>
			<point x="70" y="684"/>
			<point x="70" y="432" type="curve" smooth="yes"/>
			<point x="70" y="176"/>
			<point x="262" y="-20"/>
			<point x="488" y="-20" type="curve" smooth="yes"/>
			<point x="752" y="-20"/>
			<point x="812" y="220"/>
			<point x="812" y="238" type="curve" smooth="yes"/>
			<point x="812" y="256"/>
			<point x="798" y="256"/>
			<point x="792" y="256" type="curve" smooth="yes"/>
			<point x="774" y="256"/>
			<point x="772" y="250"/>
			<point x="766" y="226" type="curve"/>
			<point x="722" y="84"/>
			<point x="614" y="24"/>
			<point x="506" y="24" type="curve" smooth="yes"/>
			<point x="384" y="24"/>
			<point x="222" y="130"/>
		</contour>
	</outline>
</glyph>
<glyph name="d" format="2">
	<unicode hex="0064"/>
	<advance width="1086"/>
	<outline>
		<contour>
			<point x="748" y="118" type="curve"/>
			<point x="748" y="-20" type="line"/>
			<point x="1030" y="0" type="line"/>
			<point x="1030" y="58" type="line"/>
			<point x="894" y="58"/>
			<point x="878" y="72"/>
			<point x="878" y="170" type="curve" smooth="yes"/>
			<point x="878" y="1388" type="line"/>
			<point x="600" y="1366" type="line"/>
			<point x="600" y="1308" type="line"/>
			<point x="736" y="1308"/>
			<point x="752" y="1294"/>
			<point x="752" y="1196" type="curve" smooth="yes"/>
			<point x="752" y="754" type="line"/>
			<point x="710" y="812"/>
			<point x="624" y="882"/>
			<point x="502" y="882" type="curve" smooth="yes"/>
			<point x="270" y="882"/>
			<point x="70" y="686"/>
			<point x="70" y="430" type="curve" smooth="yes"/>
			<point x="70" y="176"/>
			<point x="260" y="-20"/>
			<point x="480" y="-20" type="curve" smooth="yes"/>
			<point x="632" y="-20"/>
			<point x="720" y="80"/>
		</contour>
		<contour>
			<point x="222" y="428" type="curve" smooth="yes"/>
			<point x="222" y="572"/>
			<point x="246" y="652"/>
			<point x="290" y="718" type="curve" smooth="yes"/>
			<point x="330" y="780"/>
			<point x="410" y="842"/>
			<point x="510" y="842" type="curve" smooth="yes"/>
			<point x="634" y="842"/>
			<point x="704" y="752"/>
			<point x="724" y="720" type="curve"/>
			<point x="748" y="686"/>
			<point x="748" y="682"/>
			<point x="748" y="646" type="curve" smooth="yes"/>
			<point x="748" y="234" type="line" smooth="yes"/>
			<point x="748" y="198"/>
			<point x="748" y="192"/>
			<point x="720" y="148" type="curve" smooth="yes"/>
			<point x="672" y="78"/>
			<point x="590" y="20"/>
			<point x="490" y="20" type="curve" smooth="yes"/>
			<point x="462" y="20"/>
			<point x="389" y="26"/>
			<point x="326" y="89" type="curve" smooth="yes"/>
			<point x="270" y="145"/>
			<point x="222" y="246"/>
		</contour>
	</outline>
</glyph>
<glyph name="e" format="2">
	<unicode hex="0065"/>
	<advance width="870"/>
	<outline>
		<contour>
			<point x="212" y="464" type="curve"/>
			<point x="766" y="464" type="line" smooth="yes"/>
			<point x="810" y="464"/>
			<point x="814" y="464"/>
			<point x="814" y="502" type="curve" smooth="yes"/>
			<point x="814" y="704"/>
			<point x="706" y="892"/>
			<point x="464" y="892" type="curve" smooth="yes"/>
			<point x="236" y="892"/>
			<point x="60" y="686"/>
			<point x="60" y="438" type="curve" smooth="yes"/>
			<point x="60" y="174"/>
			<point x="264" y="-20"/>
			<point x="486" y="-20" type="curve" smooth="yes"/>
			<point x="724" y="-20"/>
			<point x="814" y="196"/>
			<point x="814" y="238" type="curve" smooth="yes"/>
			<point x="814" y="250"/>
			<point x="804" y="258"/>
			<point x="792" y="258" type="curve" smooth="yes"/>
			<point x="776" y="258"/>
			<point x="772" y="248"/>
			<point x="768" y="238" type="curve"/>
			<point x="716" y="70"/>
			<point x="582" y="24"/>
			<point x="498" y="24" type="curve" smooth="yes"/>
			<point x="455" y="24"/>
			<point x="379" y="39"/>
			<point x="317" y="101" type="curve" smooth="yes"/>
			<point x="259" y="160"/>
			<point x="212" y="259"/>
		</contour>
		<contour>
			<point x="214" y="502" type="line"/>
			<point x="230" y="816"/>
			<point x="406" y="852"/>
			<point x="462" y="852" type="curve" smooth="yes"/>
			<point x="676" y="852"/>
			<point x="688" y="570"/>
			<point x="690" y="502" type="curve"/>
		</contour>
	</outline>
</glyph>
<glyph name="f" format="2">
	<unicode hex="0066"/>
	<advance width="598"/>
	<outline>
		<contour>
			<point x="218" y="148" type="line" smooth="yes"/>
			<point x="218" y="58"/>
			<point x="196" y="58"/>
			<point x="66" y="58" type="curve"/>
			<point x="66" y="58" type="line"/>
			<point x="66" y="0" type="line"/>
			<point x="122" y="4"/>
			<point x="232" y="4"/>
			<point x="292" y="4" type="curve" smooth="yes"/>
			<point x="346" y="4"/>
			<point x="488" y="4"/>
			<point x="534" y="0" type="curve"/>
			<point x="534" y="58" type="line"/>
			<point x="494" y="58" type="line" smooth="yes"/>
			<point x="348" y="58"/>
			<point x="344" y="80"/>
			<point x="344" y="152" type="curve" smooth="yes"/>
			<point x="344" y="804" type="line"/>
			<point x="570" y="804" type="line"/>
			<point x="570" y="862" type="line"/>
			<point x="340" y="862" type="line"/>
			<point x="340" y="1096" type="line" smooth="yes"/>
			<point x="340" y="1276"/>
			<point x="432" y="1368"/>
			<point x="514" y="1368" type="curve" smooth="yes"/>
			<point x="530" y="1368"/>
			<point x="560" y="1364"/>
			<point x="584" y="1352" type="curve"/>
			<point x="576" y="1350"/>
			<point x="526" y="1332"/>
			<point x="526" y="1274" type="curve" smooth="yes"/>
			<point x="526" y="1228"/>
			<point x="558" y="1196"/>
			<point x="604" y="1196" type="curve" smooth="yes"/>
			<point x="652" y="1196"/>
			<point x="684" y="1228"/>
			<point x="684" y="1276" type="curve" smooth="yes"/>
			<point x="684" y="1350"/>
			<point x="612" y="1408"/>
			<point x="516" y="1408" type="curve" smooth="yes"/>
			<point x="376" y="1408"/>
			<point x="218" y="1300"/>
			<point x="218" y="1096" type="curve" smooth="yes"/>
			<point x="218" y="862" type="line"/>
			<point x="62" y="862" type="line"/>
			<point x="62" y="804" type="line"/>
			<point x="218" y="804" type="line"/>
		</contour>
	</outline>
</glyph>
<glyph name="g" format="2">
	<unicode hex="0067"/>
	<advance width="978"/>
	<outline>
		<contour>
			<point x="488" y="-410" type="curve" smooth="yes"/>
			<point x="726" y="-410"/>
			<point x="924" y="-304"/>
			<point x="924" y="-154" type="curve" smooth="yes"/>
			<point x="924" y="-104"/>
			<point x="910" y="14"/>
			<point x="790" y="76" type="curve" smooth="yes"/>
			<point x="688" y="128"/>
			<point x="588" y="128"/>
			<point x="416" y="128" type="curve" smooth="yes"/>
			<point x="294" y="128"/>
			<point x="280" y="128"/>
			<point x="244" y="166" type="curve" smooth="yes"/>
			<point x="224" y="186"/>
			<point x="206" y="224"/>
			<point x="206" y="266" type="curve" smooth="yes"/>
			<point x="206" y="300"/>
			<point x="218" y="334"/>
			<point x="238" y="362" type="curve"/>
			<point x="332" y="300"/>
			<point x="412" y="300"/>
			<point x="434" y="300" type="curve" smooth="yes"/>
			<point x="614" y="300"/>
			<point x="748" y="436"/>
			<point x="748" y="590" type="curve" smooth="yes"/>
			<point x="748" y="644"/>
			<point x="732" y="720"/>
			<point x="668" y="784" type="curve"/>
			<point x="748" y="868"/>
			<point x="858" y="870"/>
			<point x="876" y="860" type="curve"/>
			<point x="856" y="852"/>
			<point x="846" y="832"/>
			<point x="846" y="810" type="curve" smooth="yes"/>
			<point x="846" y="782"/>
			<point x="866" y="758"/>
			<point x="898" y="758" type="curve" smooth="yes"/>
			<point x="914" y="758"/>
			<point x="950" y="768"/>
			<point x="950" y="812" type="curve" smooth="yes"/>
			<point x="950" y="848"/>
			<point x="922" y="904"/>
			<point x="852" y="904" type="curve" smooth="yes"/>
			<point x="748" y="904"/>
			<point x="670" y="840"/>
			<point x="642" y="810" type="curve"/>
			<point x="582" y="856"/>
			<point x="512" y="882"/>
			<point x="436" y="882" type="curve" smooth="yes"/>
			<point x="256" y="882"/>
			<point x="122" y="746"/>
			<point x="122" y="592" type="curve" smooth="yes"/>
			<point x="122" y="478"/>
			<point x="192" y="404"/>
			<point x="212" y="386" type="curve"/>
			<point x="188" y="356"/>
			<point x="152" y="298"/>
			<point x="152" y="220" type="curve" smooth="yes"/>
			<point x="152" y="104"/>
			<point x="222" y="54"/>
			<point x="238" y="44" type="curve"/>
			<point x="146" y="18"/>
			<point x="54" y="-54"/>
			<point x="54" y="-158" type="curve" smooth="yes"/>
			<point x="54" y="-296"/>
			<point x="242" y="-410"/>
		</contour>
		<contour>
			<point x="436" y="342" type="curve" smooth="yes"/>
			<point x="260" y="342"/>
			<point x="260" y="544"/>
			<point x="260" y="590" type="curve" smooth="yes"/>
			<point x="260" y="626"/>
			<point x="260" y="708"/>
			<point x="294" y="762" type="curve" smooth="yes"/>
			<point x="332" y="820"/>
			<point x="392" y="840"/>
			<point x="434" y="840" type="curve" smooth="yes"/>
			<point x="610" y="840"/>
			<point x="610" y="638"/>
			<point x="610" y="592" type="curve" smooth="yes"/>
			<point x="610" y="556"/>
			<point x="610" y="474"/>
			<point x="576" y="420" type="curve" smooth="yes"/>
			<point x="538" y="362"/>
			<point x="478" y="342"/>
		</contour>
		<contour>
			<point x="490" y="-368" type="curve" smooth="yes"/>
			<point x="298" y="-368"/>
			<point x="152" y="-270"/>
			<point x="152" y="-156" type="curve" smooth="yes"/>
			<point x="152" y="-140"/>
			<point x="156" y="-62"/>
			<point x="232" y="-10" type="curve" smooth="yes"/>
			<point x="276" y="18"/>
			<point x="294" y="18"/>
			<point x="434" y="18" type="curve" smooth="yes"/>
			<point x="434" y="18" type="line" smooth="yes"/>
			<point x="600" y="18"/>
			<point x="826" y="18"/>
			<point x="826" y="-156" type="curve" smooth="yes"/>
			<point x="826" y="-274"/>
			<point x="674" y="-368"/>
		</contour>
	</outline>
</glyph>
<glyph name="h" format="2">
	<unicode hex="0068"/>
	<advance width="1086"/>
	<outline>
		<contour>
			<point x="216" y="148" type="line" smooth="yes"/>
			<point x="216" y="58"/>
			<point x="194" y="58"/>
			<point x="64" y="58" type="curve"/>
			<point x="64" y="58" type="line"/>
			<point x="64" y="0" type="line"/>
			<point x="116" y="4"/>
			<point x="224" y="4"/>
			<point x="280" y="4" type="curve" smooth="yes"/>
			<point x="338" y="4"/>
			<point x="446" y="4"/>
			<point x="498" y="0" type="curve"/>
			<point x="498" y="58" type="line"/>
			<point x="498" y="58" type="line"/>
			<point x="370" y="58"/>
			<point x="346" y="58"/>
			<point x="346" y="148" type="curve" smooth="yes"/>
			<point x="346" y="520" type="line" smooth="yes"/>
			<point x="346" y="730"/>
			<point x="484" y="842"/>
			<point x="608" y="842" type="curve" smooth="yes"/>
			<point x="732" y="842"/>
			<point x="760" y="740"/>
			<point x="760" y="618" type="curve" smooth="yes"/>
			<point x="760" y="148" type="line" smooth="yes"/>
			<point x="760" y="58"/>
			<point x="738" y="58"/>
			<point x="608" y="58" type="curve"/>
			<point x="608" y="58" type="line"/>
			<point x="608" y="0" type="line"/>
			<point x="660" y="4"/>
			<point x="768" y="4"/>
			<point x="824" y="4" type="curve" smooth="yes"/>
			<point x="882" y="4"/>
			<point x="990" y="4"/>
			<point x="1042" y="0" type="curve"/>
			<point x="1042" y="58" type="line"/>
			<point x="1042" y="58" type="line"/>
			<point x="942" y="58"/>
			<point x="892" y="58"/>
			<point x="890" y="118" type="curve" smooth="yes"/>
			<point x="890" y="486" type="line" smooth="yes"/>
			<point x="890" y="672"/>
			<point x="890" y="728"/>
			<point x="844" y="792" type="curve" smooth="yes"/>
			<point x="786" y="870"/>
			<point x="692" y="882"/>
			<point x="624" y="882" type="curve" smooth="yes"/>
			<point x="452" y="882"/>
			<point x="372" y="752"/>
			<point x="344" y="690" type="curve"/>
			<point x="342" y="690" type="line"/>
			<point x="342" y="1388" type="line"/>
			<point x="64" y="1366" type="line"/>
			<point x="64" y="1308" type="line"/>
			<point x="200" y="1308"/>
			<point x="216" y="1294"/>
			<point x="216" y="1196" type="curve" smooth="yes"/>
		</contour>
	</outline>
</glyph>
<glyph name="i" format="2">
	<unicode hex="0069"/>
	<advance width="542"/>
	<outline>
		<contour>
			<point x="218" y="148" type="line" smooth="yes"/>
			<point x="218" y="58"/>
			<point x="196" y="58"/>
			<point x="66" y="58" type="curve"/>
			<point x="66" y="58" type="line"/>
			<point x="66" y="0" type="line"/>
			<point x="122" y="4"/>
			<point x="218" y="4"/>
			<point x="276" y="4" type="curve" smooth="yes"/>
			<point x="298" y="4"/>
			<point x="414" y="4"/>
			<point x="482" y="0" type="curve"/>
			<point x="482" y="58" type="line"/>
			<point x="352" y="58"/>
			<point x="344" y="68"/>
			<point x="344" y="146" type="curve" smooth="yes"/>
			<point x="344" y="882" type="line"/>
			<point x="72" y="860" type="line"/>
			<point x="72" y="802" type="line"/>
			<point x="200" y="802"/>
			<point x="218" y="790"/>
			<point x="218" y="692" type="curve" smooth="yes"/>
		</contour>
		<contour>
			<point x="348" y="1232" type="curve" smooth="yes"/>
			<point x="348" y="1284"/>
			<point x="306" y="1330"/>
			<point x="250" y="1330" type="curve" smooth="yes"/>
			<point x="198" y="1330"/>
			<point x="154" y="1288"/>
			<point x="154" y="1234" type="curve" smooth="yes"/>
			<point x="154" y="1174"/>
			<point x="202" y="1136"/>
			<point x="250" y="1136" type="curve" smooth="yes"/>
			<point x="312" y="1136"/>
			<point x="348" y="1188"/>
		</contour>
	</outline>
</glyph>
<glyph name="k" format="2">
	<unicode hex="006B"/>
	<advance width="516"/>
	<outline>
		<contour>
			<point x="273" y="275" type="line"/>
			<point x="331" y="329" type="line" smooth="yes"/>
			<point x="411" y="402"/>
			<point x="457" y="401"/>
			<point x="478" y="402" type="curve"/>
			<point x="478" y="431" type="line"/>
			<point x="458" y="429"/>
			<point x="432" y="429"/>
			<point x="402" y="429" type="curve" smooth="yes"/>
			<point x="376" y="429"/>
			<point x="325" y="429"/>
			<point x="302" y="431" type="curve"/>
			<point x="302" y="402" type="line"/>
			<point x="319" y="401"/>
			<point x="331" y="392"/>
			<point x="331" y="376" type="curve" smooth="yes"/>
			<point x="331" y="356"/>
			<point x="311" y="338"/>
			<point x="310" y="338" type="curve"/>
			<point x="167" y="212" type="line"/>
			<point x="167" y="694" type="line"/>
			<point x="28" y="683" type="line"/>
			<point x="28" y="654" type="line"/>
			<point x="96" y="654"/>
			<point x="104" y="647"/>
			<point x="104" y="598" type="curve" smooth="yes"/>
			<point x="104" y="74" type="line" smooth="yes"/>
			<point x="104" y="29"/>
			<point x="93" y="29"/>
			<point x="28" y="29" type="curve"/>
			<point x="28" y="29" type="line"/>
			<point x="28" y="0" type="line"/>
			<point x="56" y="2"/>
			<point x="104" y="2"/>
			<point x="134" y="2" type="curve" smooth="yes"/>
			<point x="164" y="2"/>
			<point x="212" y="2"/>
			<point x="240" y="0" type="curve"/>
			<point x="240" y="29" type="line"/>
			<point x="240" y="29" type="line"/>
			<point x="176" y="29"/>
			<point x="164" y="29"/>
			<point x="164" y="74" type="curve" smooth="yes"/>
			<point x="164" y="180" type="line"/>
			<point x="185.312" y="198.648"/>
			<point x="206.624" y="217.296"/>
			<point x="228" y="236" type="curve"/>
			<point x="324" y="98" type="line" smooth="yes"/>
			<point x="339" y="77"/>
			<point x="346" y="66"/>
			<point x="346" y="52" type="curve" smooth="yes"/>
			<point x="346" y="34"/>
			<point x="332" y="29"/>
			<point x="311" y="29" type="curve"/>
			<point x="311" y="0" type="line"/>
			<point x="336" y="2"/>
			<point x="385" y="2"/>
			<point x="412" y="2" type="curve" smooth="yes"/>
			<point x="455" y="2"/>
			<point x="457" y="2"/>
			<point x="500" y="0" type="curve"/>
			<point x="500" y="29" type="line"/>
			<point x="473" y="29"/>
			<point x="442" y="29"/>
			<point x="414" y="70" type="curve" smooth="yes"/>
		</contour>
	</outline>
</glyph>
<glyph name="l" format="2">
	<unicode hex="006C"/>
	<advance width="271"/>
	<outline>
		<contour>
			<point x="172" y="694" type="line"/>
			<point x="33" y="683" type="line"/>
			<point x="33" y="654" type="line"/>
			<point x="101" y="654"/>
			<point x="109" y="647"/>
			<point x="109" y="598" type="curve" smooth="yes"/>
			<point x="109" y="74" type="line" smooth="yes"/>
			<point x="109" y="29"/>
			<point x="98" y="29"/>
			<point x="33" y="29" type="curve"/>
			<point x="33" y="29" type="line"/>
			<point x="33" y="0" type="line"/>
			<point x="61" y="2"/>
			<point x="110" y="2"/>
			<point x="140" y="2" type="curve" smooth="yes"/>
			<point x="170" y="2"/>
			<point x="220" y="2"/>
			<point x="248" y="0" type="curve"/>
			<point x="248" y="29" type="line"/>
			<point x="248" y="29" type="line"/>
			<point x="184" y="29"/>
			<point x="172" y="29"/>
			<point x="172" y="74" type="curve" smooth="yes"/>
		</contour>
	</outline>
</glyph>
<glyph name="m" format="2">
	<unicode hex="006D"/>
	<advance width="1630"/>
	<outline>
		<contour>
			<point x="216" y="148" type="line" smooth="yes"/>
			<point x="216" y="58"/>
			<point x="194" y="58"/>
			<point x="64" y="58" type="curve"/>
			<point x="64" y="58" type="line"/>
			<point x="64" y="0" type="line"/>
			<point x="116" y="4"/>
			<point x="224" y="4"/>
			<point x="280" y="4" type="curve" smooth="yes"/>
			<point x="338" y="4"/>
			<point x="446" y="4"/>
			<point x="498" y="0" type="curve"/>
			<point x="498" y="58" type="line"/>
			<point x="498" y="58" type="line"/>
			<point x="370" y="58"/>
			<point x="346" y="58"/>
			<point x="346" y="148" type="curve" smooth="yes"/>
			<point x="346" y="520" type="line" smooth="yes"/>
			<point x="346" y="730"/>
			<point x="484" y="842"/>
			<point x="608" y="842" type="curve" smooth="yes"/>
			<point x="732" y="842"/>
			<point x="760" y="740"/>
			<point x="760" y="618" type="curve" smooth="yes"/>
			<point x="760" y="148" type="line" smooth="yes"/>
			<point x="760" y="58"/>
			<point x="738" y="58"/>
			<point x="608" y="58" type="curve"/>
			<point x="608" y="58" type="line"/>
			<point x="608" y="0" type="line"/>
			<point x="660" y="4"/>
			<point x="768" y="4"/>
			<point x="824" y="4" type="curve" smooth="yes"/>
			<point x="882" y="4"/>
			<point x="990" y="4"/>
			<point x="1042" y="0" type="curve"/>
			<point x="1042" y="58" type="line"/>
			<point x="1042" y="58" type="line"/>
			<point x="914" y="58"/>
			<point x="890" y="58"/>
			<point x="890" y="148" type="curve" smooth="yes"/>
			<point x="890" y="520" type="line" smooth="yes"/>
			<point x="890" y="730"/>
			<point x="1028" y="842"/>
			<point x="1152" y="842" type="curve" smooth="yes"/>
			<point x="1276" y="842"/>
			<point x="1304" y="740"/>
			<point x="1304" y="618" type="curve" smooth="yes"/>
			<point x="1304" y="148" type="line" smooth="yes"/>
			<point x="1304" y="58"/>
			<point x="1282" y="58"/>
			<point x="1152" y="58" type="curve"/>
			<point x="1152" y="58" type="line"/>
			<point x="1152" y="0" type="line"/>
			<point x="1204" y="4"/>
			<point x="1312" y="4"/>
			<point x="1368" y="4" type="curve" smooth="yes"/>
			<point x="1426" y="4"/>
			<point x="1534" y="4"/>
			<point x="1586" y="0" type="curve"/>
			<point x="1586" y="58" type="line"/>
			<point x="1586" y="58" type="line"/>
			<point x="1486" y="58"/>
			<point x="1436" y="58"/>
			<point x="1434" y="118" type="curve" smooth="yes"/>
			<point x="1434" y="486" type="line" smooth="yes"/>
			<point x="1434" y="672"/>
			<point x="1434" y="728"/>
			<point x="1388" y="792" type="curve" smooth="yes"/>
			<point x="1330" y="870"/>
			<point x="1236" y="882"/>
			<point x="1168" y="882" type="curve" smooth="yes"/>
			<point x="1002" y="882"/>
			<point x="918" y="762"/>
			<point x="886" y="684" type="curve"/>
			<point x="858" y="838"/>
			<point x="750" y="882"/>
			<point x="624" y="882" type="curve" smooth="yes"/>
			<point x="430" y="882"/>
			<point x="354" y="716"/>
			<point x="338" y="676" type="curve"/>
			<point x="336" y="676" type="line"/>
			<point x="336" y="882" type="line"/>
			<point x="64" y="860" type="line"/>
			<point x="64" y="802" type="line"/>
			<point x="200" y="802"/>
			<point x="216" y="788"/>
			<point x="216" y="690" type="curve" smooth="yes"/>
		</contour>
	</outline>
</glyph>
<glyph name="n" format="2">
	<unicode hex="006E"/>
	<advance width="1086"/>
	<outline>
		<contour>
			<point x="216" y="148" type="line" smooth="yes"/>
			<point x="216" y="58"/>
			<point x="194" y="58"/>
			<point x="64" y="58" type="curve"/>
			<point x="64" y="58" type="line"/>
			<point x="64" y="0" type="line"/>
			<point x="116" y="4"/>
			<point x="224" y="4"/>
			<point x="280" y="4" type="curve" smooth="yes"/>
			<point x="338" y="4"/>
			<point x="446" y="4"/>
			<point x="498" y="0" type="curve"/>
			<point x="498" y="58" type="line"/>
			<point x="498" y="58" type="line"/>
			<point x="370" y="58"/>
			<point x="346" y="58"/>
			<point x="346" y="148" type="curve" smooth="yes"/>
			<point x="346" y="520" type="line" smooth="yes"/>
			<point x="346" y="730"/>
			<point x="484" y="842"/>
			<point x="608" y="842" type="curve" smooth="yes"/>
			<point x="732" y="842"/>
			<point x="760" y="740"/>
			<point x="760" y="618" type="curve" smooth="yes"/>
			<point x="760" y="148" type="line" smooth="yes"/>
			<point x="760" y="58"/>
			<point x="738" y="58"/>
			<point x="608" y="58" type="curve"/>
			<point x="608" y="58" type="line"/>
			<point x="608" y="0" type="line"/>
			<point x="660" y="4"/>
			<point x="768" y="4"/>
			<point x="824" y="4" type="curve" smooth="yes"/>
			<point x="882" y="4"/>
			<point x="990" y="4"/>
			<point x="1042" y="0" type="curve"/>
			<point x="1042" y="58" type="line"/>
			<point x="1042" y="58" type="line"/>
			<point x="942" y="58"/>
			<point x="892" y="58"/>
			<point x="890" y="118" type="curve" smooth="yes"/>
			<point x="890" y="486" type="line" smooth="yes"/>
			<point x="890" y="672"/>
			<point x="890" y="728"/>
			<point x="844" y="792" type="curve" smooth="yes"/>
			<point x="786" y="870"/>
			<point x="692" y="882"/>
			<point x="624" y="882" type="curve" smooth="yes"/>
			<point x="430" y="882"/>
			<point x="354" y="716"/>
			<point x="338" y="676" type="curve"/>
			<point x="336" y="676" type="line"/>
			<point x="336" y="882" type="line"/>
			<point x="64" y="860" type="line"/>
			<point x="64" y="802" type="line"/>
			<point x="200" y="802"/>
			<point x="216" y="788"/>
			<point x="216" y="690" type="curve" smooth="yes"/>
		</contour>
	</outline>
</glyph>
<glyph name="o" format="2">
	<unicode hex="006F"/>
	<advance width="978"/>
	<outline>
		<contour>
			<point x="918" y="428" type="curve" smooth="yes"/>
			<point x="918" y="686"/>
			<point x="722" y="892"/>
			<point x="490" y="892" type="curve" smooth="yes"/>
			<point x="250" y="892"/>
			<point x="60" y="680"/>
			<point x="60" y="428" type="curve" smooth="yes"/>
			<point x="60" y="172"/>
			<point x="260" y="-20"/>
			<point x="488" y="-20" type="curve" smooth="yes"/>
			<point x="724" y="-20"/>
			<point x="918" y="176"/>
		</contour>
		<contour>
			<point x="490" y="24" type="curve" smooth="yes"/>
			<point x="416" y="24"/>
			<point x="326" y="56"/>
			<point x="268" y="154" type="curve" smooth="yes"/>
			<point x="214" y="244"/>
			<point x="212" y="362"/>
			<point x="212" y="446" type="curve" smooth="yes"/>
			<point x="212" y="522"/>
			<point x="212" y="644"/>
			<point x="274" y="734" type="curve" smooth="yes"/>
			<point x="330" y="820"/>
			<point x="418" y="852"/>
			<point x="488" y="852" type="curve" smooth="yes"/>
			<point x="566" y="852"/>
			<point x="650" y="816"/>
			<point x="704" y="738" type="curve" smooth="yes"/>
			<point x="766" y="646"/>
			<point x="766" y="520"/>
			<point x="766" y="446" type="curve" smooth="yes"/>
			<point x="766" y="376"/>
			<point x="766" y="252"/>
			<point x="714" y="158" type="curve" smooth="yes"/>
			<point x="658" y="62"/>
			<point x="566" y="24"/>
		</contour>
	</outline>
</glyph>
<glyph name="p" format="2">
	<unicode hex="0070"/>
	<advance width="1086"/>
	<outline>
		<contour>
			<point x="56" y="802" type="line"/>
			<point x="56" y="802" type="line"/>
			<point x="196" y="802"/>
			<point x="208" y="788"/>
			<point x="208" y="700" type="curve" smooth="yes"/>
			<point x="208" y="-240" type="line" smooth="yes"/>
			<point x="208" y="-330"/>
			<point x="186" y="-330"/>
			<point x="56" y="-330" type="curve"/>
			<point x="56" y="-330" type="line"/>
			<point x="56" y="-388" type="line"/>
			<point x="108" y="-384"/>
			<point x="216" y="-384"/>
			<point x="272" y="-384" type="curve" smooth="yes"/>
			<point x="330" y="-384"/>
			<point x="438" y="-384"/>
			<point x="490" y="-388" type="curve"/>
			<point x="490" y="-330" type="line"/>
			<point x="362" y="-330"/>
			<point x="338" y="-330"/>
			<point x="338" y="-240" type="curve" smooth="yes"/>
			<point x="338" y="108" type="line"/>
			<point x="374" y="58"/>
			<point x="456" y="-20"/>
			<point x="584" y="-20" type="curve" smooth="yes"/>
			<point x="814" y="-20"/>
			<point x="1016" y="174"/>
			<point x="1016" y="432" type="curve" smooth="yes"/>
			<point x="1016" y="686"/>
			<point x="828" y="882"/>
			<point x="610" y="882" type="curve" smooth="yes"/>
			<point x="434" y="882"/>
			<point x="340" y="756"/>
			<point x="334" y="748" type="curve"/>
			<point x="334" y="882" type="line"/>
			<point x="56" y="860" type="line"/>
		</contour>
		<contour>
			<point x="864" y="432" type="curve" smooth="yes"/>
			<point x="864" y="194"/>
			<point x="728" y="20"/>
			<point x="574" y="20" type="curve" smooth="yes"/>
			<point x="512" y="20"/>
			<point x="454" y="46"/>
			<point x="414" y="84" type="curve" smooth="yes"/>
			<point x="368" y="130"/>
			<point x="338" y="170"/>
			<point x="338" y="226" type="curve" smooth="yes"/>
			<point x="338" y="638" type="line" smooth="yes"/>
			<point x="338" y="676"/>
			<point x="338" y="678"/>
			<point x="360" y="710" type="curve" smooth="yes"/>
			<point x="420" y="800"/>
			<point x="518" y="838"/>
			<point x="594" y="838" type="curve" smooth="yes"/>
			<point x="744" y="838"/>
			<point x="864" y="656"/>
		</contour>
	</outline>
</glyph>
<glyph name="q" format="2">
	<unicode hex="0071"/>
	<advance width="1032"/>
	<outline>
		<contour>
			<point x="70" y="430" type="curve" smooth="yes"/>
			<point x="70" y="176"/>
			<point x="262" y="-20"/>
			<point x="480" y="-20" type="curve" smooth="yes"/>
			<point x="588" y="-20"/>
			<point x="676" y="30"/>
			<point x="748" y="130" type="curve"/>
			<point x="748" y="-240" type="line" smooth="yes"/>
			<point x="748" y="-330"/>
			<point x="726" y="-330"/>
			<point x="596" y="-330" type="curve"/>
			<point x="596" y="-330" type="line"/>
			<point x="596" y="-388" type="line"/>
			<point x="648" y="-384"/>
			<point x="756" y="-384"/>
			<point x="812" y="-384" type="curve" smooth="yes"/>
			<point x="870" y="-384"/>
			<point x="978" y="-384"/>
			<point x="1030" y="-388" type="curve"/>
			<point x="1030" y="-330" type="line"/>
			<point x="1030" y="-330" type="line"/>
			<point x="902" y="-330"/>
			<point x="878" y="-330"/>
			<point x="878" y="-240" type="curve" smooth="yes"/>
			<point x="878" y="882" type="line"/>
			<point x="838" y="882" type="line"/>
			<point x="764" y="696" type="line"/>
			<point x="728" y="772"/>
			<point x="650" y="882"/>
			<point x="498" y="882" type="curve" smooth="yes"/>
			<point x="278" y="882"/>
			<point x="70" y="694"/>
		</contour>
		<contour>
			<point x="222" y="430" type="curve" smooth="yes"/>
			<point x="222" y="670"/>
			<point x="362" y="838"/>
			<point x="510" y="838" type="curve" smooth="yes"/>
			<point x="668" y="838"/>
			<point x="752" y="666"/>
			<point x="752" y="562" type="curve" smooth="yes"/>
			<point x="752" y="268" type="line" smooth="yes"/>
			<point x="752" y="204"/>
			<point x="716" y="146"/>
			<point x="670" y="100" type="curve" smooth="yes"/>
			<point x="598" y="26"/>
			<point x="522" y="20"/>
			<point x="492" y="20" type="curve" smooth="yes"/>
			<point x="340" y="20"/>
			<point x="222" y="208"/>
		</contour>
	</outline>
</glyph>
<glyph name="r" format="2">
	<unicode hex="0072"/>
	<advance width="760"/>
	<outline>
		<contour>
			<point x="208" y="148" type="line" smooth="yes"/>
			<point x="208" y="58"/>
			<point x="186" y="58"/>
			<point x="56" y="58" type="curve"/>
			<point x="56" y="58" type="line"/>
			<point x="56" y="0" type="line"/>
			<point x="112" y="4"/>
			<point x="222" y="4"/>
			<point x="282" y="4" type="curve" smooth="yes"/>
			<point x="336" y="4"/>
			<point x="478" y="4"/>
			<point x="524" y="0" type="curve"/>
			<point x="524" y="58" type="line"/>
			<point x="484" y="58" type="line" smooth="yes"/>
			<point x="338" y="58"/>
			<point x="334" y="80"/>
			<point x="334" y="152" type="curve" smooth="yes"/>
			<point x="334" y="466" type="line" smooth="yes"/>
			<point x="334" y="660"/>
			<point x="414" y="842"/>
			<point x="568" y="842" type="curve" smooth="yes"/>
			<point x="584" y="842"/>
			<point x="588" y="842"/>
			<point x="596" y="840" type="curve"/>
			<point x="580" y="832"/>
			<point x="548" y="820"/>
			<point x="548" y="766" type="curve" smooth="yes"/>
			<point x="548" y="708"/>
			<point x="594" y="686"/>
			<point x="626" y="686" type="curve" smooth="yes"/>
			<point x="666" y="686"/>
			<point x="706" y="712"/>
			<point x="706" y="766" type="curve" smooth="yes"/>
			<point x="706" y="826"/>
			<point x="652" y="882"/>
			<point x="566" y="882" type="curve" smooth="yes"/>
			<point x="396" y="882"/>
			<point x="338" y="698"/>
			<point x="326" y="660" type="curve"/>
			<point x="324" y="660" type="line"/>
			<point x="324" y="882" type="line"/>
			<point x="56" y="860" type="line"/>
			<point x="56" y="802" type="line"/>
			<point x="192" y="802"/>
			<point x="208" y="788"/>
			<point x="208" y="690" type="curve" smooth="yes"/>
		</contour>
	</outline>
</glyph>
<glyph name="s" format="2">
	<unicode hex="0073"/>
	<advance width="386"/>
	<outline>
		<contour>
			<point x="352" y="127" type="curve" smooth="yes"/>
			<point x="352" y="181"/>
			<point x="320" y="214"/>
			<point x="310" y="222" type="curve" smooth="yes"/>
			<point x="274" y="254"/>
			<point x="247" y="259"/>
			<point x="181" y="271" type="curve" smooth="yes"/>
			<point x="151" y="277"/>
			<point x="78" y="291"/>
			<point x="78" y="351" type="curve" smooth="yes"/>
			<point x="78" y="382"/>
			<point x="99" y="428"/>
			<point x="189" y="428" type="curve" smooth="yes"/>
			<point x="298" y="428"/>
			<point x="304" y="335"/>
			<point x="306" y="304" type="curve"/>
			<point x="307" y="296"/>
			<point x="314" y="296"/>
			<point x="317" y="296" type="curve" smooth="yes"/>
			<point x="328" y="296"/>
			<point x="328" y="301"/>
			<point x="328" y="319" type="curve" smooth="yes"/>
			<point x="328" y="423" type="line" smooth="yes"/>
			<point x="328" y="441"/>
			<point x="328" y="446"/>
			<point x="318" y="446" type="curve" smooth="yes"/>
			<point x="310" y="446"/>
			<point x="291" y="424"/>
			<point x="284" y="415" type="curve"/>
			<point x="284" y="415"/>
			<point x="284" y="415"/>
			<point x="284" y="415" type="curve"/>
			<point x="253" y="440"/>
			<point x="222" y="446"/>
			<point x="190" y="446" type="curve" smooth="yes"/>
			<point x="69" y="446"/>
			<point x="33" y="380"/>
			<point x="33" y="325" type="curve" smooth="yes"/>
			<point x="33" y="314"/>
			<point x="33" y="279"/>
			<point x="71" y="244" type="curve" smooth="yes"/>
			<point x="103" y="216"/>
			<point x="137" y="209"/>
			<point x="183" y="200" type="curve" smooth="yes"/>
			<point x="238" y="189"/>
			<point x="251" y="186"/>
			<point x="276" y="166" type="curve" smooth="yes"/>
			<point x="294" y="151"/>
			<point x="307" y="129"/>
			<point x="307" y="101" type="curve" smooth="yes"/>
			<point x="307" y="58"/>
			<point x="282" y="10"/>
			<point x="194" y="10" type="curve" smooth="yes"/>
			<point x="128" y="10"/>
			<point x="78" y="51"/>
			<point x="58" y="148" type="curve" smooth="yes"/>
			<point x="53" y="171"/>
			<point x="52" y="172"/>
			<point x="44" y="172" type="curve" smooth="yes"/>
			<point x="33" y="172"/>
			<point x="33" y="167"/>
			<point x="33" y="149" type="curve" smooth="yes"/>
			<point x="33" y="13" type="line" smooth="yes"/>
			<point x="33" y="-5"/>
			<point x="33" y="-10"/>
			<point x="43" y="-10" type="curve" smooth="yes"/>
			<point x="48" y="-10"/>
			<point x="49" y="-9"/>
			<point x="66" y="12" type="curve" smooth="yes"/>
			<point x="72.66" y="20.325"/>
			<point x="79.32" y="28.65"/>
			<point x="86" y="37" type="curve"/>
			<point x="124" y="-10"/>
			<point x="178" y="-10"/>
			<point x="195" y="-10" type="curve" smooth="yes"/>
			<point x="300" y="-10"/>
			<point x="352" y="48"/>
		</contour>
	</outline>
</glyph>
<glyph name="t" format="2">
	<unicode hex="0074"/>
	<advance width="760"/>
	<outline>
		<contour>
			<point x="336" y="804" type="line"/>
			<point x="618" y="804" type="line"/>
			<point x="618" y="862" type="line"/>
			<point x="336" y="862" type="line"/>
			<point x="336" y="1230" type="line"/>
			<point x="292" y="1230" type="line"/>
			<point x="290" y="1042"/>
			<point x="218" y="850"/>
			<point x="36" y="844" type="curve"/>
			<point x="36" y="804" type="line"/>
			<point x="206" y="804" type="line"/>
			<point x="206" y="248" type="line" smooth="yes"/>
			<point x="206" y="26"/>
			<point x="354" y="-20"/>
			<point x="460" y="-20" type="curve" smooth="yes"/>
			<point x="586" y="-20"/>
			<point x="652" y="104"/>
			<point x="652" y="248" type="curve" smooth="yes"/>
			<point x="652" y="362" type="line"/>
			<point x="608" y="362" type="line"/>
			<point x="608" y="252" type="line" smooth="yes"/>
			<point x="608" y="108"/>
			<point x="550" y="24"/>
			<point x="472" y="24" type="curve" smooth="yes"/>
			<point x="336" y="24"/>
			<point x="336" y="210"/>
			<point x="336" y="244" type="curve" smooth="yes"/>
		</contour>
	</outline>
</glyph>
<glyph name="v" format="2">
  <advance width="516"/>
  <unicode hex="0076"/>
  <outline>
    <contour>
      <point x="258" y="-10" type="curve" smooth="yes"/>
      <point x="265" y="-10"/>
      <point x="271" y="-8"/>
      <point x="278" y="9" type="curve" smooth="yes"/>
      <point x="321.29" y="117.891"/>
      <point x="364.58" y="226.782"/>
      <point x="408" y="336" type="curve" smooth="yes"/>
      <point x="417" y="358"/>
      <point x="434" y="401"/>
      <point x="498" y="402" type="curve"/>
      <point x="498.0" y="411.657"/>
      <point x="498.0" y="421.314"/>
      <point x="498" y="431" type="curve"/>
      <point x="469" y="429"/>
      <point x="455" y="429"/>
      <point x="424" y="429" type="curve" smooth="yes"/>
      <point x="403" y="429"/>
      <point x="388" y="429"/>
      <point x="342" y="431" type="curve"/>
      <point x="342.0" y="421.343"/>
      <point x="342.0" y="411.686"/>
      <point x="342" y="402" type="curve"/>
      <point x="384" y="400"/>
      <point x="389" y="370"/>
      <point x="389" y="359" type="curve" smooth="yes"/>
      <point x="389" y="350"/>
      <point x="387" y="345"/>
      <point x="382" y="333" type="curve" smooth="yes"/>
      <point x="348.034" y="247.086"/>
      <point x="314.068" y="161.172"/>
      <point x="280" y="75" type="curve"/>
      <point x="242.704" y="168.906"/>
      <point x="205.40800000000002" y="262.812"/>
      <point x="168" y="357" type="curve" smooth="yes"/>
      <point x="163" y="371"/>
      <point x="162" y="371"/>
      <point x="162" y="376" type="curve" smooth="yes"/>
      <point x="162" y="402"/>
      <point x="200" y="402"/>
      <point x="218" y="402" type="curve"/>
      <point x="218.0" y="411.657"/>
      <point x="218.0" y="421.314"/>
      <point x="218" y="431" type="curve"/>
      <point x="193" y="429"/>
      <point x="141" y="429"/>
      <point x="114" y="429" type="curve" smooth="yes"/>
      <point x="81" y="429"/>
      <point x="79" y="429"/>
      <point x="18" y="431" type="curve"/>
      <point x="18.0" y="421.343"/>
      <point x="18.0" y="411.686"/>
      <point x="18" y="402" type="curve"/>
      <point x="74" y="402"/>
      <point x="84" y="398"/>
      <point x="96" y="367" type="curve" smooth="yes"/>
      <point x="143.619" y="247.786"/>
      <point x="191.238" y="128.57199999999997"/>
      <point x="239" y="9" type="curve" smooth="yes"/>
      <point x="244" y="-5"/>
      <point x="246" y="-10"/>
    </contour>
  </outline>
</glyph>
<glyph name="w" format="2">
	<unicode hex="0077"/>
	<advance width="1414"/>
	<outline>
		<contour>
			<point x="1210" y="672" type="line" smooth="yes"/>
			<point x="1254" y="798"/>
			<point x="1342" y="802"/>
			<point x="1376" y="804" type="curve"/>
			<point x="1376" y="823"/>
			<point x="1376" y="843"/>
			<point x="1376" y="862" type="curve"/>
			<point x="1326" y="858"/>
			<point x="1290" y="858"/>
			<point x="1228" y="858" type="curve" smooth="yes"/>
			<point x="1170" y="858"/>
			<point x="1166" y="858"/>
			<point x="1058" y="862" type="curve"/>
			<point x="1058" y="843"/>
			<point x="1058" y="823"/>
			<point x="1058" y="804" type="curve"/>
			<point x="1148" y="800"/>
			<point x="1172" y="746"/>
			<point x="1172" y="708" type="curve" smooth="yes"/>
			<point x="1172" y="706"/>
			<point x="1172" y="692"/>
			<point x="1164" y="672" type="curve" smooth="yes"/>
			<point x="980" y="148" type="line"/>
			<point x="780" y="714" type="line"/>
			<point x="770" y="738"/>
			<point x="770" y="742"/>
			<point x="770" y="748" type="curve" smooth="yes"/>
			<point x="770" y="804"/>
			<point x="844" y="804"/>
			<point x="886" y="804" type="curve"/>
			<point x="886" y="862" type="line"/>
			<point x="830" y="858"/>
			<point x="748" y="858"/>
			<point x="690" y="858" type="curve" smooth="yes"/>
			<point x="626" y="858"/>
			<point x="622" y="858"/>
			<point x="510" y="862" type="curve"/>
			<point x="510" y="804" type="line"/>
			<point x="586" y="804"/>
			<point x="612" y="800"/>
			<point x="634" y="774" type="curve" smooth="yes"/>
			<point x="644" y="762"/>
			<point x="668" y="696"/>
			<point x="682" y="656" type="curve"/>
			<point x="512" y="168" type="line"/>
			<point x="320" y="712" type="line" smooth="yes"/>
			<point x="310" y="738"/>
			<point x="310" y="742"/>
			<point x="310" y="750" type="curve" smooth="yes"/>
			<point x="310" y="804"/>
			<point x="388" y="804"/>
			<point x="426" y="804" type="curve"/>
			<point x="426" y="862" type="line"/>
			<point x="376" y="858"/>
			<point x="276" y="858"/>
			<point x="222" y="858" type="curve" smooth="yes"/>
			<point x="166" y="858"/>
			<point x="162" y="858"/>
			<point x="36" y="862" type="curve"/>
			<point x="36" y="804" type="line"/>
			<point x="138" y="804"/>
			<point x="158" y="796"/>
			<point x="180" y="732" type="curve" smooth="yes"/>
			<point x="432" y="16" type="line" smooth="yes"/>
			<point x="440" y="-6"/>
			<point x="446" y="-20"/>
			<point x="468" y="-20" type="curve" smooth="yes"/>
			<point x="486" y="-20"/>
			<point x="496" y="-14"/>
			<point x="506" y="18" type="curve" smooth="yes"/>
			<point x="706" y="588" type="line"/>
			<point x="906" y="18" type="line" smooth="yes"/>
			<point x="916" y="-14"/>
			<point x="926" y="-20"/>
			<point x="944" y="-20" type="curve" smooth="yes"/>
			<point x="966" y="-20"/>
			<point x="972" y="-6"/>
			<point x="980" y="16" type="curve" smooth="yes"/>
		</contour>
	</outline>
</glyph>
<glyph name="z" format="2">
	<unicode hex="007A"/>
	<advance width="870"/>
	<outline>
		<contour>
			<point x="626" y="822" type="line"/>
			<point x="54" y="36" type="line"/>
			<point x="54" y="36"/>
			<point x="54" y="36"/>
			<point x="54" y="36" type="curve"/>
			<point x="54" y="0"/>
			<point x="58" y="0"/>
			<point x="102" y="0" type="curve" smooth="yes"/>
			<point x="754" y="0" type="line"/>
			<point x="786" y="368" type="line"/>
			<point x="742" y="368" type="line"/>
			<point x="724" y="140"/>
			<point x="690" y="44"/>
			<point x="452" y="44" type="curve" smooth="yes"/>
			<point x="210" y="44" type="line"/>
			<point x="762" y="806" type="line"/>
			<point x="780" y="828"/>
			<point x="780" y="832"/>
			<point x="780" y="840" type="curve" smooth="yes"/>
			<point x="780" y="862"/>
			<point x="766" y="862"/>
			<point x="732" y="862" type="curve" smooth="yes"/>
			<point x="104" y="862" type="line"/>
			<point x="82" y="544" type="line"/>
			<point x="126" y="544" type="line"/>
			<point x="138" y="748"/>
			<point x="176" y="822"/>
			<point x="394" y="822" type="curve" smooth="yes"/>
		</contour>
	</outline>
</glyph>
<glyph name="exclamdown" format="2">
	<unicode hex="00A1"/>
	<advance width="542"/>
	<outline>
		<contour>
			<point x="270" y="-430" type="curve" smooth="yes"/>
			<point x="312" y="-430"/>
			<point x="374" y="-402"/>
			<point x="368" y="-318" type="curve" smooth="yes"/>
			<point x="344" y="-13"/>
			<point x="320" y="292"/>
			<point x="296" y="598" type="curve" smooth="yes"/>
			<point x="294" y="632"/>
			<point x="290" y="640"/>
			<point x="272" y="640" type="curve" smooth="yes"/>
			<point x="252" y="640"/>
			<point x="248" y="634"/>
			<point x="246" y="598" type="curve" smooth="yes"/>
			<point x="222" y="287"/>
			<point x="198" y="-24"/>
			<point x="174" y="-336" type="curve"/>
			<point x="174" y="-400"/>
			<point x="228" y="-430"/>
		</contour>
		<contour>
			<point x="368" y="902" type="curve" smooth="yes"/>
			<point x="368" y="958"/>
			<point x="324" y="1000"/>
			<point x="270" y="1000" type="curve" smooth="yes"/>
			<point x="222" y="1000"/>
			<point x="174" y="960"/>
			<point x="174" y="902" type="curve" smooth="yes"/>
			<point x="174" y="854"/>
			<point x="214" y="806"/>
			<point x="272" y="806" type="curve" smooth="yes"/>
			<point x="324" y="806"/>
			<point x="368" y="850"/>
		</contour>
	</outline>
</glyph>
<glyph name="dieresis" format="2">
	<unicode hex="00A8"/>
	<advance width="978"/>
	<outline>
		<contour>
			<point x="392" y="1238" type="curve" smooth="yes"/>
			<point x="392" y="1288"/>
			<point x="350" y="1330"/>
			<point x="300" y="1330" type="curve" smooth="yes"/>
			<point x="252" y="1330"/>
			<point x="208" y="1294"/>
			<point x="208" y="1238" type="curve" smooth="yes"/>
			<point x="208" y="1182"/>
			<point x="252" y="1146"/>
			<point x="300" y="1146" type="curve" smooth="yes"/>
			<point x="350" y="1146"/>
			<point x="392" y="1188"/>
		</contour>
		<contour>
			<point x="770" y="1238" type="curve" smooth="yes"/>
			<point x="770" y="1294"/>
			<point x="726" y="1330"/>
			<point x="678" y="1330" type="curve" smooth="yes"/>
			<point x="628" y="1330"/>
			<point x="586" y="1288"/>
			<point x="586" y="1238" type="curve" smooth="yes"/>
			<point x="586" y="1188"/>
			<point x="628" y="1146"/>
			<point x="678" y="1146" type="curve" smooth="yes"/>
			<point x="726" y="1146"/>
			<point x="770" y="1182"/>
		</contour>
	</outline>
</glyph>
<glyph name="acute" format="2">
	<unicode hex="00B4"/>
	<advance width="978"/>
	<outline>
		<contour>
			<point x="436" y="1022" type="line"/>
			<point x="734" y="1270" type="line" smooth="yes"/>
			<point x="766" y="1296"/>
			<point x="766" y="1318"/>
			<point x="766" y="1328" type="curve" smooth="yes"/>
			<point x="766" y="1364"/>
			<point x="732" y="1394"/>
			<point x="698" y="1394" type="curve" smooth="yes"/>
			<point x="670" y="1394"/>
			<point x="658" y="1380"/>
			<point x="642" y="1358" type="curve" smooth="yes"/>
			<point x="563" y="1257"/>
			<point x="483" y="1156"/>
			<point x="404" y="1054" type="curve"/>
		</contour>
	</outline>
</glyph>
<glyph name="cedilla" format="2">
	<unicode hex="00B8"/>
	<advance width="435"/>
	<outline>
		<contour>
			<point x="293" y="-125" type="curve" smooth="yes"/>
			<point x="293" y="-156"/>
			<point x="270" y="-181"/>
			<point x="160" y="-181" type="curve" smooth="yes"/>
			<point x="150.01" y="-181"/>
			<point x="140.02" y="-181"/>
			<point x="130" y="-181" type="curve"/>
			<point x="130" y="-201" type="line"/>
			<point x="143.986" y="-201"/>
			<point x="157.972" y="-201"/>
			<point x="172" y="-201" type="curve" smooth="yes"/>
			<point x="220" y="-201"/>
			<point x="262" y="-198"/>
			<point x="294" y="-189" type="curve" smooth="yes"/>
			<point x="334" y="-178"/>
			<point x="358" y="-158"/>
			<point x="358" y="-125" type="curve" smooth="yes"/>
			<point x="358" y="-70"/>
			<point x="292" y="-58"/>
			<point x="277" y="-55" type="curve"/>
			<point x="277" y="-21" type="line"/>
			<point x="212" y="-21" type="line"/>
			<point x="212" y="-70" type="line"/>
			<point x="261" y="-71"/>
			<point x="293" y="-93"/>
		</contour>
	</outline>
</glyph>
<glyph name="questiondown" format="2">
	<unicode hex="00BF"/>
	<advance width="924"/>
	<outline>
		<contour>
			<point x="108" y="-136" type="curve" smooth="yes"/>
			<point x="108" y="-272"/>
			<point x="190" y="-408"/>
			<point x="432" y="-408" type="curve" smooth="yes"/>
			<point x="646" y="-408"/>
			<point x="814" y="-296"/>
			<point x="814" y="-140" type="curve" smooth="yes"/>
			<point x="814" y="-68"/>
			<point x="760" y="-52"/>
			<point x="730" y="-52" type="curve" smooth="yes"/>
			<point x="696" y="-52"/>
			<point x="648" y="-76"/>
			<point x="648" y="-136" type="curve" smooth="yes"/>
			<point x="648" y="-194"/>
			<point x="698" y="-226"/>
			<point x="752" y="-216" type="curve"/>
			<point x="690" y="-340"/>
			<point x="522" y="-368"/>
			<point x="438" y="-368" type="curve" smooth="yes"/>
			<point x="262" y="-368"/>
			<point x="260" y="-244"/>
			<point x="260" y="-150" type="curve" smooth="yes"/>
			<point x="260" y="-36"/>
			<point x="280" y="2"/>
			<point x="314" y="48" type="curve" smooth="yes"/>
			<point x="438" y="222"/>
			<point x="456" y="392"/>
			<point x="456" y="570" type="curve" smooth="yes"/>
			<point x="456" y="586"/>
			<point x="456" y="600"/>
			<point x="456" y="616" type="curve" smooth="yes"/>
			<point x="456" y="622"/>
			<point x="454" y="640"/>
			<point x="434" y="640" type="curve" smooth="yes"/>
			<point x="412" y="640"/>
			<point x="412" y="632"/>
			<point x="412" y="596" type="curve" smooth="yes"/>
			<point x="412" y="562" type="line" smooth="yes"/>
			<point x="412" y="474"/>
			<point x="412" y="252"/>
			<point x="198" y="68" type="curve" smooth="yes"/>
			<point x="152" y="30"/>
			<point x="108" y="-30"/>
		</contour>
		<contour>
			<point x="530" y="902" type="curve" smooth="yes"/>
			<point x="530" y="958"/>
			<point x="486" y="1000"/>
			<point x="432" y="1000" type="curve" smooth="yes"/>
			<point x="380" y="1000"/>
			<point x="336" y="956"/>
			<point x="336" y="904" type="curve" smooth="yes"/>
			<point x="336" y="848"/>
			<point x="380" y="806"/>
			<point x="434" y="806" type="curve" smooth="yes"/>
			<point x="486" y="806"/>
			<point x="530" y="850"/>
		</contour>
	</outline>
</glyph>
<glyph name="AE" format="2">
	<unicode hex="00C6"/>
	<advance width="1766"/>
	<outline>
		<contour>
			<point x="1606" y="1366" type="line"/>
			<point x="516" y="1366" type="line"/>
			<point x="516" y="1308" type="line"/>
			<point x="674" y="1308" type="line"/>
			<point x="274" y="190" type="line" smooth="yes"/>
			<point x="238" y="92"/>
			<point x="164" y="58"/>
			<point x="62" y="58" type="curve"/>
			<point x="62" y="58" type="line"/>
			<point x="62" y="0" type="line"/>
			<point x="184" y="4"/>
			<point x="188" y="4"/>
			<point x="254" y="4" type="curve" smooth="yes"/>
			<point x="308" y="4"/>
			<point x="410" y="4"/>
			<point x="460" y="0" type="curve"/>
			<point x="460" y="58" type="line"/>
			<point x="364" y="60"/>
			<point x="326" y="108"/>
			<point x="326" y="158" type="curve" smooth="yes"/>
			<point x="326" y="170"/>
			<point x="326" y="174"/>
			<point x="336" y="200" type="curve" smooth="yes"/>
			<point x="488" y="628" type="line"/>
			<point x="814" y="628" type="line"/>
			<point x="814" y="146" type="line" smooth="yes"/>
			<point x="814" y="68"/>
			<point x="806" y="58"/>
			<point x="672" y="58" type="curve"/>
			<point x="672" y="58" type="line"/>
			<point x="672" y="0" type="line"/>
			<point x="1632" y="0" type="line"/>
			<point x="1712" y="512" type="line"/>
			<point x="1668" y="512" type="line"/>
			<point x="1622" y="204"/>
			<point x="1584" y="58"/>
			<point x="1260" y="58" type="curve" smooth="yes"/>
			<point x="1056" y="58" type="line" smooth="yes"/>
			<point x="968" y="58"/>
			<point x="964" y="72"/>
			<point x="964" y="138" type="curve" smooth="yes"/>
			<point x="964" y="628" type="line"/>
			<point x="1140" y="628" type="line" smooth="yes"/>
			<point x="1330" y="628"/>
			<point x="1346" y="560"/>
			<point x="1346" y="394" type="curve"/>
			<point x="1390" y="394" type="line"/>
			<point x="1390" y="920" type="line"/>
			<point x="1346" y="920" type="line"/>
			<point x="1346" y="754"/>
			<point x="1330" y="686"/>
			<point x="1140" y="686" type="curve" smooth="yes"/>
			<point x="964" y="686" type="line"/>
			<point x="964" y="1228" type="line" smooth="yes"/>
			<point x="964" y="1294"/>
			<point x="968" y="1308"/>
			<point x="1056" y="1308" type="curve" smooth="yes"/>
			<point x="1262" y="1308" type="line" smooth="yes"/>
			<point x="1536" y="1308"/>
			<point x="1586" y="1200"/>
			<point x="1614" y="920" type="curve"/>
			<point x="1658" y="920" type="line"/>
		</contour>
		<contour>
			<point x="510" y="686" type="line"/>
			<point x="730" y="1302" type="line"/>
			<point x="814" y="1300"/>
			<point x="814" y="1244"/>
			<point x="814" y="1210" type="curve" smooth="yes"/>
			<point x="814" y="686" type="line"/>
		</contour>
	</outline>
</glyph>
<glyph name="Oslash" format="2">
	<unicode hex="00D8"/>
	<advance width="1522"/>
	<outline>
		<contour>
			<point x="1310" y="1452" type="line"/>
			<point x="1276" y="1476" type="line"/>
			<point x="1138" y="1274" type="line"/>
			<point x="1082" y="1320"/>
			<point x="944" y="1408"/>
			<point x="762" y="1408" type="curve" smooth="yes"/>
			<point x="406" y="1408"/>
			<point x="108" y="1088"/>
			<point x="108" y="678" type="curve" smooth="yes"/>
			<point x="108" y="474"/>
			<point x="188" y="262"/>
			<point x="350" y="120" type="curve"/>
			<point x="212" y="-86" type="line"/>
			<point x="223" y="-94"/>
			<point x="235" y="-102"/>
			<point x="246" y="-110" type="curve"/>
			<point x="382" y="90" type="line"/>
			<point x="528" y="-18"/>
			<point x="664" y="-42"/>
			<point x="760" y="-42" type="curve" smooth="yes"/>
			<point x="1118" y="-42"/>
			<point x="1414" y="276"/>
			<point x="1414" y="678" type="curve" smooth="yes"/>
			<point x="1414" y="1030"/>
			<point x="1198" y="1224"/>
			<point x="1172" y="1244" type="curve"/>
		</contour>
		<contour>
			<point x="762" y="-2" type="curve" smooth="yes"/>
			<point x="576" y="-2"/>
			<point x="466" y="112"/>
			<point x="426" y="152" type="curve"/>
			<point x="1124" y="1176" type="line"/>
			<point x="1232" y="1026"/>
			<point x="1252" y="836"/>
			<point x="1252" y="680" type="curve" smooth="yes"/>
			<point x="1252" y="394"/>
			<point x="1172" y="228"/>
			<point x="1076" y="131" type="curve" smooth="yes"/>
			<point x="957" y="12"/>
			<point x="814" y="-2"/>
		</contour>
		<contour>
			<point x="398" y="190" type="line"/>
			<point x="306" y="314"/>
			<point x="270" y="470"/>
			<point x="270" y="680" type="curve" smooth="yes"/>
			<point x="270" y="968"/>
			<point x="350" y="1136"/>
			<point x="446" y="1233" type="curve" smooth="yes"/>
			<point x="570" y="1359"/>
			<point x="721" y="1368"/>
			<point x="760" y="1368" type="curve" smooth="yes"/>
			<point x="940" y="1368"/>
			<point x="1046" y="1262"/>
			<point x="1094" y="1214" type="curve"/>
		</contour>
	</outline>
</glyph>
<glyph name="germandbls" format="2">
	<unicode hex="00DF"/>
	<advance width="978"/>
	<outline>
		<contour>
			<point x="596" y="838" type="curve"/>
			<point x="746" y="878"/>
			<point x="870" y="986"/>
			<point x="870" y="1126" type="curve" smooth="yes"/>
			<point x="870" y="1276"/>
			<point x="726" y="1408"/>
			<point x="536" y="1408" type="curve" smooth="yes"/>
			<point x="376" y="1408"/>
			<point x="208" y="1306"/>
			<point x="208" y="1114" type="curve" smooth="yes"/>
			<point x="208" y="862" type="line"/>
			<point x="56" y="862" type="line"/>
			<point x="56" y="804" type="line"/>
			<point x="208" y="804" type="line"/>
			<point x="208" y="148" type="line" smooth="yes"/>
			<point x="208" y="58"/>
			<point x="186" y="58"/>
			<point x="56" y="58" type="curve"/>
			<point x="56" y="0" type="line"/>
			<point x="110" y="4"/>
			<point x="170" y="4"/>
			<point x="224" y="4" type="curve" smooth="yes"/>
			<point x="260" y="4"/>
			<point x="306" y="4"/>
			<point x="334" y="0" type="curve"/>
			<point x="334" y="1114" type="line" smooth="yes"/>
			<point x="334" y="1356"/>
			<point x="508" y="1368"/>
			<point x="536" y="1368" type="curve" smooth="yes"/>
			<point x="618" y="1368"/>
			<point x="730" y="1304"/>
			<point x="730" y="1128" type="curve" smooth="yes"/>
			<point x="730" y="884"/>
			<point x="506" y="866"/>
			<point x="456" y="862" type="curve"/>
			<point x="442" y="860"/>
			<point x="442" y="844"/>
			<point x="442" y="842" type="curve" smooth="yes"/>
			<point x="442" y="824"/>
			<point x="452" y="824"/>
			<point x="466" y="822" type="curve" smooth="yes"/>
			<point x="680" y="802"/>
			<point x="784" y="584"/>
			<point x="784" y="348" type="curve" smooth="yes"/>
			<point x="784" y="84"/>
			<point x="648" y="20"/>
			<point x="574" y="20" type="curve" smooth="yes"/>
			<point x="562" y="20"/>
			<point x="504" y="22"/>
			<point x="464" y="60" type="curve"/>
			<point x="506" y="68"/>
			<point x="520" y="100"/>
			<point x="520" y="124" type="curve" smooth="yes"/>
			<point x="520" y="168"/>
			<point x="488" y="190"/>
			<point x="456" y="190" type="curve" smooth="yes"/>
			<point x="422" y="190"/>
			<point x="390" y="168"/>
			<point x="390" y="122" type="curve" smooth="yes"/>
			<point x="390" y="48"/>
			<point x="464" y="-20"/>
			<point x="578" y="-20" type="curve" smooth="yes"/>
			<point x="754" y="-20"/>
			<point x="924" y="128"/>
			<point x="924" y="348" type="curve" smooth="yes"/>
			<point x="924" y="568"/>
			<point x="794" y="772"/>
		</contour>
	</outline>
</glyph>
<glyph name="ae" format="2">
	<unicode hex="00E6"/>
	<advance width="707"/>
	<outline>
		<contour>
			<point x="46" y="90" type="curve" smooth="yes"/>
			<point x="46" y="19"/>
			<point x="128" y="-10"/>
			<point x="198" y="-10" type="curve" smooth="yes"/>
			<point x="272" y="-10"/>
			<point x="336" y="24"/>
			<point x="363" y="80" type="curve"/>
			<point x="423" y="-1"/>
			<point x="497" y="-10"/>
			<point x="528" y="-10" type="curve" smooth="yes"/>
			<point x="637" y="-10"/>
			<point x="679" y="99"/>
			<point x="679" y="119" type="curve" smooth="yes"/>
			<point x="679" y="125"/>
			<point x="674" y="129"/>
			<point x="668" y="129" type="curve" smooth="yes"/>
			<point x="660" y="129"/>
			<point x="658" y="123"/>
			<point x="657" y="120" type="curve" smooth="yes"/>
			<point x="633" y="36"/>
			<point x="574" y="12"/>
			<point x="532" y="12" type="curve" smooth="yes"/>
			<point x="439" y="12"/>
			<point x="380" y="114"/>
			<point x="386" y="232" type="curve"/>
			<point x="655" y="232" type="line" smooth="yes"/>
			<point x="677" y="232"/>
			<point x="679" y="232"/>
			<point x="679" y="251" type="curve" smooth="yes"/>
			<point x="679" y="359"/>
			<point x="624" y="446"/>
			<point x="516" y="446" type="curve" smooth="yes"/>
			<point x="461" y="446"/>
			<point x="406" y="419"/>
			<point x="369" y="368" type="curve"/>
			<point x="319" y="442"/>
			<point x="243" y="446"/>
			<point x="219" y="446" type="curve" smooth="yes"/>
			<point x="134" y="446"/>
			<point x="73" y="390"/>
			<point x="73" y="327" type="curve" smooth="yes"/>
			<point x="73" y="298"/>
			<point x="92" y="284"/>
			<point x="115" y="284" type="curve" smooth="yes"/>
			<point x="139" y="284"/>
			<point x="156" y="301"/>
			<point x="156" y="325" type="curve" smooth="yes"/>
			<point x="156" y="366"/>
			<point x="120" y="366"/>
			<point x="105" y="366" type="curve"/>
			<point x="128" y="409"/>
			<point x="179" y="426"/>
			<point x="216" y="426" type="curve" smooth="yes"/>
			<point x="263" y="426"/>
			<point x="321" y="388"/>
			<point x="321" y="298" type="curve" smooth="yes"/>
			<point x="321" y="249" type="line"/>
			<point x="73" y="241"/>
			<point x="46" y="136"/>
		</contour>
		<contour>
			<point x="205" y="10" type="curve" smooth="yes"/>
			<point x="158" y="10"/>
			<point x="117" y="43"/>
			<point x="117" y="91" type="curve" smooth="yes"/>
			<point x="117" y="172"/>
			<point x="198" y="226"/>
			<point x="321" y="230" type="curve"/>
			<point x="321" y="207"/>
			<point x="321" y="188"/>
			<point x="328" y="161" type="curve" smooth="yes"/>
			<point x="332" y="144"/>
			<point x="332" y="143"/>
			<point x="332" y="133" type="curve" smooth="yes"/>
			<point x="332" y="60"/>
			<point x="269" y="10"/>
		</contour>
		<contour>
			<point x="387" y="251" type="line"/>
			<point x="399" y="414"/>
			<point x="494" y="426"/>
			<point x="515" y="426" type="curve" smooth="yes"/>
			<point x="612" y="426"/>
			<point x="616" y="284"/>
			<point x="617" y="251" type="curve"/>
		</contour>
	</outline>
</glyph>
<glyph name="oslash" format="2">
	<unicode hex="00F8"/>
	<advance width="978"/>
	<outline>
		<contour>
			<point x="152" y="-204" type="line"/>
			<point x="286" y="34" type="line"/>
			<point x="346" y="0"/>
			<point x="420" y="-20"/>
			<point x="488" y="-20" type="curve" smooth="yes"/>
			<point x="716" y="-20"/>
			<point x="908" y="174"/>
			<point x="908" y="428" type="curve" smooth="yes"/>
			<point x="908" y="588"/>
			<point x="834" y="726"/>
			<point x="728" y="810" type="curve"/>
			<point x="860" y="1044" type="line"/>
			<point x="826" y="1066" type="line"/>
			<point x="694" y="832" type="line"/>
			<point x="632" y="872"/>
			<point x="560" y="892"/>
			<point x="490" y="892" type="curve" smooth="yes"/>
			<point x="258" y="892"/>
			<point x="70" y="682"/>
			<point x="70" y="428" type="curve" smooth="yes"/>
			<point x="70" y="296"/>
			<point x="124" y="150"/>
			<point x="254" y="58" type="curve"/>
			<point x="118" y="-184" type="line"/>
		</contour>
		<contour>
			<point x="488" y="20" type="curve" smooth="yes"/>
			<point x="392" y="20"/>
			<point x="322" y="78"/>
			<point x="316" y="82" type="curve"/>
			<point x="694" y="750" type="line"/>
			<point x="764" y="664"/>
			<point x="778" y="550"/>
			<point x="778" y="428" type="curve" smooth="yes"/>
			<point x="778" y="354"/>
			<point x="776" y="242"/>
			<point x="720" y="150" type="curve" smooth="yes"/>
			<point x="674" y="76"/>
			<point x="590" y="20"/>
		</contour>
		<contour>
			<point x="286" y="114" type="line"/>
			<point x="204" y="204"/>
			<point x="200" y="344"/>
			<point x="200" y="428" type="curve" smooth="yes"/>
			<point x="200" y="504"/>
			<point x="204" y="624"/>
			<point x="260" y="716" type="curve" smooth="yes"/>
			<point x="318" y="812"/>
			<point x="410" y="852"/>
			<point x="488" y="852" type="curve" smooth="yes"/>
			<point x="564" y="852"/>
			<point x="626" y="816"/>
			<point x="664" y="784" type="curve"/>
		</contour>
	</outline>
</glyph>
<glyph name="OE" format="2">
	<unicode hex="0152"/>
	<advance width="1984"/>
	<outline>
		<contour>
			<point x="1930" y="512" type="line"/>
			<point x="1886" y="512" type="line"/>
			<point x="1838" y="202"/>
			<point x="1798" y="58"/>
			<point x="1468" y="58" type="curve" smooth="yes"/>
			<point x="1236" y="58" type="line" smooth="yes"/>
			<point x="1148" y="58"/>
			<point x="1144" y="72"/>
			<point x="1144" y="138" type="curve" smooth="yes"/>
			<point x="1144" y="680" type="line"/>
			<point x="1364" y="680" type="line" smooth="yes"/>
			<point x="1564" y="680"/>
			<point x="1592" y="620"/>
			<point x="1592" y="446" type="curve"/>
			<point x="1636" y="446" type="line"/>
			<point x="1636" y="972" type="line"/>
			<point x="1592" y="972" type="line"/>
			<point x="1592" y="800"/>
			<point x="1564" y="738"/>
			<point x="1364" y="738" type="curve" smooth="yes"/>
			<point x="1144" y="738" type="line"/>
			<point x="1144" y="1228" type="line" smooth="yes"/>
			<point x="1144" y="1294"/>
			<point x="1148" y="1308"/>
			<point x="1236" y="1308" type="curve" smooth="yes"/>
			<point x="1472" y="1308" type="line" smooth="yes"/>
			<point x="1750" y="1308"/>
			<point x="1804" y="1204"/>
			<point x="1832" y="920" type="curve"/>
			<point x="1876" y="920" type="line"/>
			<point x="1824" y="1366" type="line"/>
			<point x="1084" y="1366" type="line" smooth="yes"/>
			<point x="1052" y="1366"/>
			<point x="1024" y="1366"/>
			<point x="946" y="1384" type="curve" smooth="yes"/>
			<point x="866" y="1402"/>
			<point x="830" y="1408"/>
			<point x="784" y="1408" type="curve" smooth="yes"/>
			<point x="442" y="1408"/>
			<point x="134" y="1098"/>
			<point x="134" y="678" type="curve" smooth="yes"/>
			<point x="134" y="266"/>
			<point x="442" y="-42"/>
			<point x="784" y="-42" type="curve" smooth="yes"/>
			<point x="832" y="-42"/>
			<point x="872" y="-34"/>
			<point x="940" y="-18" type="curve" smooth="yes"/>
			<point x="1024" y="0"/>
			<point x="1056" y="0"/>
			<point x="1084" y="0" type="curve" smooth="yes"/>
			<point x="1850" y="0" type="line"/>
		</contour>
		<contour>
			<point x="316" y="708" type="curve" smooth="yes"/>
			<point x="316" y="1096"/>
			<point x="542" y="1368"/>
			<point x="788" y="1368" type="curve" smooth="yes"/>
			<point x="962" y="1368"/>
			<point x="984" y="1272"/>
			<point x="996" y="1158" type="curve" smooth="yes"/>
			<point x="1002" y="1110"/>
			<point x="1006" y="1068"/>
			<point x="1006" y="684" type="curve" smooth="yes"/>
			<point x="1006" y="488"/>
			<point x="1006" y="296"/>
			<point x="998" y="224" type="curve" smooth="yes"/>
			<point x="984" y="106"/>
			<point x="972" y="-2"/>
			<point x="790" y="-2" type="curve" smooth="yes"/>
			<point x="532" y="-2"/>
			<point x="316" y="308"/>
		</contour>
	</outline>
</glyph>
<glyph name="oe" format="2">
	<unicode hex="0153"/>
	<advance width="1522"/>
	<outline>
		<contour>
			<point x="472" y="-20" type="curve" smooth="yes"/>
			<point x="590" y="-20"/>
			<point x="726" y="38"/>
			<point x="814" y="188" type="curve"/>
			<point x="932" y="8"/>
			<point x="1086" y="-20"/>
			<point x="1164" y="-20" type="curve" smooth="yes"/>
			<point x="1386" y="-20"/>
			<point x="1468" y="200"/>
			<point x="1468" y="238" type="curve" smooth="yes"/>
			<point x="1468" y="250"/>
			<point x="1458" y="258"/>
			<point x="1446" y="258" type="curve" smooth="yes"/>
			<point x="1430" y="258"/>
			<point x="1426" y="246"/>
			<point x="1424" y="240" type="curve" smooth="yes"/>
			<point x="1370" y="56"/>
			<point x="1236" y="24"/>
			<point x="1174" y="24" type="curve" smooth="yes"/>
			<point x="980" y="24"/>
			<point x="866" y="234"/>
			<point x="880" y="464" type="curve"/>
			<point x="1420" y="464" type="line" smooth="yes"/>
			<point x="1464" y="464"/>
			<point x="1468" y="464"/>
			<point x="1468" y="502" type="curve" smooth="yes"/>
			<point x="1468" y="730"/>
			<point x="1348" y="892"/>
			<point x="1142" y="892" type="curve" smooth="yes"/>
			<point x="994" y="892"/>
			<point x="876" y="798"/>
			<point x="814" y="688" type="curve"/>
			<point x="720" y="840"/>
			<point x="584" y="892"/>
			<point x="472" y="892" type="curve" smooth="yes"/>
			<point x="252" y="892"/>
			<point x="60" y="696"/>
			<point x="60" y="436" type="curve" smooth="yes"/>
			<point x="60" y="180"/>
			<point x="250" y="-20"/>
		</contour>
		<contour>
			<point x="474" y="20" type="curve" smooth="yes"/>
			<point x="438" y="20"/>
			<point x="202" y="32"/>
			<point x="202" y="446" type="curve" smooth="yes"/>
			<point x="202" y="838"/>
			<point x="432" y="852"/>
			<point x="474" y="852" type="curve" smooth="yes"/>
			<point x="488" y="852"/>
			<point x="750" y="852"/>
			<point x="750" y="446" type="curve" smooth="yes"/>
			<point x="750" y="42"/>
			<point x="514" y="20"/>
		</contour>
		<contour>
			<point x="882" y="502" type="line"/>
			<point x="904" y="806"/>
			<point x="1076" y="852"/>
			<point x="1138" y="852" type="curve" smooth="yes"/>
			<point x="1332" y="852"/>
			<point x="1342" y="576"/>
			<point x="1344" y="502" type="curve"/>
		</contour>
	</outline>
</glyph>
<glyph name="circumflex" format="2">
	<unicode hex="02C6"/>
	<advance width="978"/>
	<outline>
		<contour>
			<point x="490" y="1388" type="line"/>
			<point x="228" y="1116" type="line"/>
			<point x="260" y="1086" type="line"/>
			<point x="488" y="1292" type="line"/>
			<point x="718" y="1086" type="line"/>
			<point x="750" y="1116" type="line"/>
		</contour>
	</outline>
</glyph>
<glyph name="caron" format="2">
	<unicode hex="02C7"/>
	<advance width="978"/>
	<outline>
		<contour>
			<point x="490" y="1132" type="line"/>
			<point x="256" y="1274" type="line"/>
			<point x="232" y="1238" type="line"/>
			<point x="488" y="1036" type="line"/>
			<point x="746" y="1238" type="line"/>
			<point x="722" y="1274" type="line"/>
		</contour>
	</outline>
</glyph>
<glyph name="breve" format="2">
	<unicode hex="02D8"/>
	<advance width="978"/>
	<outline>
		<contour>
			<point x="740" y="1388" type="line"/>
			<point x="736" y="1214"/>
			<point x="610" y="1114"/>
			<point x="490" y="1114" type="curve" smooth="yes"/>
			<point x="362" y="1114"/>
			<point x="242" y="1218"/>
			<point x="238" y="1388" type="curve"/>
			<point x="198" y="1388" type="line"/>
			<point x="202" y="1180"/>
			<point x="338" y="1044"/>
			<point x="488" y="1044" type="curve" smooth="yes"/>
			<point x="648" y="1044"/>
			<point x="776" y="1186"/>
			<point x="780" y="1388" type="curve"/>
		</contour>
	</outline>
</glyph>
<glyph name="dotaccent" format="2">
	<unicode hex="02D9"/>
	<advance width="542"/>
	<outline>
		<contour>
			<point x="368" y="1232" type="curve" smooth="yes"/>
			<point x="368" y="1292"/>
			<point x="320" y="1330"/>
			<point x="272" y="1330" type="curve" smooth="yes"/>
			<point x="216" y="1330"/>
			<point x="174" y="1286"/>
			<point x="174" y="1232" type="curve" smooth="yes"/>
			<point x="174" y="1180"/>
			<point x="218" y="1136"/>
			<point x="270" y="1136" type="curve" smooth="yes"/>
			<point x="330" y="1136"/>
			<point x="368" y="1184"/>
		</contour>
	</outline>
</glyph>
<glyph name="ring" format="2">
	<unicode hex="02DA"/>
	<advance width="1468"/>
	<outline>
		<contour>
			<point x="918" y="1254" type="curve" smooth="yes"/>
			<point x="918" y="1356"/>
			<point x="830" y="1430"/>
			<point x="734" y="1430" type="curve" smooth="yes"/>
			<point x="626" y="1430"/>
			<point x="548" y="1346"/>
			<point x="548" y="1256" type="curve" smooth="yes"/>
			<point x="548" y="1154"/>
			<point x="636" y="1080"/>
			<point x="732" y="1080" type="curve" smooth="yes"/>
			<point x="840" y="1080"/>
			<point x="918" y="1164"/>
		</contour>
		<contour>
			<point x="734" y="1120" type="curve" smooth="yes"/>
			<point x="628" y="1120"/>
			<point x="592" y="1182"/>
			<point x="592" y="1254" type="curve" smooth="yes"/>
			<point x="592" y="1354"/>
			<point x="656" y="1390"/>
			<point x="732" y="1390" type="curve" smooth="yes"/>
			<point x="838" y="1390"/>
			<point x="874" y="1328"/>
			<point x="874" y="1256" type="curve" smooth="yes"/>
			<point x="874" y="1156"/>
			<point x="810" y="1120"/>
		</contour>
	</outline>
</glyph>
<glyph name="tilde" format="2">
	<unicode hex="02DC"/>
	<advance width="978"/>
	<outline>
		<contour>
			<point x="192" y="1146" type="line"/>
			<point x="250" y="1204"/>
			<point x="292" y="1244"/>
			<point x="356" y="1244" type="curve" smooth="yes"/>
			<point x="386" y="1244"/>
			<point x="414" y="1236"/>
			<point x="476" y="1196" type="curve" smooth="yes"/>
			<point x="516" y="1170"/>
			<point x="556" y="1146"/>
			<point x="602" y="1146" type="curve" smooth="yes"/>
			<point x="652" y="1146"/>
			<point x="689" y="1169"/>
			<point x="736" y="1216" type="curve" smooth="yes"/>
			<point x="759" y="1239"/>
			<point x="784" y="1267"/>
			<point x="814" y="1300" type="curve"/>
			<point x="786" y="1328" type="line"/>
			<point x="728" y="1270"/>
			<point x="686" y="1230"/>
			<point x="622" y="1230" type="curve" smooth="yes"/>
			<point x="592" y="1230"/>
			<point x="564" y="1238"/>
			<point x="502" y="1278" type="curve" smooth="yes"/>
			<point x="462" y="1304"/>
			<point x="422" y="1328"/>
			<point x="376" y="1328" type="curve" smooth="yes"/>
			<point x="329" y="1328"/>
			<point x="294" y="1308"/>
			<point x="251" y="1267" type="curve" smooth="yes"/>
			<point x="226" y="1243"/>
			<point x="199" y="1212"/>
			<point x="164" y="1174" type="curve"/>
		</contour>
	</outline>
</glyph>
<glyph name="hungarumlaut" format="2">
	<unicode hex="02DD"/>
	<advance width="489"/>
	<outline>
		<contour>
			<point x="127" y="524" type="line"/>
			<point x="145" y="514" type="line"/>
			<point x="175.303" y="555.958"/>
			<point x="205.606" y="597.916"/>
			<point x="236" y="640" type="curve" smooth="yes"/>
			<point x="247" y="655"/>
			<point x="247" y="661"/>
			<point x="247" y="666" type="curve" smooth="yes"/>
			<point x="247" y="688"/>
			<point x="225" y="699"/>
			<point x="212" y="699" type="curve" smooth="yes"/>
			<point x="191" y="699"/>
			<point x="185" y="682"/>
			<point x="181" y="671" type="curve" smooth="yes"/>
		</contour>
		<contour>
			<point x="290" y="524" type="line"/>
			<point x="295.994" y="520.67"/>
			<point x="301.988" y="517.34"/>
			<point x="308" y="514" type="curve"/>
			<point x="338.303" y="555.958"/>
			<point x="368.606" y="597.916"/>
			<point x="399" y="640" type="curve" smooth="yes"/>
			<point x="410" y="655"/>
			<point x="410" y="661"/>
			<point x="410" y="666" type="curve" smooth="yes"/>
			<point x="410" y="688"/>
			<point x="388" y="699"/>
			<point x="375" y="699" type="curve" smooth="yes"/>
			<point x="354" y="699"/>
			<point x="348" y="682"/>
			<point x="344" y="671" type="curve" smooth="yes"/>
		</contour>
	</outline>
</glyph>
<glyph name="endash" format="2">
	<unicode hex="2013"/>
	<advance width="978"/>
	<outline>
		<contour>
			<point x="978" y="512" type="line"/>
			<point x="978" y="552" type="line"/>
			<point x="0" y="552" type="line"/>
			<point x="0" y="512" type="line"/>
		</contour>
	</outline>
</glyph>
<glyph name="emdash" format="2">
	<unicode hex="2014"/>
	<advance width="1958"/>
	<outline>
		<contour>
			<point x="1956" y="512" type="line"/>
			<point x="1956" y="552" type="line"/>
			<point x="0" y="552" type="line"/>
			<point x="0" y="512" type="line"/>
		</contour>
	</outline>
</glyph>
<glyph name="quoteleft" format="2">
	<unicode hex="2018"/>
	<advance width="542"/>
	<outline>
		<contour>
			<point x="272" y="806" type="curve" smooth="yes"/>
			<point x="330" y="806"/>
			<point x="368" y="850"/>
			<point x="368" y="902" type="curve" smooth="yes"/>
			<point x="368" y="956"/>
			<point x="330" y="1000"/>
			<point x="270" y="1000" type="curve" smooth="yes"/>
			<point x="216" y="1000"/>
			<point x="190" y="962"/>
			<point x="190" y="960" type="curve"/>
			<point x="186" y="990"/>
			<point x="164" y="1178"/>
			<point x="324" y="1338" type="curve" smooth="yes"/>
			<point x="342" y="1356"/>
			<point x="342" y="1360"/>
			<point x="342" y="1366" type="curve" smooth="yes"/>
			<point x="342" y="1376"/>
			<point x="332" y="1386"/>
			<point x="322" y="1386" type="curve" smooth="yes"/>
			<point x="304" y="1386"/>
			<point x="146" y="1238"/>
			<point x="146" y="1010" type="curve" smooth="yes"/>
			<point x="146" y="886"/>
			<point x="192" y="806"/>
		</contour>
	</outline>
</glyph>
<glyph name="quoteright" format="2">
	<unicode hex="2019"/>
	<advance width="542"/>
	<outline>
		<contour>
			<point x="220" y="808" type="curve" smooth="yes"/>
			<point x="238" y="808"/>
			<point x="396" y="956"/>
			<point x="396" y="1184" type="curve" smooth="yes"/>
			<point x="396" y="1308"/>
			<point x="350" y="1388"/>
			<point x="270" y="1388" type="curve" smooth="yes"/>
			<point x="212" y="1388"/>
			<point x="174" y="1344"/>
			<point x="174" y="1292" type="curve" smooth="yes"/>
			<point x="174" y="1238"/>
			<point x="212" y="1194"/>
			<point x="272" y="1194" type="curve" smooth="yes"/>
			<point x="326" y="1194"/>
			<point x="352" y="1232"/>
			<point x="352" y="1234" type="curve"/>
			<point x="356" y="1204"/>
			<point x="378" y="1016"/>
			<point x="218" y="856" type="curve" smooth="yes"/>
			<point x="200" y="838"/>
			<point x="200" y="834"/>
			<point x="200" y="828" type="curve" smooth="yes"/>
			<point x="200" y="818"/>
			<point x="210" y="808"/>
		</contour>
	</outline>
</glyph>
<glyph name="quotedblleft" format="2">
	<unicode hex="201C"/>
	<advance width="978"/>
	<outline>
		<contour>
			<point x="436" y="806" type="curve" smooth="yes"/>
			<point x="494" y="806"/>
			<point x="532" y="850"/>
			<point x="532" y="902" type="curve" smooth="yes"/>
			<point x="532" y="956"/>
			<point x="494" y="1000"/>
			<point x="434" y="1000" type="curve" smooth="yes"/>
			<point x="380" y="1000"/>
			<point x="354" y="962"/>
			<point x="354" y="960" type="curve"/>
			<point x="350" y="990"/>
			<point x="328" y="1178"/>
			<point x="488" y="1338" type="curve" smooth="yes"/>
			<point x="506" y="1356"/>
			<point x="506" y="1360"/>
			<point x="506" y="1366" type="curve" smooth="yes"/>
			<point x="506" y="1376"/>
			<point x="496" y="1386"/>
			<point x="486" y="1386" type="curve" smooth="yes"/>
			<point x="468" y="1386"/>
			<point x="310" y="1238"/>
			<point x="310" y="1010" type="curve" smooth="yes"/>
			<point x="310" y="886"/>
			<point x="356" y="806"/>
		</contour>
		<contour>
			<point x="816" y="806" type="curve" smooth="yes"/>
			<point x="874" y="806"/>
			<point x="912" y="850"/>
			<point x="912" y="902" type="curve" smooth="yes"/>
			<point x="912" y="956"/>
			<point x="874" y="1000"/>
			<point x="814" y="1000" type="curve" smooth="yes"/>
			<point x="760" y="1000"/>
			<point x="734" y="962"/>
			<point x="734" y="960" type="curve"/>
			<point x="730" y="990"/>
			<point x="708" y="1178"/>
			<point x="868" y="1338" type="curve" smooth="yes"/>
			<point x="886" y="1356"/>
			<point x="886" y="1360"/>
			<point x="886" y="1366" type="curve" smooth="yes"/>
			<point x="886" y="1376"/>
			<point x="876" y="1386"/>
			<point x="866" y="1386" type="curve" smooth="yes"/>
			<point x="848" y="1386"/>
			<point x="690" y="1238"/>
			<point x="690" y="1010" type="curve" smooth="yes"/>
			<point x="690" y="886"/>
			<point x="736" y="806"/>
		</contour>
	</outline>
</glyph>
<glyph name="quotedblright" format="2">
	<unicode hex="201D"/>
	<advance width="978"/>
	<outline>
		<contour>
			<point x="112" y="808" type="curve" smooth="yes"/>
			<point x="130" y="808"/>
			<point x="288" y="956"/>
			<point x="288" y="1184" type="curve" smooth="yes"/>
			<point x="288" y="1308"/>
			<point x="242" y="1388"/>
			<point x="162" y="1388" type="curve" smooth="yes"/>
			<point x="104" y="1388"/>
			<point x="66" y="1344"/>
			<point x="66" y="1292" type="curve" smooth="yes"/>
			<point x="66" y="1238"/>
			<point x="104" y="1194"/>
			<point x="164" y="1194" type="curve" smooth="yes"/>
			<point x="218" y="1194"/>
			<point x="244" y="1232"/>
			<point x="244" y="1234" type="curve"/>
			<point x="248" y="1204"/>
			<point x="270" y="1016"/>
			<point x="110" y="856" type="curve" smooth="yes"/>
			<point x="92" y="838"/>
			<point x="92" y="834"/>
			<point x="92" y="828" type="curve" smooth="yes"/>
			<point x="92" y="818"/>
			<point x="102" y="808"/>
		</contour>
		<contour>
			<point x="492" y="808" type="curve" smooth="yes"/>
			<point x="510" y="808"/>
			<point x="668" y="956"/>
			<point x="668" y="1184" type="curve" smooth="yes"/>
			<point x="668" y="1308"/>
			<point x="622" y="1388"/>
			<point x="542" y="1388" type="curve" smooth="yes"/>
			<point x="484" y="1388"/>
			<point x="446" y="1344"/>
			<point x="446" y="1292" type="curve" smooth="yes"/>
			<point x="446" y="1238"/>
			<point x="484" y="1194"/>
			<point x="544" y="1194" type="curve" smooth="yes"/>
			<point x="598" y="1194"/>
			<point x="624" y="1232"/>
			<point x="624" y="1234" type="curve"/>
			<point x="628" y="1204"/>
			<point x="650" y="1016"/>
			<point x="490" y="856" type="curve" smooth="yes"/>
			<point x="472" y="838"/>
			<point x="472" y="834"/>
			<point x="472" y="828" type="curve" smooth="yes"/>
			<point x="472" y="818"/>
			<point x="482" y="808"/>
		</contour>
	</outline>
</glyph>
<glyph name="a.alt" format="2">
  <advance width="489"/>
  <outline>
    <contour>
      <point x="44" y="94" type="curve" smooth="yes"/>
      <point x="44" y="15"/>
      <point x="136" y="-10"/>
      <point x="197" y="-10" type="curve" smooth="yes"/>
      <point x="263" y="-10"/>
      <point x="308" y="30"/>
      <point x="327" y="78" type="curve"/>
      <point x="327" y="28"/>
      <point x="347" y="0"/>
      <point x="404" y="0" type="curve" smooth="yes"/>
      <point x="417.653" y="0.0"/>
      <point x="431.306" y="0.0"/>
      <point x="445" y="0" type="curve" smooth="yes"/>
      <point x="462" y="0"/>
      <point x="468" y="2"/>
      <point x="468" y="13" type="curve" smooth="yes"/>
      <point x="468" y="23"/>
      <point x="461" y="25"/>
      <point x="451" y="25" type="curve" smooth="yes"/>
      <point x="386" y="25"/>
      <point x="386" y="33"/>
      <point x="386" y="64" type="curve" smooth="yes"/>
      <point x="386" y="267" type="line" smooth="yes"/>
      <point x="386" y="321"/>
      <point x="386" y="361"/>
      <point x="342" y="400" type="curve" smooth="yes"/>
      <point x="307" y="432"/>
      <point x="262" y="446"/>
      <point x="218" y="446" type="curve" smooth="yes"/>
      <point x="136" y="446"/>
      <point x="73" y="392"/>
      <point x="73" y="327" type="curve" smooth="yes"/>
      <point x="73" y="298"/>
      <point x="92" y="284"/>
      <point x="115" y="284" type="curve" smooth="yes"/>
      <point x="139" y="284"/>
      <point x="156" y="301"/>
      <point x="156" y="325" type="curve" smooth="yes"/>
      <point x="156" y="366"/>
      <point x="120" y="366"/>
      <point x="105" y="366" type="curve"/>
      <point x="128" y="408"/>
      <point x="176" y="426"/>
      <point x="216" y="426" type="curve" smooth="yes"/>
      <point x="262" y="426"/>
      <point x="321" y="388"/>
      <point x="321" y="298" type="curve" smooth="yes"/>
      <point x="321" y="258" type="line"/>
      <point x="235" y="257"/>
      <point x="172" y="241"/>
      <point x="128" y="217" type="curve" smooth="yes"/>
      <point x="69" y="185"/>
      <point x="44" y="138"/>
    </contour>
    <contour>
      <point x="321" y="141" type="line" smooth="yes"/>
      <point x="321.0" y="96.22380000000001"/>
      <point x="305.76069447" y="65.01684465000001"/>
      <point x="285.106362666927" y="44.32693068571199" type="curve" smooth="yes"/>
      <point x="260.5553283" y="19.733601129999997"/>
      <point x="228.3533" y="9.999999999999998"/>
      <point x="205" y="10" type="curve" smooth="yes"/>
      <point x="156" y="10"/>
      <point x="115" y="46"/>
      <point x="115" y="94" type="curve" smooth="yes"/>
      <point x="115" y="226"/>
      <point x="285" y="238"/>
      <point x="321" y="240" type="curve"/>
    </contour>
  </outline>
</glyph>
<glyph name="dotlessj" format="2">
	<advance width="598"/>
	<outline>
		<contour>
			<point x="280" y="690" type="curve" smooth="yes"/>
			<point x="280" y="-110" type="line" smooth="yes"/>
			<point x="280" y="-220"/>
			<point x="258" y="-368"/>
			<point x="142" y="-368" type="curve" smooth="yes"/>
			<point x="138" y="-368"/>
			<point x="76" y="-368"/>
			<point x="30" y="-340" type="curve"/>
			<point x="82" y="-330"/>
			<point x="98" y="-292"/>
			<point x="98" y="-258" type="curve" smooth="yes"/>
			<point x="98" y="-212"/>
			<point x="64" y="-176"/>
			<point x="16" y="-176" type="curve" smooth="yes"/>
			<point x="-34" y="-176"/>
			<point x="-68" y="-212"/>
			<point x="-68" y="-260" type="curve" smooth="yes"/>
			<point x="-68" y="-356"/>
			<point x="40" y="-408"/>
			<point x="144" y="-408" type="curve" smooth="yes"/>
			<point x="288" y="-408"/>
			<point x="406" y="-284"/>
			<point x="406" y="-102" type="curve" smooth="yes"/>
			<point x="406" y="882" type="line"/>
			<point x="112" y="860" type="line"/>
			<point x="112" y="802" type="line"/>
			<point x="262" y="802"/>
			<point x="280" y="788"/>
		</contour>
	</outline>
</glyph>
<glyph name="ff" format="2">
	<advance width="1142"/>
	<outline>
		<contour>
			<point x="876" y="804" type="line"/>
			<point x="1104" y="804" type="line"/>
			<point x="1104" y="862" type="line"/>
			<point x="872" y="862" type="line"/>
			<point x="872" y="1096" type="line" smooth="yes"/>
			<point x="872" y="1268"/>
			<point x="960" y="1368"/>
			<point x="1048" y="1368" type="curve" smooth="yes"/>
			<point x="1078" y="1368"/>
			<point x="1106" y="1358"/>
			<point x="1118" y="1352" type="curve"/>
			<point x="1110" y="1350"/>
			<point x="1060" y="1332"/>
			<point x="1060" y="1274" type="curve" smooth="yes"/>
			<point x="1060" y="1228"/>
			<point x="1092" y="1196"/>
			<point x="1138" y="1196" type="curve" smooth="yes"/>
			<point x="1186" y="1196"/>
			<point x="1218" y="1228"/>
			<point x="1218" y="1276" type="curve" smooth="yes"/>
			<point x="1218" y="1348"/>
			<point x="1148" y="1408"/>
			<point x="1048" y="1408" type="curve" smooth="yes"/>
			<point x="968" y="1408"/>
			<point x="892" y="1372"/>
			<point x="842" y="1324" type="curve"/>
			<point x="790" y="1398"/>
			<point x="678" y="1408"/>
			<point x="624" y="1408" type="curve" smooth="yes"/>
			<point x="432" y="1408"/>
			<point x="208" y="1304"/>
			<point x="208" y="1092" type="curve" smooth="yes"/>
			<point x="208" y="862" type="line"/>
			<point x="52" y="862" type="line"/>
			<point x="52" y="804" type="line"/>
			<point x="208" y="804" type="line"/>
			<point x="208" y="148" type="line" smooth="yes"/>
			<point x="208" y="58"/>
			<point x="186" y="58"/>
			<point x="56" y="58" type="curve"/>
			<point x="56" y="0" type="line"/>
			<point x="112" y="4"/>
			<point x="210" y="4"/>
			<point x="270" y="4" type="curve" smooth="yes"/>
			<point x="330" y="4"/>
			<point x="430" y="4"/>
			<point x="486" y="0" type="curve"/>
			<point x="486" y="58" type="line"/>
			<point x="358" y="58"/>
			<point x="334" y="58"/>
			<point x="334" y="148" type="curve" smooth="yes"/>
			<point x="334" y="804" type="line"/>
			<point x="750" y="804" type="line"/>
			<point x="750" y="148" type="line" smooth="yes"/>
			<point x="750" y="58"/>
			<point x="728" y="58"/>
			<point x="598" y="58" type="curve"/>
			<point x="598" y="0" type="line"/>
			<point x="654" y="4"/>
			<point x="764" y="4"/>
			<point x="824" y="4" type="curve" smooth="yes"/>
			<point x="878" y="4"/>
			<point x="1020" y="4"/>
			<point x="1066" y="0" type="curve"/>
			<point x="1066" y="58" type="line"/>
			<point x="1026" y="58" type="line" smooth="yes"/>
			<point x="880" y="58"/>
			<point x="876" y="80"/>
			<point x="876" y="152" type="curve" smooth="yes"/>
		</contour>
		<contour>
			<point x="330" y="862" type="line"/>
			<point x="330" y="1088" type="line" smooth="yes"/>
			<point x="330" y="1292"/>
			<point x="500" y="1368"/>
			<point x="620" y="1368" type="curve" smooth="yes"/>
			<point x="634" y="1368"/>
			<point x="722" y="1368"/>
			<point x="780" y="1326" type="curve"/>
			<point x="726" y="1316"/>
			<point x="710" y="1278"/>
			<point x="710" y="1248" type="curve" smooth="yes"/>
			<point x="710" y="1214"/>
			<point x="728" y="1186"/>
			<point x="758" y="1174" type="curve"/>
			<point x="750" y="1144"/>
			<point x="750" y="1118"/>
			<point x="750" y="1096" type="curve" smooth="yes"/>
			<point x="750" y="862" type="line"/>
		</contour>
	</outline>
</glyph>
